<svg width="36" height="36" viewBox="0 0 36 36" fill="none" xmlns="http://www.w3.org/2000/svg">
<path fill-rule="evenodd" clip-rule="evenodd" d="M10.5417 12.1667C10.5417 8.13959 13.8063 4.875 17.8334 4.875C21.8605 4.875 25.1251 8.13959 25.1251 12.1667C25.1251 16.1937 21.8605 19.4583 17.8334 19.4583C13.8063 19.4583 10.5417 16.1937 10.5417 12.1667ZM17.8334 7.79167C15.4172 7.79167 13.4584 9.75042 13.4584 12.1667C13.4584 14.5829 15.4172 16.5417 17.8334 16.5417C20.2497 16.5417 22.2084 14.5829 22.2084 12.1667C22.2084 9.75042 20.2497 7.79167 17.8334 7.79167Z" fill="#E8E0EB"/>
<path d="M9.50115 9.18889C10.2728 8.95818 10.7113 8.1456 10.4806 7.37393C10.2499 6.60227 9.43735 6.16373 8.66568 6.39444C6.26871 7.11108 4.70842 9.53059 4.70842 12.1667C4.70842 14.8027 6.26871 17.2223 8.66568 17.9389C9.43735 18.1696 10.2499 17.7311 10.4806 16.9594C10.7113 16.1877 10.2728 15.3751 9.50115 15.1444C8.54352 14.8581 7.62508 13.7404 7.62508 12.1667C7.62508 10.593 8.54352 9.4752 9.50115 9.18889Z" fill="#E8E0EB"/>
<path d="M27.0012 6.39444C26.2295 6.16373 25.4169 6.60227 25.1862 7.37393C24.9555 8.1456 25.394 8.95818 26.1657 9.18889C27.1233 9.4752 28.0418 10.593 28.0418 12.1667C28.0418 13.7404 27.1233 14.8581 26.1657 15.1444C25.394 15.3751 24.9555 16.1877 25.1862 16.9594C25.4169 17.7311 26.2295 18.1696 27.0012 17.9389C29.3981 17.2223 30.9584 14.8027 30.9584 12.1667C30.9584 9.53059 29.3981 7.11108 27.0012 6.39444Z" fill="#E8E0EB"/>
<path fill-rule="evenodd" clip-rule="evenodd" d="M17.8334 20.9167C14.9257 20.9167 12.1393 21.2874 10.0232 22.2271C7.86594 23.185 6.16675 24.8749 6.16675 27.4792C6.16675 28.1598 6.29106 28.9343 6.75405 29.6729C7.21699 30.4114 7.92821 30.9702 8.84689 31.3858C10.6101 32.1835 13.435 32.5833 17.8334 32.5833C22.2319 32.5833 25.0567 32.1835 26.8199 31.3858C27.7386 30.9702 28.4498 30.4114 28.9128 29.6729C29.3758 28.9343 29.5001 28.1598 29.5001 27.4792C29.5001 24.8749 27.8009 23.185 25.6436 22.2271C23.5276 21.2874 20.7411 20.9167 17.8334 20.9167ZM9.08342 27.4792C9.08342 26.4376 9.66943 25.5754 11.2069 24.8927C12.7855 24.1917 15.1032 23.8333 17.8334 23.8333C20.5637 23.8333 22.8813 24.1917 24.46 24.8927C25.9974 25.5754 26.5834 26.4376 26.5834 27.4792C26.5834 27.8053 26.5254 27.9899 26.4416 28.1237C26.3576 28.2576 26.1574 28.4843 25.6177 28.7285C24.4643 29.2503 22.185 29.6667 17.8334 29.6667C13.4819 29.6667 11.2026 29.2503 10.0491 28.7285C9.50946 28.4843 9.30921 28.2576 9.22528 28.1237C9.1414 27.9899 9.08342 27.8053 9.08342 27.4792Z" fill="#E8E0EB"/>
<path d="M28.1938 20.2684C28.5518 19.5469 29.4269 19.2523 30.1483 19.6103C32.3269 20.6915 33.8751 22.5589 33.8751 25.2917C33.8751 26.0971 33.2222 26.75 32.4168 26.75C31.6113 26.75 30.9584 26.0971 30.9584 25.2917C30.9584 23.9001 30.2657 22.9246 28.8518 22.223C28.1304 21.865 27.8357 20.9899 28.1938 20.2684Z" fill="#E8E0EB"/>
<path d="M6.81501 22.223C7.53647 21.865 7.8311 20.9899 7.47308 20.2684C7.11506 19.5469 6.23996 19.2523 5.51849 19.6103C3.33989 20.6915 1.79175 22.5589 1.79175 25.2917C1.79175 26.0971 2.44467 26.75 3.25008 26.75C4.0555 26.75 4.70842 26.0971 4.70842 25.2917C4.70842 23.9001 5.40117 22.9246 6.81501 22.223Z" fill="#E8E0EB"/>
</svg>
