<svg width="27" height="27" viewBox="0 0 27 27" fill="none" xmlns="http://www.w3.org/2000/svg">
<path fill-rule="evenodd" clip-rule="evenodd" d="M7.77775 8.88905C7.77775 5.8208 10.2651 3.3335 13.3333 3.3335C16.4016 3.3335 18.8889 5.8208 18.8889 8.88905C18.8889 11.9573 16.4016 14.4446 13.3333 14.4446C10.2651 14.4446 7.77775 11.9573 7.77775 8.88905ZM13.3333 5.55572C11.4924 5.55572 9.99997 7.0481 9.99997 8.88905C9.99997 10.73 11.4924 12.2224 13.3333 12.2224C15.1743 12.2224 16.6666 10.73 16.6666 8.88905C16.6666 7.0481 15.1743 5.55572 13.3333 5.55572Z" fill="#241E2A"/>
<path d="M6.98491 6.62027C7.57285 6.44449 7.90697 5.82538 7.73119 5.23744C7.55541 4.64951 6.9363 4.31539 6.34837 4.49117C4.5221 5.03717 3.33331 6.88061 3.33331 8.88905C3.33331 10.8975 4.5221 12.7409 6.34837 13.2869C6.9363 13.4627 7.55541 13.1286 7.73119 12.5407C7.90697 11.9527 7.57285 11.3336 6.98491 11.1578C6.25529 10.9397 5.55553 10.0881 5.55553 8.88905C5.55553 7.69004 6.25529 6.83841 6.98491 6.62027Z" fill="#241E2A"/>
<path d="M20.3182 4.49117C19.7303 4.31539 19.1112 4.64951 18.9354 5.23744C18.7596 5.82538 19.0938 6.44449 19.6817 6.62027C20.4113 6.83841 21.1111 7.69004 21.1111 8.88905C21.1111 10.0881 20.4113 10.9397 19.6817 11.1578C19.0938 11.3336 18.7596 11.9527 18.9354 12.5407C19.1112 13.1286 19.7303 13.4627 20.3182 13.2869C22.1445 12.7409 23.3333 10.8975 23.3333 8.88905C23.3333 6.88061 22.1445 5.03717 20.3182 4.49117Z" fill="#241E2A"/>
<path fill-rule="evenodd" clip-rule="evenodd" d="M13.3333 15.5557C11.1179 15.5557 8.9949 15.8382 7.38266 16.5541C5.73904 17.284 4.44442 18.5715 4.44442 20.5557C4.44442 21.0743 4.53913 21.6644 4.89189 22.2271C5.2446 22.7898 5.78648 23.2156 6.48643 23.5322C7.82984 24.14 9.9821 24.4446 13.3333 24.4446C16.6845 24.4446 18.8368 24.14 20.1802 23.5322C20.8801 23.2156 21.422 22.7898 21.7747 22.2271C22.1275 21.6644 22.2222 21.0743 22.2222 20.5557C22.2222 18.5715 20.9276 17.284 19.284 16.5541C17.6717 15.8382 15.5487 15.5557 13.3333 15.5557ZM6.66664 20.5557C6.66664 19.7622 7.11313 19.1053 8.28452 18.5851C9.48727 18.051 11.2531 17.7779 13.3333 17.7779C15.4135 17.7779 17.1793 18.051 18.3821 18.5851C19.5535 19.1053 20 19.7622 20 20.5557C20 20.8042 19.9558 20.9448 19.8919 21.0468C19.8279 21.1488 19.6754 21.3216 19.2642 21.5076C18.3854 21.9052 16.6488 22.2224 13.3333 22.2224C10.0179 22.2224 8.28122 21.9052 7.40241 21.5076C6.99124 21.3216 6.83868 21.1488 6.77473 21.0468C6.71082 20.9448 6.66664 20.8042 6.66664 20.5557Z" fill="#241E2A"/>
<path d="M21.2269 15.0618C21.4997 14.5121 22.1664 14.2876 22.7161 14.5604C24.376 15.3841 25.5555 16.807 25.5555 18.8891C25.5555 19.5027 25.0581 20.0002 24.4444 20.0002C23.8308 20.0002 23.3333 19.5027 23.3333 18.8891C23.3333 17.8288 22.8055 17.0856 21.7283 16.551C21.1786 16.2782 20.9541 15.6115 21.2269 15.0618Z" fill="#241E2A"/>
<path d="M4.93833 16.551C5.48802 16.2782 5.7125 15.6115 5.43972 15.0618C5.16694 14.5121 4.50019 14.2876 3.95051 14.5604C2.29062 15.3841 1.11108 16.807 1.11108 18.8891C1.11108 19.5027 1.60855 20.0002 2.2222 20.0002C2.83584 20.0002 3.33331 19.5027 3.33331 18.8891C3.33331 17.8288 3.86112 17.0856 4.93833 16.551Z" fill="#241E2A"/>
</svg>
