<svg width="40" height="40" viewBox="0 0 40 40" fill="none" xmlns="http://www.w3.org/2000/svg">
<rect opacity="0.5" width="40" height="40" rx="12" fill="#D8BAFF"/>
<path d="M20 17C20.5523 17 21 17.4477 21 18V23C21 23.5523 20.5523 24 20 24C19.4477 24 19 23.5523 19 23V18C19 17.4477 19.4477 17 20 17Z" fill="#FDC3C4"/>
<path d="M20 14C20.5523 14 21 14.4477 21 15C21 15.5523 20.5523 16 20 16C19.4477 16 19 15.5523 19 15C19 14.4477 19.4477 14 20 14Z" fill="#FDC3C4"/>
<path fill-rule="evenodd" clip-rule="evenodd" d="M10 19C10 13.4772 14.4772 9 20 9C25.5228 9 30 13.4772 30 19C30 24.5228 25.5228 29 20 29C14.4772 29 10 24.5228 10 19ZM20 11C15.5817 11 12 14.5817 12 19C12 23.4183 15.5817 27 20 27C24.4183 27 28 23.4183 28 19C28 14.5817 24.4183 11 20 11Z" fill="#FDC3C4"/>
</svg>
