<svg width="41" height="40" viewBox="0 0 41 40" fill="none" xmlns="http://www.w3.org/2000/svg">
<rect opacity="0.5" x="0.5" width="40" height="40" rx="12" fill="#D8BAFF"/>
<g clip-path="url(#clip0_160_4002)">
<path fill-rule="evenodd" clip-rule="evenodd" d="M20.5 7C23.8145 7 26.8145 8.34375 28.9844 10.5156C31.1562 12.6875 32.5 15.6875 32.5 19C32.5 22.3125 31.1562 25.3145 28.9844 27.4844C26.8125 29.6562 23.8125 31 20.5 31C17.1855 31 14.1855 29.6562 12.0156 27.4844C9.84375 25.3145 8.5 22.3145 8.5 19C8.5 15.6855 9.84375 12.6855 12.0156 10.5156C14.1855 8.34375 17.1855 7 20.5 7ZM17.8945 17.9746C18.2852 18.6777 18.7344 19.3535 19.3184 19.9688C19.9023 20.5879 20.6309 21.1523 21.5742 21.6309C21.6426 21.666 21.7109 21.666 21.7695 21.6406C21.8594 21.6055 21.9492 21.5332 22.041 21.4434C22.1094 21.375 22.1973 21.2617 22.2891 21.1406C22.6504 20.6641 23.0996 20.0723 23.7324 20.3672C23.7461 20.373 23.7578 20.3809 23.7715 20.3887L25.8828 21.6035C25.8887 21.6074 25.8965 21.6133 25.9043 21.6172C26.1836 21.8086 26.2988 22.1035 26.3008 22.4375C26.3008 22.7793 26.1758 23.1621 25.9922 23.4863C25.748 23.9141 25.3906 24.1953 24.9766 24.3848C24.584 24.5645 24.1445 24.6641 23.7246 24.7246C23.0645 24.8223 22.4453 24.7598 21.8105 24.5645C21.1914 24.373 20.5664 24.0566 19.8867 23.6348L19.8379 23.6035C19.5254 23.4082 19.1875 23.1992 18.8555 22.9531C17.6426 22.0391 16.4062 20.7168 15.6035 19.2617C14.9277 18.0391 14.5605 16.7207 14.7598 15.4648C14.8711 14.7754 15.168 14.1484 15.6816 13.7363C16.1309 13.375 16.7363 13.1758 17.5195 13.2461C17.6094 13.252 17.6895 13.3047 17.7324 13.3828L19.0879 15.6719C19.2852 15.9297 19.3105 16.1836 19.2031 16.4375C19.1133 16.6465 18.9316 16.8379 18.6836 17.0195C18.6113 17.082 18.5234 17.1445 18.4316 17.2109C18.1289 17.4297 17.7832 17.6836 17.9023 17.9844L17.8945 17.9746Z" fill="#D8BAFF"/>
</g>
<defs>
<clipPath id="clip0_160_4002">
<rect width="24" height="24" fill="white" transform="translate(8.5 7)"/>
</clipPath>
</defs>
</svg>
