<svg width="24" height="24" viewBox="0 0 24 24" fill="none" xmlns="http://www.w3.org/2000/svg">
<path d="M24 12C24 15.1826 22.7357 18.2348 20.4853 20.4853C18.2348 22.7357 15.1826 24 12 24C8.8174 24 5.76513 22.7357 3.51469 20.4853C1.26426 18.2348 0 15.1826 0 12C0 8.8174 1.26426 5.76516 3.51469 3.51472C5.76513 1.26428 8.8174 0 12 0C15.1826 0 18.2348 1.26428 20.4853 3.51472C22.7357 5.76516 24 8.8174 24 12ZM10.2918 5.18414C7.77619 6.84986 5.79602 8.01417 7.89517 11.3711C9.33143 13.6742 11.4051 13.1558 13.5807 13.4278C13.7751 13.451 13.96 13.5251 14.1167 13.6426C14.2733 13.7601 14.3961 13.9169 14.4729 14.097C14.5496 14.2772 14.5774 14.4744 14.5536 14.6687C14.5297 14.8631 14.4551 15.0477 14.3371 15.204C11.9745 18.306 9.86686 14.2946 7.48725 14.7535C7.40605 14.769 7.32926 14.8021 7.26224 14.8507C7.19521 14.8993 7.13959 14.9622 7.09915 15.035C7.05872 15.1077 7.03445 15.1887 7.02809 15.2722C7.02173 15.3557 7.03343 15.4397 7.06232 15.5184C7.62323 17.0255 8.66004 18.0595 10.1728 18.6204C10.2937 18.6654 10.4017 18.7384 10.4875 18.8331C10.5734 18.9278 10.6345 19.0415 10.6657 19.1643L10.9207 20.2096C10.9887 20.4816 11.1587 20.6487 11.4306 20.7111C11.7819 20.7904 12.1332 20.7762 12.4844 20.6686C12.8244 20.5609 13.0397 20.3371 13.1303 19.9972L13.3428 19.1813C13.3796 19.0417 13.4488 18.9128 13.5448 18.805C13.6408 18.6972 13.7608 18.6136 13.8952 18.5609C18.2889 16.8357 17.898 11.6771 13.3088 10.7252C12.1445 10.4873 9.52693 11.2691 9.62891 9.15298C9.65724 8.56941 9.95184 8.19547 10.5127 8.03116C12.1898 7.55524 13.5779 7.87819 14.677 9C15.2606 9.5949 15.949 9.61757 16.7422 9.06799C16.9575 8.92068 17.0227 8.71955 16.9377 8.46459C16.4108 6.88385 15.3371 5.8357 13.7167 5.32012C13.5014 5.25213 13.3768 5.10765 13.3428 4.88669L13.1643 3.69689C13.146 3.56771 13.0818 3.44943 12.9835 3.36363C12.8852 3.27782 12.7594 3.2302 12.6289 3.22946L11.3456 3.23796C11.1913 3.23784 11.0427 3.29768 10.9305 3.40517C10.8183 3.51266 10.7509 3.65963 10.7422 3.81587L10.6997 4.49575C10.677 4.79037 10.5411 5.01983 10.2918 5.18414Z" fill="#D8BAFF"/>
</svg>
