<svg width="162" height="121" viewBox="0 0 162 121" fill="none" xmlns="http://www.w3.org/2000/svg">
<path opacity="0.4" d="M152.737 66.0028C153.218 66.4684 153.982 66.4684 154.463 66.0028C154.805 65.6722 155.306 65.5658 155.753 65.7287C156.382 65.9583 157.08 65.6476 157.33 65.0264C157.508 64.5853 157.922 64.2845 158.396 64.2517C159.065 64.2055 159.576 63.6378 159.552 62.9684C159.535 62.4932 159.791 62.05 160.211 61.8271C160.802 61.5131 161.039 60.7865 160.744 60.1847C160.536 59.7575 160.589 59.2485 160.882 58.874C161.295 58.3465 161.215 57.5868 160.702 57.1566C160.337 56.8512 160.179 56.3645 160.294 55.9032C160.457 55.2534 160.075 54.5918 159.431 54.4077C158.974 54.277 158.631 53.8967 158.549 53.4283C158.433 52.7686 157.815 52.3195 157.152 52.4133C156.681 52.4798 156.214 52.2717 155.948 51.8772C155.574 51.3216 154.827 51.1628 154.259 51.5182C153.856 51.7705 153.344 51.7705 152.941 51.5182C152.373 51.1628 151.626 51.3216 151.252 51.8772C150.986 52.2717 150.519 52.4798 150.048 52.4133C149.385 52.3195 148.767 52.7686 148.651 53.4283C148.569 53.8967 148.226 54.277 147.769 54.4077C147.125 54.5918 146.743 55.2534 146.906 55.9032C147.021 56.3645 146.863 56.8512 146.498 57.1566C145.985 57.5868 145.905 58.3465 146.318 58.874C146.611 59.2485 146.664 59.7575 146.456 60.1847C146.161 60.7865 146.398 61.5131 146.989 61.8271C147.409 62.05 147.665 62.4932 147.648 62.9684C147.624 63.6378 148.135 64.2055 148.804 64.2517C149.278 64.2845 149.692 64.5853 149.87 65.0264C150.12 65.6476 150.818 65.9583 151.447 65.7287C151.894 65.5658 152.395 65.6722 152.737 66.0028Z" fill="#D8BAFF"/>
<path opacity="0.4" d="M10.9937 37.1937C11.4752 37.6593 12.2392 37.6593 12.7206 37.1937C13.0624 36.8631 13.563 36.7567 14.0097 36.9197C14.6389 37.1493 15.3369 36.8385 15.5873 36.2173C15.7651 35.7762 16.1791 35.4754 16.6535 35.4426C17.3217 35.3964 17.8329 34.8287 17.809 34.1593C17.792 33.6841 18.0479 33.2409 18.4679 33.018C19.0596 32.704 19.2957 31.9774 19.0016 31.3756C18.7928 30.9484 18.8463 30.4394 19.1393 30.0649C19.5521 29.5375 19.4723 28.7777 18.9588 28.3475C18.5943 28.0422 18.4362 27.5554 18.5516 27.0941C18.7141 26.4444 18.3321 25.7827 17.6881 25.5986C17.2309 25.4679 16.8885 25.0876 16.8063 24.6192C16.6905 23.9595 16.0724 23.5105 15.4092 23.6042C14.9384 23.6708 14.4708 23.4626 14.2052 23.0681C13.8311 22.5126 13.0839 22.3537 12.5161 22.7091C12.113 22.9614 11.6013 22.9614 11.1982 22.7091C10.6305 22.3537 9.88319 22.5126 9.50908 23.0681C9.24348 23.4626 8.77596 23.6708 8.3051 23.6042C7.6419 23.5105 7.02383 23.9595 6.90805 24.6192C6.82584 25.0876 6.4834 25.4679 6.02618 25.5986C5.38219 25.7827 5.0002 26.4444 5.16276 27.0941C5.27817 27.5554 5.12002 28.0422 4.7555 28.3475C4.24206 28.7777 4.1622 29.5375 4.57499 30.0649C4.86806 30.4394 4.92155 30.9484 4.71275 31.3756C4.41865 31.9774 4.65473 32.704 5.24638 33.018C5.66643 33.2409 5.92231 33.6841 5.90534 34.1593C5.88143 34.8287 6.39263 35.3964 7.06083 35.4426C7.53524 35.4754 7.94926 35.7762 8.12705 36.2173C8.37747 36.8385 9.07539 37.1493 9.70461 36.9197C10.1513 36.7567 10.6519 36.8631 10.9937 37.1937Z" fill="#D8BAFF"/>
<path d="M74.8327 11.7269C78.2716 8.40078 83.7285 8.40077 87.1674 11.7269C89.6089 14.0884 93.1845 14.8484 96.3754 13.6842C100.87 12.0443 105.855 14.2638 107.644 18.7011C108.914 21.8515 111.871 24.0001 115.26 24.2344C120.032 24.5643 123.684 28.6196 123.513 33.4008C123.392 36.7954 125.22 39.9611 128.22 41.5534C132.446 43.7961 134.132 48.986 132.032 53.2844C130.54 56.3361 130.922 59.9715 133.016 62.6465C135.964 66.4142 135.394 71.8413 131.726 74.9136C129.122 77.0949 127.993 80.5715 128.817 83.8666C129.978 88.5078 127.25 93.2337 122.65 94.5488C119.384 95.4824 116.938 98.199 116.351 101.545C115.524 106.257 111.109 109.464 106.372 108.795C103.009 108.319 99.6692 109.806 97.772 112.624C95.0999 116.592 89.7622 117.727 85.7069 115.188C82.8278 113.386 79.1723 113.386 76.2932 115.188C72.2379 117.727 66.9002 116.592 64.228 112.624C62.3309 109.806 58.9914 108.319 55.6282 108.795C50.891 109.464 46.4762 106.257 45.6492 101.545C45.062 98.199 42.616 95.4824 39.3502 94.5488C34.7502 93.2337 32.0217 88.5078 33.1828 83.8666C34.0072 80.5715 32.8776 77.0949 30.2738 74.9136C26.6064 71.8413 26.036 66.4142 28.9845 62.6465C31.0778 59.9715 31.4599 56.3361 29.9685 53.2843C27.8678 48.986 29.5541 43.7961 33.7801 41.5534C36.7805 39.9611 38.6082 36.7954 38.487 33.4008C38.3162 28.6196 41.9676 24.5643 46.7405 24.2344C50.1291 24.0001 53.0865 21.8515 54.3564 18.7011C56.1451 14.2638 61.1302 12.0443 65.6247 13.6842C68.8156 14.8484 72.3912 14.0884 74.8327 11.7269Z" fill="#D8BAFF"/>
<path d="M56.5099 62.6823L71.4285 80.4196C71.784 80.8422 72.4148 80.8967 72.8375 80.5412L109.763 49.4838" stroke="white" stroke-width="4"/>
<path opacity="0.4" d="M94.9731 7.64933C95.2138 7.88216 95.5958 7.88216 95.8365 7.64933C96.0074 7.48403 96.2577 7.43082 96.4811 7.51232C96.7957 7.62712 97.1446 7.47175 97.2698 7.16114C97.3587 6.94061 97.5658 6.79021 97.803 6.77381C98.1371 6.75071 98.3927 6.46684 98.3807 6.13216C98.3722 5.89454 98.5002 5.67294 98.7102 5.56148C99.006 5.40449 99.124 5.0412 98.977 4.74031C98.8726 4.52669 98.8993 4.27221 99.0459 4.08496C99.2523 3.82122 99.2123 3.44133 98.9556 3.22626C98.7734 3.07357 98.6943 2.83021 98.752 2.59955C98.8333 2.27467 98.6423 1.94386 98.3203 1.8518C98.0917 1.78645 97.9205 1.59629 97.8794 1.3621C97.8215 1.03224 97.5124 0.807716 97.1808 0.854589C96.9454 0.887866 96.7116 0.78379 96.5788 0.586565C96.3918 0.308773 96.0181 0.229353 95.7343 0.407048C95.5327 0.533206 95.2769 0.533206 95.0753 0.407048C94.7914 0.229353 94.4178 0.308773 94.2308 0.586565C94.098 0.78379 93.8642 0.887866 93.6288 0.854589C93.2972 0.807716 92.9881 1.03224 92.9302 1.3621C92.8891 1.59629 92.7179 1.78645 92.4893 1.8518C92.1673 1.94386 91.9763 2.27467 92.0576 2.59955C92.1153 2.83021 92.0362 3.07357 91.854 3.22626C91.5972 3.44133 91.5573 3.82122 91.7637 4.08496C91.9102 4.27221 91.937 4.52669 91.8326 4.74031C91.6855 5.0412 91.8036 5.40449 92.0994 5.56148C92.3094 5.67294 92.4374 5.89454 92.4289 6.13216C92.4169 6.46684 92.6725 6.75071 93.0066 6.77381C93.2438 6.79021 93.4508 6.94061 93.5397 7.16114C93.6649 7.47175 94.0139 7.62712 94.3285 7.51232C94.5519 7.43082 94.8022 7.48403 94.9731 7.64933Z" fill="#D8BAFF"/>
<path opacity="0.4" d="M25.5835 114.582C25.9618 114.948 26.5621 114.948 26.9403 114.582C27.2089 114.322 27.6022 114.239 27.9532 114.367C28.4476 114.547 28.996 114.303 29.1927 113.815C29.3324 113.468 29.6577 113.232 30.0305 113.206C30.5555 113.17 30.9571 112.724 30.9384 112.198C30.925 111.825 31.1261 111.476 31.4561 111.301C31.921 111.055 32.1065 110.484 31.8754 110.011C31.7113 109.675 31.7534 109.275 31.9836 108.981C32.308 108.567 32.2452 107.97 31.8418 107.632C31.5554 107.392 31.4311 107.009 31.5218 106.647C31.6495 106.136 31.3494 105.616 30.8434 105.472C30.4842 105.369 30.2151 105.07 30.1505 104.702C30.0595 104.184 29.5739 103.831 29.0528 103.905C28.6829 103.957 28.3155 103.793 28.1068 103.483C27.8129 103.047 27.2258 102.922 26.7797 103.201C26.463 103.4 26.0609 103.4 25.7442 103.201C25.2981 102.922 24.7109 103.047 24.417 103.483C24.2083 103.793 23.841 103.957 23.471 103.905C22.9499 103.831 22.4643 104.184 22.3733 104.702C22.3087 105.07 22.0397 105.369 21.6804 105.472C21.1744 105.616 20.8743 106.136 21.002 106.647C21.0927 107.009 20.9685 107.392 20.682 107.632C20.2786 107.97 20.2159 108.567 20.5402 108.981C20.7705 109.275 20.8125 109.675 20.6485 110.011C20.4174 110.484 20.6029 111.055 21.0677 111.301C21.3978 111.476 21.5988 111.825 21.5855 112.198C21.5667 112.724 21.9684 113.17 22.4934 113.206C22.8661 113.232 23.1914 113.468 23.3311 113.815C23.5279 114.303 24.0762 114.547 24.5706 114.367C24.9216 114.239 25.315 114.322 25.5835 114.582Z" fill="#D8BAFF"/>
<path opacity="0.4" d="M3.93496 74.4872C4.17568 74.7201 4.55767 74.7201 4.79839 74.4872C4.9693 74.3219 5.21959 74.2687 5.44295 74.3502C5.75756 74.465 6.10652 74.3096 6.23173 73.999C6.32063 73.7785 6.52764 73.6281 6.76484 73.6117C7.09894 73.5886 7.35454 73.3047 7.34259 72.97C7.3341 72.7324 7.46204 72.5108 7.67207 72.3994C7.96789 72.2424 8.08593 71.8791 7.93888 71.5782C7.83448 71.3646 7.86123 71.1101 8.00776 70.9229C8.21416 70.6591 8.17423 70.2792 7.91751 70.0642C7.73525 69.9115 7.65618 69.6681 7.71388 69.4374C7.79516 69.1126 7.60416 68.7817 7.28217 68.6897C7.05356 68.6243 6.88234 68.4342 6.84124 68.2C6.78334 67.8701 6.47431 67.6456 6.14271 67.6925C5.90728 67.7258 5.67352 67.6217 5.54072 67.4245C5.35367 67.1467 4.98003 67.0672 4.69616 67.2449C4.49462 67.3711 4.23874 67.3711 4.0372 67.2449C3.75333 67.0672 3.37969 67.1467 3.19264 67.4245C3.05983 67.6217 2.82607 67.7258 2.59065 67.6925C2.25904 67.6456 1.95001 67.8701 1.89212 68.2C1.85102 68.4342 1.6798 68.6243 1.45119 68.6897C1.12919 68.7817 0.938195 69.1126 1.01947 69.4374C1.07718 69.6681 0.998106 69.9115 0.815843 70.0642C0.559125 70.2792 0.519196 70.6591 0.72559 70.9229C0.872124 71.1101 0.898871 71.3646 0.79447 71.5782C0.647421 71.8791 0.765462 72.2424 1.06128 72.3994C1.27131 72.5108 1.39925 72.7324 1.39076 72.97C1.37881 73.3047 1.63441 73.5886 1.96851 73.6117C2.20571 73.6281 2.41273 73.7785 2.50162 73.999C2.62683 74.3096 2.97579 74.465 3.2904 74.3502C3.51377 74.2687 3.76406 74.3219 3.93496 74.4872Z" fill="#D8BAFF"/>
<path opacity="0.4" d="M130.697 109.059C130.938 109.291 131.32 109.291 131.56 109.059C131.731 108.893 131.982 108.84 132.205 108.922C132.519 109.036 132.868 108.881 132.994 108.57C133.083 108.35 133.29 108.199 133.527 108.183C133.861 108.16 134.116 107.876 134.105 107.541C134.096 107.304 134.224 107.082 134.434 106.971C134.73 106.814 134.848 106.45 134.701 106.149C134.596 105.936 134.623 105.681 134.77 105.494C134.976 105.23 134.936 104.851 134.679 104.635C134.497 104.483 134.418 104.239 134.476 104.009C134.557 103.684 134.366 103.353 134.044 103.261C133.815 103.196 133.644 103.005 133.603 102.771C133.545 102.441 133.236 102.217 132.905 102.264C132.669 102.297 132.435 102.193 132.303 101.996C132.116 101.718 131.742 101.639 131.458 101.816C131.257 101.942 131.001 101.942 130.799 101.816C130.515 101.639 130.142 101.718 129.955 101.996C129.822 102.193 129.588 102.297 129.353 102.264C129.021 102.217 128.712 102.441 128.654 102.771C128.613 103.005 128.442 103.196 128.213 103.261C127.891 103.353 127.7 103.684 127.781 104.009C127.839 104.239 127.76 104.483 127.578 104.635C127.321 104.851 127.281 105.23 127.488 105.494C127.634 105.681 127.661 105.936 127.556 106.149C127.409 106.45 127.527 106.814 127.823 106.971C128.033 107.082 128.161 107.304 128.153 107.541C128.141 107.876 128.396 108.16 128.73 108.183C128.968 108.199 129.175 108.35 129.264 108.57C129.389 108.881 129.738 109.036 130.052 108.922C130.276 108.84 130.526 108.893 130.697 109.059Z" fill="#D8BAFF"/>
</svg>
