<svg width="50" height="51" viewBox="0 0 50 51" fill="none" xmlns="http://www.w3.org/2000/svg">
<rect opacity="0.5" y="0.5" width="50" height="50" rx="12" fill="#D8BAFF"/>
<path d="M26.4708 17.9062C26.4708 20.3123 25.5153 22.6198 23.8146 24.3211C22.1139 26.0225 19.8072 26.9783 17.402 26.9783C14.9968 26.9783 12.6902 26.0225 10.9895 24.3211C9.28874 22.6198 8.33325 20.3123 8.33325 17.9062C8.33325 15.5001 9.28874 13.1925 10.9895 11.4912C12.6902 9.7898 14.9968 8.83398 17.402 8.83398C19.8072 8.83398 22.1139 9.7898 23.8146 11.4912C25.5153 13.1925 26.4708 15.5001 26.4708 17.9062ZM16.384 22.9983L16.6963 23.8418C16.7304 23.9367 16.7895 24.0208 16.8675 24.0856C16.9454 24.1504 17.0393 24.1935 17.1397 24.2104C17.2979 24.2396 17.452 24.2313 17.6019 24.1854C17.8226 24.123 17.987 23.9876 18.0953 23.7793L18.5075 22.9608C18.6033 22.7692 18.749 22.6276 18.9447 22.536C23.0419 20.6366 20.5124 16.5941 16.6338 16.9877C16.4173 17.0085 16.2237 16.9502 16.053 16.8128C15.4659 16.3254 15.5595 15.5756 16.2029 15.1383C17.5332 14.2385 18.876 15.3757 20.0003 16.0068C20.0783 16.0511 20.1657 16.0761 20.2554 16.0798C20.345 16.0834 20.4342 16.0655 20.5155 16.0276C20.5968 15.9896 20.6679 15.9328 20.7228 15.8618C20.7777 15.7908 20.8147 15.7077 20.8309 15.6194C21.0308 14.5072 19.588 13.5263 18.6762 13.0889C18.5795 13.0414 18.4969 12.9697 18.4366 12.8809C18.3764 12.7921 18.3405 12.6894 18.3326 12.5828C18.2743 11.833 17.8684 11.5123 17.1147 11.6206C16.9232 11.6498 16.792 11.756 16.7213 11.9393C16.1342 13.5075 14.8226 13.5325 14.1793 14.6947C13.1675 16.5378 14.7851 18.8934 16.7837 18.8434C17.5082 18.8267 18.0995 18.8663 18.5575 18.9621C18.774 19.0037 18.9239 19.1266 19.0072 19.3307C19.3153 20.0971 19.0821 20.5928 18.3077 20.8178C16.1904 21.4363 16.0655 19.8118 14.6914 19.7181C14.4624 19.7056 14.2583 19.7764 14.0793 19.9305C13.9981 20.0004 13.9399 20.0936 13.9121 20.1983C13.8843 20.3029 13.8881 20.4142 13.9232 20.5178C14.2729 21.5384 14.9537 22.2256 15.9655 22.5797C16.1737 22.6547 16.3132 22.7942 16.384 22.9983Z" fill="#FDC3C4"/>
<path d="M32.8289 16.2438C32.3917 16.1605 32.3209 16.2854 32.6165 16.6186C32.9038 16.9394 33.1245 17.3059 33.2785 17.7183C33.3119 17.8118 33.3179 17.913 33.2958 18.0103C33.2737 18.1077 33.2244 18.197 33.1536 18.2681C32.5249 18.8888 31.8941 18.8846 31.2612 18.2556C30.3618 17.3601 29.502 16.4458 28.6817 15.5127C28.5329 15.3452 28.4534 15.1271 28.4592 14.9022C28.465 14.6773 28.5556 14.4624 28.7129 14.3006L31.6109 11.3578C31.773 11.1946 31.9924 11.1013 32.2223 11.0978C32.4522 11.0943 32.6744 11.1809 32.8414 11.339L33.0474 11.5327C33.1355 11.6167 33.2055 11.7177 33.2531 11.8297C33.3008 11.9417 33.3251 12.0622 33.3245 12.1839C33.3239 12.3056 33.2985 12.4259 33.2498 12.5374C33.201 12.6489 33.1301 12.7492 33.0412 12.8323L32.3542 13.4696C32.0669 13.7362 32.1148 13.9091 32.4978 13.9882C36.5242 14.8088 38.7456 17.2893 39.162 21.4296C39.2328 22.1461 38.9101 22.5293 38.1939 22.5793L37.9753 22.5918C37.7913 22.6059 37.609 22.548 37.4669 22.4302C37.3247 22.3125 37.2339 22.1442 37.2134 21.9607C36.8553 18.6201 35.3938 16.7144 32.8289 16.2438Z" fill="#D8BAFF"/>
<path d="M41.6666 33.0956C41.6666 35.5017 40.7111 37.8092 39.0104 39.5106C37.3097 41.212 35.003 42.1678 32.5978 42.1678C30.1926 42.1678 27.886 41.212 26.1853 39.5106C24.4845 37.8092 23.5291 35.5017 23.5291 33.0956C23.5291 30.6895 24.4845 28.382 26.1853 26.6806C27.886 24.9793 30.1926 24.0234 32.5978 24.0234C35.003 24.0234 37.3097 24.9793 39.0104 26.6806C40.7111 28.382 41.6666 30.6895 41.6666 33.0956ZM31.5798 38.1878L31.8921 39.0313C31.9262 39.1262 31.9853 39.2103 32.0633 39.2751C32.1412 39.3398 32.2351 39.3829 32.3355 39.3999C32.4937 39.4291 32.6478 39.4207 32.7977 39.3749C33.0184 39.3124 33.1828 39.177 33.2911 38.9688L33.7033 38.1503C33.7991 37.9587 33.9448 37.8171 34.1405 37.7254C38.2377 35.826 35.7082 31.7835 31.8296 32.1772C31.6131 32.198 31.4195 32.1397 31.2488 32.0022C30.6617 31.5149 30.7554 30.7651 31.3987 30.3277C32.729 29.428 34.0718 30.5652 35.1961 31.1962C35.2741 31.2406 35.3615 31.2656 35.4512 31.2692C35.5408 31.2728 35.63 31.2549 35.7113 31.217C35.7927 31.1791 35.8637 31.1222 35.9186 31.0512C35.9735 30.9802 36.0105 30.8971 36.0267 30.8088C36.2266 29.6967 34.7838 28.7157 33.872 28.2784C33.7753 28.2308 33.6927 28.1591 33.6324 28.0703C33.5722 27.9816 33.5363 27.8788 33.5284 27.7723C33.4701 27.0225 33.0642 26.7018 32.3105 26.8101C32.119 26.8392 31.9878 26.9454 31.9171 27.1287C31.33 28.697 30.0184 28.722 29.3751 29.8841C28.3633 31.7273 29.9809 34.0828 31.9795 34.0328C32.704 34.0162 33.2953 34.0557 33.7533 34.1515C33.9698 34.1932 34.1197 34.3161 34.203 34.5202C34.5111 35.2866 34.2779 35.7823 33.5035 36.0072C31.3862 36.6258 31.2613 35.0013 29.8872 34.9075C29.6582 34.8951 29.4541 34.9659 29.2751 35.12C29.1939 35.1898 29.1357 35.2831 29.1079 35.3877C29.0801 35.4923 29.0839 35.6036 29.119 35.7073C29.4687 36.7278 30.1495 37.4151 31.1613 37.7691C31.3695 37.8441 31.509 37.9837 31.5798 38.1878Z" fill="#D9D9D9"/>
<path d="M41.6666 33.0956C41.6666 35.5017 40.7111 37.8092 39.0104 39.5106C37.3097 41.212 35.003 42.1678 32.5978 42.1678C30.1926 42.1678 27.886 41.212 26.1853 39.5106C24.4845 37.8092 23.5291 35.5017 23.5291 33.0956C23.5291 30.6895 24.4845 28.382 26.1853 26.6806C27.886 24.9793 30.1926 24.0234 32.5978 24.0234C35.003 24.0234 37.3097 24.9793 39.0104 26.6806C40.7111 28.382 41.6666 30.6895 41.6666 33.0956ZM31.5798 38.1878L31.8921 39.0313C31.9262 39.1262 31.9853 39.2103 32.0633 39.2751C32.1412 39.3398 32.2351 39.3829 32.3355 39.3999C32.4937 39.4291 32.6478 39.4207 32.7977 39.3749C33.0184 39.3124 33.1828 39.177 33.2911 38.9688L33.7033 38.1503C33.7991 37.9587 33.9448 37.8171 34.1405 37.7254C38.2377 35.826 35.7082 31.7835 31.8296 32.1772C31.6131 32.198 31.4195 32.1397 31.2488 32.0022C30.6617 31.5149 30.7554 30.7651 31.3987 30.3277C32.729 29.428 34.0718 30.5652 35.1961 31.1962C35.2741 31.2406 35.3615 31.2656 35.4512 31.2692C35.5408 31.2728 35.63 31.2549 35.7113 31.217C35.7927 31.1791 35.8637 31.1222 35.9186 31.0512C35.9735 30.9802 36.0105 30.8971 36.0267 30.8088C36.2266 29.6967 34.7838 28.7157 33.872 28.2784C33.7753 28.2308 33.6927 28.1591 33.6324 28.0703C33.5722 27.9816 33.5363 27.8788 33.5284 27.7723C33.4701 27.0225 33.0642 26.7018 32.3105 26.8101C32.119 26.8392 31.9878 26.9454 31.9171 27.1287C31.33 28.697 30.0184 28.722 29.3751 29.8841C28.3633 31.7273 29.9809 34.0828 31.9795 34.0328C32.704 34.0162 33.2953 34.0557 33.7533 34.1515C33.9698 34.1932 34.1197 34.3161 34.203 34.5202C34.5111 35.2866 34.2779 35.7823 33.5035 36.0072C31.3862 36.6258 31.2613 35.0013 29.8872 34.9075C29.6582 34.8951 29.4541 34.9659 29.2751 35.12C29.1939 35.1898 29.1357 35.2831 29.1079 35.3877C29.0801 35.4923 29.0839 35.6036 29.119 35.7073C29.4687 36.7278 30.1495 37.4151 31.1613 37.7691C31.3695 37.8441 31.509 37.9837 31.5798 38.1878Z" fill="#ACF2B0"/>
<path d="M17.608 34.5758L17.0834 34.0135C16.6628 33.5636 16.64 33.0929 17.0147 32.6014L17.1708 32.4015C17.2275 32.3271 17.2992 32.2655 17.3814 32.2208C17.4635 32.1762 17.5542 32.1494 17.6474 32.1423C17.7407 32.1352 17.8343 32.148 17.9223 32.1797C18.0102 32.2115 18.0904 32.2615 18.1577 32.3265L21.2743 35.3568C21.364 35.4452 21.4354 35.5505 21.4843 35.6667C21.5332 35.7828 21.5586 35.9074 21.5592 36.0334C21.5598 36.1594 21.5355 36.2843 21.4877 36.4009C21.4398 36.5174 21.3694 36.6234 21.2805 36.7126L18.37 39.6117C18.217 39.7667 18.0114 39.8585 17.7939 39.8689C17.5764 39.8793 17.3629 39.8076 17.1958 39.668L17.0022 39.5055C16.9147 39.433 16.8429 39.3434 16.7912 39.2422C16.7395 39.141 16.7089 39.0303 16.7013 38.9169C16.6937 38.8035 16.7092 38.6897 16.747 38.5825C16.7848 38.4753 16.844 38.377 16.921 38.2934L17.6642 37.4937C17.8891 37.2479 17.837 37.0896 17.5081 37.0188C13.5067 36.1732 11.277 33.7052 10.819 29.6149C10.7935 29.3929 10.841 29.1682 10.9545 28.9736C11.0681 28.7791 11.2417 28.6249 11.4498 28.5339L11.6372 28.4527C11.7664 28.3972 11.9072 28.3737 12.0475 28.3843C12.1878 28.3948 12.3234 28.4391 12.443 28.5133C12.5625 28.5875 12.6624 28.6895 12.7342 28.8105C12.8059 28.9316 12.8474 29.0682 12.8551 29.2087C13.0091 32.212 14.5164 34.126 17.377 34.9507C17.4257 34.9639 17.4778 34.961 17.5251 34.9425C17.5724 34.9239 17.6123 34.8907 17.6387 34.848C17.665 34.8053 17.6763 34.7555 17.6707 34.7062C17.6652 34.657 17.6432 34.6112 17.608 34.5758Z" fill="#D8BAFF"/>
</svg>
