<svg width="27" height="27" viewBox="0 0 27 27" fill="none" xmlns="http://www.w3.org/2000/svg">
<path d="M14.51 7.25774C14.51 9.18261 13.7457 11.0286 12.3851 12.3897C11.0245 13.7508 9.17916 14.5155 7.25501 14.5155C5.33087 14.5155 3.48555 13.7508 2.12497 12.3897C0.764394 11.0286 0 9.18261 0 7.25774C0 5.33287 0.764394 3.48683 2.12497 2.12574C3.48555 0.764651 5.33087 0 7.25501 0C9.17916 0 11.0245 0.764651 12.3851 2.12574C13.7457 3.48683 14.51 5.33287 14.51 7.25774ZM6.44057 11.3315L6.6904 12.0063C6.71775 12.0822 6.76502 12.1495 6.82736 12.2013C6.8897 12.2531 6.96487 12.2876 7.04517 12.3012C7.17175 12.3245 7.29499 12.3178 7.41491 12.2812C7.59145 12.2312 7.72302 12.1229 7.80963 11.9563L8.13942 11.3015C8.21603 11.1482 8.33262 11.0349 8.48918 10.9616C11.7669 9.44206 9.74331 6.20807 6.64045 6.52297C6.46723 6.53963 6.31234 6.49298 6.17577 6.38302C5.70609 5.99314 5.78104 5.39331 6.29568 5.04342C7.35995 4.32365 8.43422 5.23337 9.3336 5.73821C9.396 5.7737 9.46597 5.79372 9.53768 5.79662C9.6094 5.79952 9.68077 5.78519 9.74582 5.75486C9.81088 5.72452 9.86774 5.67905 9.91163 5.62224C9.95553 5.56543 9.98517 5.49894 9.99812 5.42831C10.158 4.53859 9.00383 3.75383 8.27433 3.40394C8.19698 3.36591 8.1309 3.30855 8.08269 3.23753C8.03449 3.16651 8.00581 3.0843 7.9995 2.99906C7.95286 2.39925 7.62811 2.14267 7.02519 2.22931C6.87196 2.25264 6.76703 2.3376 6.71041 2.48422C6.24073 3.73883 5.19145 3.75883 4.6768 4.68854C3.86736 6.16308 5.16146 8.0475 6.76036 8.00751C7.33996 7.99418 7.81298 8.02584 8.1794 8.10248C8.35261 8.1358 8.47251 8.2341 8.53913 8.39739C8.78563 9.01053 8.5991 9.40707 7.97952 9.58702C6.28569 10.0819 6.18577 8.78226 5.08652 8.70729C4.90332 8.69729 4.74008 8.75394 4.59684 8.87723C4.5319 8.93312 4.48534 9.0077 4.46308 9.09141C4.44083 9.17513 4.4439 9.26416 4.47193 9.34709C4.75173 10.1635 5.29637 10.7133 6.10581 10.9966C6.27236 11.0565 6.38395 11.1682 6.44057 11.3315Z" fill="#241E2A"/>
<path d="M19.5965 5.92841C19.2467 5.86176 19.1901 5.96173 19.4266 6.22832C19.6564 6.4849 19.833 6.77813 19.9562 7.10803C19.9829 7.18281 19.9877 7.26383 19.97 7.34168C19.9523 7.41953 19.9129 7.49103 19.8563 7.5479C19.3533 8.04441 18.8486 8.04108 18.3423 7.53791C17.6228 6.82146 16.935 6.09002 16.2787 5.34358C16.1597 5.20955 16.0961 5.03505 16.1007 4.85516C16.1053 4.67528 16.1779 4.50333 16.3037 4.37388L18.6221 2.01962C18.7518 1.88907 18.9273 1.81441 19.1112 1.81161C19.2952 1.8088 19.4729 1.87808 19.6065 2.00463L19.7713 2.15958C19.8418 2.22673 19.8978 2.30759 19.9359 2.39716C19.974 2.48674 19.9934 2.58316 19.9929 2.68051C19.9925 2.77785 19.9721 2.87408 19.9332 2.96328C19.8942 3.05249 19.8375 3.13279 19.7664 3.19926L19.2167 3.7091C18.9869 3.92237 19.0252 4.06065 19.3316 4.12396C22.5527 4.78042 24.3299 6.76481 24.663 10.0771C24.7196 10.6503 24.4615 10.9568 23.8885 10.9968L23.7136 11.0068C23.5664 11.0181 23.4206 10.9718 23.3069 10.8776C23.1932 10.7834 23.1205 10.6487 23.1041 10.502C22.8176 7.82948 21.6484 6.30496 19.5965 5.92841Z" fill="#241E2A"/>
<path d="M26.6666 19.4091C26.6666 21.334 25.9023 23.18 24.5417 24.5411C23.1811 25.9022 21.3358 26.6668 19.4116 26.6668C17.4875 26.6668 15.6422 25.9022 14.2816 24.5411C12.921 23.18 12.1566 21.334 12.1566 19.4091C12.1566 17.4842 12.921 15.6382 14.2816 14.2771C15.6422 12.916 17.4875 12.1514 19.4116 12.1514C21.3358 12.1514 23.1811 12.916 24.5417 14.2771C25.9023 15.6382 26.6666 17.4842 26.6666 19.4091ZM18.5972 23.4828L18.847 24.1576C18.8744 24.2335 18.9216 24.3008 18.984 24.3527C19.0463 24.4045 19.1215 24.439 19.2018 24.4525C19.3284 24.4759 19.4516 24.4692 19.5715 24.4325C19.7481 24.3826 19.8796 24.2743 19.9662 24.1076L20.296 23.4528C20.3726 23.2996 20.4892 23.1863 20.6458 23.113C23.9235 21.5934 21.8999 18.3594 18.7971 18.6743C18.6239 18.691 18.469 18.6443 18.3324 18.5344C17.8627 18.1445 17.9377 17.5447 18.4523 17.1948C19.5166 16.475 20.5908 17.3847 21.4902 17.8896C21.5526 17.9251 21.6226 17.9451 21.6943 17.948C21.766 17.9509 21.8374 17.9366 21.9024 17.9062C21.9675 17.8759 22.0244 17.8304 22.0682 17.7736C22.1121 17.7168 22.1418 17.6503 22.1547 17.5797C22.3146 16.69 21.1604 15.9052 20.4309 15.5553C20.3536 15.5173 20.2875 15.4599 20.2393 15.3889C20.1911 15.3179 20.1624 15.2357 20.1561 15.1504C20.1095 14.5506 19.7847 14.294 19.1818 14.3807C19.0286 14.404 18.9237 14.489 18.867 14.6356C18.3973 15.8902 17.3481 15.9102 16.8334 16.8399C16.024 18.3144 17.3181 20.1989 18.917 20.1589C19.4966 20.1455 19.9696 20.1772 20.336 20.2538C20.5092 20.2872 20.6291 20.3855 20.6958 20.5488C20.9422 21.1619 20.7557 21.5584 20.1361 21.7384C18.4423 22.2332 18.3424 20.9336 17.2431 20.8587C17.0599 20.8487 16.8967 20.9053 16.7535 21.0286C16.6885 21.0845 16.642 21.1591 16.6197 21.2428C16.5974 21.3265 16.6005 21.4155 16.6285 21.4985C16.9084 22.3149 17.453 22.8647 18.2624 23.1479C18.429 23.2079 18.5406 23.3196 18.5972 23.4828Z" fill="#2E2536"/>
<path d="M7.41991 20.5938L7.00018 20.144C6.66375 19.7841 6.64543 19.4076 6.94523 19.0143L7.07014 18.8544C7.11546 18.7949 7.17286 18.7456 7.23857 18.7099C7.30429 18.6741 7.37683 18.6527 7.45141 18.6471C7.52599 18.6414 7.60093 18.6516 7.67129 18.677C7.74165 18.7024 7.80583 18.7424 7.85961 18.7944L10.3529 21.2187C10.4247 21.2894 10.4818 21.3736 10.5209 21.4665C10.56 21.5594 10.5804 21.6591 10.5808 21.7599C10.5813 21.8607 10.5619 21.9607 10.5236 22.0539C10.4853 22.1472 10.429 22.2319 10.3579 22.3033L8.02947 24.6226C7.90706 24.7466 7.74257 24.82 7.56858 24.8283C7.39459 24.8367 7.22381 24.7793 7.09012 24.6676L6.93523 24.5376C6.86524 24.4796 6.80782 24.4079 6.76643 24.327C6.72503 24.246 6.70056 24.1575 6.69449 24.0667C6.68841 23.976 6.70086 23.885 6.73108 23.7992C6.76131 23.7135 6.80865 23.6348 6.87027 23.5679L7.46486 22.9281C7.64474 22.7315 7.6031 22.6049 7.33995 22.5482C4.13882 21.8718 2.35506 19.8974 1.98865 16.6251C1.96825 16.4476 2.00626 16.2677 2.0971 16.1121C2.18793 15.9564 2.32682 15.8332 2.49331 15.7604L2.6432 15.6954C2.74663 15.651 2.85923 15.6322 2.97146 15.6406C3.0837 15.6491 3.19223 15.6845 3.28786 15.7438C3.3835 15.8032 3.46341 15.8848 3.5208 15.9816C3.57819 16.0785 3.61138 16.1878 3.61753 16.3002C3.74078 18.7028 4.94661 20.234 7.23504 20.8938C7.27405 20.9044 7.31569 20.902 7.35355 20.8872C7.3914 20.8723 7.42333 20.8458 7.4444 20.8116C7.46546 20.7774 7.47447 20.7376 7.47004 20.6982C7.46561 20.6588 7.448 20.6222 7.41991 20.5938Z" fill="#241E2A"/>
</svg>
