<svg width="36" height="36" viewBox="0 0 36 36" fill="none" xmlns="http://www.w3.org/2000/svg">
<path d="M19.711 10.0258C19.711 12.5522 18.7078 14.9751 16.9221 16.7615C15.1363 18.548 12.7143 19.5516 10.1888 19.5516C7.66339 19.5516 5.24141 18.548 3.45565 16.7615C1.66989 14.9751 0.666626 12.5522 0.666626 10.0258C0.666626 7.4994 1.66989 5.07646 3.45565 3.29003C5.24141 1.5036 7.66339 0.5 10.1888 0.5C12.7143 0.5 15.1363 1.5036 16.9221 3.29003C18.7078 5.07646 19.711 7.4994 19.711 10.0258ZM9.11988 15.3726L9.44778 16.2582C9.48368 16.3579 9.54572 16.4462 9.62754 16.5142C9.70935 16.5822 9.80802 16.6275 9.91341 16.6453C10.0795 16.6759 10.2413 16.6671 10.3987 16.619C10.6304 16.5534 10.8031 16.4113 10.9168 16.1926L11.3496 15.3332C11.4502 15.132 11.6032 14.9833 11.8087 14.8871C16.1107 12.8927 13.4547 8.64809 9.38221 9.0614C9.15487 9.08327 8.95158 9.02204 8.77233 8.87771C8.15588 8.36599 8.25424 7.57872 8.92971 7.11949C10.3266 6.17479 11.7365 7.3688 12.917 8.03141C12.9989 8.07798 13.0907 8.10426 13.1848 8.10807C13.279 8.11187 13.3726 8.09307 13.458 8.05325C13.5434 8.01343 13.618 7.95375 13.6756 7.87919C13.7333 7.80462 13.7722 7.71735 13.7892 7.62466C13.999 6.4569 12.4842 5.4269 11.5267 4.96767C11.4252 4.91776 11.3384 4.84247 11.2752 4.74926C11.2119 4.65604 11.1742 4.54814 11.166 4.43627C11.1048 3.64902 10.6785 3.31226 9.88719 3.42598C9.68608 3.45659 9.54836 3.56811 9.47404 3.76055C8.85758 5.40722 7.4804 5.43346 6.80493 6.65371C5.74254 8.58904 7.44104 11.0623 9.5396 11.0099C10.3003 10.9924 10.9212 11.0339 11.4021 11.1345C11.6294 11.1782 11.7868 11.3073 11.8742 11.5216C12.1978 12.3263 11.9529 12.8468 11.1397 13.083C8.91659 13.7324 8.78545 12.0267 7.34269 11.9283C7.10223 11.9152 6.88798 11.9895 6.69998 12.1514C6.61475 12.2247 6.55363 12.3226 6.52442 12.4325C6.49521 12.5424 6.49924 12.6592 6.53603 12.7681C6.90328 13.8396 7.61811 14.5612 8.6805 14.933C8.8991 15.0117 9.04555 15.1582 9.11988 15.3726Z" fill="#E8E0EB"/>
<path d="M26.3871 8.28085C25.928 8.19338 25.8537 8.32459 26.1641 8.67448C26.4658 9.01125 26.6975 9.39612 26.8592 9.82911C26.8943 9.92726 26.9006 10.0336 26.8774 10.1358C26.8542 10.2379 26.8024 10.3318 26.7281 10.4064C26.0679 11.0581 25.4056 11.0537 24.741 10.3933C23.7967 9.45299 22.8939 8.49296 22.0326 7.51327C21.8763 7.33735 21.7928 7.10832 21.7989 6.87222C21.805 6.63612 21.9002 6.41043 22.0654 6.24054L25.1083 3.15057C25.2784 2.97922 25.5088 2.88123 25.7502 2.87755C25.9916 2.87387 26.2249 2.9648 26.4002 3.13089L26.6166 3.33427C26.7091 3.42241 26.7826 3.52852 26.8326 3.64609C26.8826 3.76366 26.9081 3.89021 26.9075 4.01798C26.9069 4.14575 26.8802 4.27205 26.829 4.38913C26.7779 4.50621 26.7034 4.6116 26.6101 4.69885L25.8887 5.36801C25.587 5.64792 25.6373 5.82942 26.0395 5.91252C30.2672 6.77412 32.5997 9.37863 33.0369 13.726C33.1112 14.4783 32.7724 14.8807 32.0204 14.9331L31.7909 14.9463C31.5977 14.9611 31.4063 14.9003 31.257 14.7767C31.1078 14.653 31.0123 14.4763 30.9908 14.2837C30.6148 10.776 29.0802 8.77507 26.3871 8.28085Z" fill="#D8BAFF"/>
<path d="M35.6666 25.974C35.6666 28.5004 34.6634 30.9233 32.8776 32.7098C31.0919 34.4962 28.6698 35.4998 26.1444 35.4998C23.619 35.4998 21.197 34.4962 19.4112 32.7098C17.6255 30.9233 16.6222 28.5004 16.6222 25.974C16.6222 23.4476 17.6255 21.0247 19.4112 19.2383C21.197 17.4518 23.619 16.4482 26.1444 16.4482C28.6698 16.4482 31.0919 17.4518 32.8776 19.2383C34.6634 21.0247 35.6666 23.4476 35.6666 25.974ZM25.0754 31.3208L25.4033 32.2065C25.4392 32.3061 25.5013 32.3944 25.5831 32.4624C25.6649 32.5305 25.7636 32.5757 25.869 32.5935C26.0351 32.6241 26.1969 32.6154 26.3543 32.5673C26.586 32.5017 26.7587 32.3595 26.8723 32.1409L27.3052 31.2814C27.4057 31.0802 27.5588 30.9315 27.7642 30.8353C32.0663 28.841 29.4103 24.5963 25.3378 25.0096C25.1104 25.0315 24.9071 24.9703 24.7279 24.826C24.1114 24.3142 24.2098 23.527 24.8853 23.0677C26.2821 22.123 27.6921 23.317 28.8725 23.9796C28.9544 24.0262 29.0463 24.0525 29.1404 24.0563C29.2345 24.0601 29.3282 24.0413 29.4136 24.0015C29.499 23.9617 29.5736 23.902 29.6312 23.8274C29.6888 23.7529 29.7277 23.6656 29.7447 23.5729C29.9546 22.4051 28.4397 21.3751 27.4823 20.9159C27.3807 20.866 27.294 20.7907 27.2307 20.6975C27.1675 20.6043 27.1298 20.4964 27.1215 20.3845C27.0603 19.5973 26.6341 19.2605 25.8428 19.3742C25.6416 19.4048 25.5039 19.5163 25.4296 19.7088C24.8132 21.3555 23.436 21.3817 22.7605 22.6019C21.6981 24.5373 23.3966 27.0106 25.4952 26.9581C26.2559 26.9406 26.8767 26.9822 27.3577 27.0827C27.585 27.1265 27.7424 27.2555 27.8298 27.4698C28.1533 28.2746 27.9085 28.795 27.0953 29.0312C24.8722 29.6807 24.741 27.975 23.2983 27.8766C23.0578 27.8634 22.8435 27.9378 22.6555 28.0996C22.5703 28.173 22.5092 28.2709 22.48 28.3807C22.4508 28.4906 22.4548 28.6074 22.4916 28.7163C22.8588 29.7878 23.5737 30.5095 24.6361 30.8812C24.8547 30.96 25.0011 31.1065 25.0754 31.3208Z" fill="#E8E0EB"/>
<path d="M10.4052 27.5291L9.85434 26.9386C9.41277 26.4663 9.38874 25.972 9.78222 25.456L9.94617 25.246C10.0056 25.1679 10.081 25.1032 10.1672 25.0563C10.2535 25.0094 10.3487 24.9814 10.4466 24.9739C10.5445 24.9665 10.6428 24.9799 10.7352 25.0132C10.8275 25.0465 10.9117 25.099 10.9823 25.1673L14.2548 28.3491C14.349 28.442 14.4239 28.5525 14.4753 28.6745C14.5266 28.7964 14.5534 28.9273 14.554 29.0596C14.5546 29.1919 14.5291 29.323 14.4788 29.4454C14.4286 29.5678 14.3547 29.679 14.2613 29.7727L11.2053 32.8168C11.0446 32.9795 10.8287 33.0759 10.6004 33.0868C10.372 33.0978 10.1478 33.0224 9.97238 32.8758L9.76909 32.7052C9.67724 32.6291 9.60187 32.535 9.54754 32.4288C9.49321 32.3225 9.46109 32.2063 9.45312 32.0872C9.44514 31.9681 9.46148 31.8487 9.50115 31.7361C9.54082 31.6236 9.60296 31.5203 9.68383 31.4325L10.4642 30.5928C10.7003 30.3348 10.6457 30.1686 10.3003 30.0942C6.0988 29.2064 3.75762 26.615 3.27671 22.3201C3.24993 22.0871 3.29982 21.8511 3.41904 21.6468C3.53827 21.4425 3.72055 21.2806 3.93907 21.1851L4.1358 21.0998C4.27155 21.0416 4.41934 21.0169 4.56665 21.028C4.71395 21.039 4.85641 21.0855 4.98193 21.1634C5.10745 21.2413 5.21233 21.3484 5.28765 21.4755C5.36297 21.6026 5.40654 21.7461 5.41462 21.8936C5.57638 25.047 7.15903 27.0567 10.1626 27.9227C10.2138 27.9366 10.2684 27.9336 10.3181 27.9141C10.3678 27.8946 10.4097 27.8597 10.4374 27.8149C10.465 27.77 10.4769 27.7177 10.471 27.666C10.4652 27.6144 10.4421 27.5662 10.4052 27.5291Z" fill="#D8BAFF"/>
</svg>
