<svg width="24" height="24" viewBox="0 0 24 24" fill="none" xmlns="http://www.w3.org/2000/svg">
<path fill-rule="evenodd" clip-rule="evenodd" d="M9.90693 4.0001C9.93791 4.00015 9.96894 4.00021 10 4.00021C10.0311 4.00021 10.0621 4.00015 10.0931 4.0001C10.4618 3.99949 10.8242 3.99889 11.147 4.08539C12.0098 4.31656 12.6836 4.99043 12.9148 5.85316C13.0013 6.176 13.0007 6.53841 13.0001 6.90713C13.0001 6.93811 13 6.96915 13 7.00021H21C21.5523 7.00021 22 7.44792 22 8.00021C22 8.55249 21.5523 9.00021 21 9.00021H13C13 9.03126 13.0001 9.0623 13.0001 9.09329C13.0007 9.46201 13.0013 9.82441 12.9148 10.1473C12.6836 11.01 12.0098 11.6839 11.147 11.915C10.8242 12.0015 10.4618 12.0009 10.0931 12.0003C10.0621 12.0003 10.0311 12.0002 10 12.0002C9.96894 12.0002 9.93791 12.0003 9.90692 12.0003C9.5382 12.0009 9.17579 12.0015 8.85295 11.915C7.99022 11.6839 7.31635 11.01 7.08519 10.1473C6.99868 9.82441 6.99928 9.462 6.9999 9.09328C6.99995 9.06229 7 9.03126 7 9.00021H5C4.44772 9.00021 4 8.55249 4 8.00021C4 7.44792 4.44772 7.00021 5 7.00021H7C7 6.96915 6.99995 6.93812 6.9999 6.90713C6.99928 6.53841 6.99868 6.176 7.08519 5.85316C7.31635 4.99043 7.99022 4.31656 8.85295 4.08539C9.17579 3.99889 9.5382 3.99949 9.90693 4.0001ZM9.49861 6.00556C9.39195 6.01042 9.36685 6.01824 9.37059 6.01724C9.19804 6.06348 9.06327 6.19825 9.01704 6.3708C9.0162 6.3743 9.00963 6.40503 9.00535 6.49881C9.00024 6.61084 9 6.75865 9 7.00021V9.00021C9 9.24176 9.00024 9.38957 9.00535 9.5016C9.01021 9.60825 9.01804 9.63335 9.01704 9.62962C9.06327 9.80216 9.19804 9.93694 9.37059 9.98317C9.36685 9.98217 9.39195 9.98999 9.49861 9.99486C9.61063 9.99996 9.75844 10.0002 10 10.0002C10.2416 10.0002 10.3894 9.99996 10.5014 9.99486C10.608 9.98999 10.6331 9.98217 10.6294 9.98317C10.802 9.93694 10.9367 9.80216 10.983 9.62962C10.982 9.63335 10.9898 9.60825 10.9946 9.5016C10.9998 9.38957 11 9.24176 11 9.00021V7.00021C11 6.75865 10.9998 6.61084 10.9946 6.49881C10.9898 6.39216 10.982 6.36706 10.983 6.3708M9.49861 6.00556C9.61063 6.00045 9.75844 6.00021 10 6.00021L9.49861 6.00556ZM10 6.00021C10.2416 6.00021 10.3894 6.00045 10.5014 6.00556L10 6.00021ZM10.5014 6.00556C10.5952 6.00983 10.6259 6.0164 10.6294 6.01724L10.5014 6.00556ZM10.6298 6.01733C10.6298 6.01733 10.6296 6.0173 10.6294 6.01724L10.6298 6.01733ZM15.9069 12.0001C15.9379 12.0002 15.9689 12.0002 16 12.0002C16.0311 12.0002 16.0621 12.0002 16.0931 12.0001C16.4618 11.9995 16.8242 11.9989 17.147 12.0854C18.0098 12.3166 18.6836 12.9904 18.9148 13.8532C19.0013 14.176 19.0007 14.5384 19.0001 14.9071C19.0001 14.9381 19 14.9691 19 15.0002H21C21.5523 15.0002 22 15.4479 22 16.0002C22 16.5525 21.5523 17.0002 21 17.0002H19C19 17.0313 19.0001 17.0623 19.0001 17.0933C19.0007 17.462 19.0013 17.8244 18.9148 18.1473C18.6836 19.01 18.0098 19.6839 17.147 19.915C16.8242 20.0015 16.4618 20.0009 16.0931 20.0003C16.0621 20.0003 16.0311 20.0002 16 20.0002C15.9689 20.0002 15.9379 20.0003 15.9069 20.0003C15.5382 20.0009 15.1758 20.0015 14.853 19.915C13.9902 19.6839 13.3164 19.01 13.0852 18.1473C12.9987 17.8244 12.9993 17.462 12.9999 17.0933C12.9999 17.0623 13 17.0313 13 17.0002H5C4.44772 17.0002 4 16.5525 4 16.0002C4 15.4479 4.44772 15.0002 5 15.0002H13C13 14.9691 12.9999 14.9381 12.9999 14.9071C12.9993 14.5384 12.9987 14.176 13.0852 13.8532C13.3164 12.9904 13.9902 12.3166 14.853 12.0854C15.1758 11.9989 15.5382 11.9995 15.9069 12.0001ZM15.4986 14.0056C15.392 14.0104 15.3669 14.0182 15.3706 14.0172C15.198 14.0635 15.0633 14.1983 15.017 14.3708C15.018 14.3671 15.0102 14.3922 15.0054 14.4988C15.0002 14.6108 15 14.7586 15 15.0002V17.0002C15 17.2418 15.0002 17.3896 15.0054 17.5016C15.0102 17.6083 15.018 17.6334 15.017 17.6296C15.0633 17.8022 15.198 17.9369 15.3706 17.9832C15.3669 17.9822 15.392 17.99 15.4986 17.9949C15.6106 18 15.7584 18.0002 16 18.0002C16.2416 18.0002 16.3894 18 16.5014 17.9949C16.608 17.99 16.6331 17.9822 16.6294 17.9832C16.802 17.9369 16.9367 17.8022 16.983 17.6296C16.982 17.6334 16.9898 17.6083 16.9946 17.5016C16.9998 17.3896 17 17.2418 17 17.0002V15.0002C17 14.7586 16.9998 14.6108 16.9946 14.4988C16.9898 14.3922 16.982 14.3671 16.983 14.3708C16.9367 14.1983 16.802 14.0635 16.6294 14.0172C16.6331 14.0182 16.608 14.0104 16.5014 14.0056C16.3894 14.0004 16.2416 14.0002 16 14.0002C15.7584 14.0002 15.6106 14.0004 15.4986 14.0056Z" fill="#D8BAFF"/>
</svg>
