<svg width="41" height="40" viewBox="0 0 41 40" fill="none" xmlns="http://www.w3.org/2000/svg">
<rect opacity="0.5" x="0.5" width="40" height="40" rx="12" fill="#D8BAFF"/>
<path fill-rule="evenodd" clip-rule="evenodd" d="M20.5 7.75C14.1462 7.75 9 12.8962 9 19.25C9 24.3387 12.2919 28.6369 16.8631 30.1606C17.4381 30.2612 17.6538 29.9162 17.6538 29.6144C17.6538 29.3412 17.6394 28.4356 17.6394 27.4725C14.75 28.0044 14.0025 26.7681 13.7725 26.1212C13.6431 25.7906 13.0825 24.77 12.5938 24.4969C12.1913 24.2812 11.6163 23.7494 12.5794 23.735C13.485 23.7206 14.1319 24.5687 14.3475 24.9137C15.3825 26.6531 17.0356 26.1644 17.6969 25.8625C17.7975 25.115 18.0994 24.6119 18.43 24.3244C15.8713 24.0369 13.1975 23.045 13.1975 18.6462C13.1975 17.3956 13.6431 16.3606 14.3762 15.5556C14.2613 15.2681 13.8587 14.0894 14.4913 12.5081C14.4913 12.5081 15.4544 12.2063 17.6538 13.6869C18.5738 13.4281 19.5513 13.2987 20.5288 13.2987C21.5063 13.2987 22.4838 13.4281 23.4038 13.6869C25.6031 12.1919 26.5662 12.5081 26.5662 12.5081C27.1987 14.0894 26.7962 15.2681 26.6812 15.5556C27.4144 16.3606 27.86 17.3812 27.86 18.6462C27.86 23.0594 25.1719 24.0369 22.6131 24.3244C23.03 24.6837 23.3894 25.3737 23.3894 26.4519C23.3894 27.99 23.375 29.2262 23.375 29.6144C23.375 29.9162 23.5906 30.2756 24.1656 30.1606C28.7081 28.6369 32 24.3244 32 19.25C32 12.8962 26.8538 7.75 20.5 7.75Z" fill="#2E2536"/>
</svg>
