<svg width="60" height="61" viewBox="0 0 60 61" fill="none" xmlns="http://www.w3.org/2000/svg">
<g opacity="0.5">
<rect y="0.5" width="60" height="60" rx="16" fill="#D9D9D9"/>
<rect y="0.5" width="60" height="60" rx="16" fill="#ACF2B0"/>
</g>
<path d="M31.2223 16.5139C30.164 15.1372 28.624 14.4379 27.6684 12.8863C27.4985 12.6135 27.4521 12.2899 27.5394 11.9858C27.6266 11.6817 27.8404 11.4216 28.1343 11.2619C30.472 9.98719 39.5149 10.6938 42.5002 10.7083C42.9813 10.7102 43.4421 10.8866 43.7823 11.199C44.1225 11.5114 44.3146 11.9346 44.3166 12.3764C44.3245 13.673 41.8447 15.4358 40.818 16.2225C40.7629 16.2653 40.7193 16.3194 40.6907 16.3803C40.6621 16.4413 40.6492 16.5076 40.653 16.5739C40.6568 16.6403 40.6773 16.7049 40.7128 16.7628C40.7482 16.8206 40.7978 16.87 40.8575 16.9072C46.7649 20.6368 52.9646 31.2281 48.4471 37.1065C46.815 39.2238 44.4957 40.3942 41.4893 40.6176C41.2418 40.637 41.0575 40.5496 40.9364 40.3553C38.196 35.9556 30.0218 36.6112 25.7966 38.2283C25.7511 38.2463 25.7015 38.2533 25.6523 38.2488C25.603 38.2443 25.5555 38.2283 25.5141 38.2024C25.4727 38.1764 25.4386 38.1413 25.4149 38.1001C25.3911 38.0588 25.3785 38.0128 25.378 37.9661C25.3938 36.3538 25.4096 34.7294 25.4254 33.0929C25.4412 31.2208 23.9564 30.7984 22.5664 29.9679C22.3664 29.8465 22.2927 29.6766 22.3453 29.458C23.6458 24.2376 26.589 20.0152 31.1749 16.7907C31.2196 16.7589 31.2495 16.7125 31.2583 16.661C31.2671 16.6095 31.2542 16.5569 31.2223 16.5139ZM33.8127 24.4683C34.9974 22.7492 37.2877 23.6962 38.7646 24.7743C39.2226 25.1093 39.6939 25.1166 40.1783 24.7961C40.4257 24.6359 40.4994 24.4246 40.3994 24.1624C39.9308 22.8949 39.0015 22.0257 37.6115 21.5546C37.4999 21.5151 37.4025 21.4486 37.33 21.3624C37.2575 21.2762 37.2128 21.1738 37.2008 21.0666C37.1008 20.2702 36.6427 19.8307 35.8266 19.7481C35.6861 19.734 35.5445 19.7626 35.4233 19.8297C35.302 19.8968 35.2079 19.9986 35.1553 20.1196C34.6762 21.2025 33.8417 21.9795 32.6518 22.4506C32.4676 22.5212 32.3124 22.6465 32.2095 22.8075C29.6902 26.7337 33.4968 28.3144 37.0113 28.2853C37.239 28.282 37.4631 28.3386 37.6573 28.4484C37.8515 28.5581 38.0078 28.7166 38.108 28.9053C38.2082 29.0939 38.2481 29.305 38.2231 29.5138C38.1982 29.7226 38.1093 29.9205 37.9669 30.0845C36.6875 31.5705 34.6104 30.5507 33.2125 29.7057C32.607 29.3366 32.0937 29.3294 31.6725 29.6839C31.4461 29.8732 31.3908 30.0991 31.5066 30.3613C32.0279 31.5462 32.944 32.3305 34.255 32.7141C34.3774 32.7518 34.487 32.818 34.5729 32.9062C34.6587 32.9943 34.718 33.1014 34.7447 33.2167L34.95 34.1491C34.9773 34.2637 35.0471 34.3661 35.1478 34.4391C35.2485 34.5121 35.3739 34.5511 35.5028 34.5498L36.3795 34.5352C36.7323 34.5255 36.9455 34.3604 37.0192 34.0399L37.193 33.3114C37.2225 33.1965 37.2809 33.0897 37.3632 32.9998C37.4456 32.91 37.5496 32.8395 37.6668 32.7942C40.818 31.636 41.6157 28.0886 38.5514 26.6099C37.4299 26.0781 35.9135 26.1 34.6341 25.998C34.4487 25.9835 34.2705 25.9251 34.1168 25.8285C33.963 25.7319 33.8388 25.6003 33.7563 25.4466C33.6737 25.2928 33.6355 25.122 33.6454 24.9506C33.6553 24.7792 33.7129 24.6131 33.8127 24.4683Z" fill="#D9D9D9"/>
<path d="M31.2223 16.5139C30.164 15.1372 28.624 14.4379 27.6684 12.8863C27.4985 12.6135 27.4521 12.2899 27.5394 11.9858C27.6266 11.6817 27.8404 11.4216 28.1343 11.2619C30.472 9.98719 39.5149 10.6938 42.5002 10.7083C42.9813 10.7102 43.4421 10.8866 43.7823 11.199C44.1225 11.5114 44.3146 11.9346 44.3166 12.3764C44.3245 13.673 41.8447 15.4358 40.818 16.2225C40.7629 16.2653 40.7193 16.3194 40.6907 16.3803C40.6621 16.4413 40.6492 16.5076 40.653 16.5739C40.6568 16.6403 40.6773 16.7049 40.7128 16.7628C40.7482 16.8206 40.7978 16.87 40.8575 16.9072C46.7649 20.6368 52.9646 31.2281 48.4471 37.1065C46.815 39.2238 44.4957 40.3942 41.4893 40.6176C41.2418 40.637 41.0575 40.5496 40.9364 40.3553C38.196 35.9556 30.0218 36.6112 25.7966 38.2283C25.7511 38.2463 25.7015 38.2533 25.6523 38.2488C25.603 38.2443 25.5555 38.2283 25.5141 38.2024C25.4727 38.1764 25.4386 38.1413 25.4149 38.1001C25.3911 38.0588 25.3785 38.0128 25.378 37.9661C25.3938 36.3538 25.4096 34.7294 25.4254 33.0929C25.4412 31.2208 23.9564 30.7984 22.5664 29.9679C22.3664 29.8465 22.2927 29.6766 22.3453 29.458C23.6458 24.2376 26.589 20.0152 31.1749 16.7907C31.2196 16.7589 31.2495 16.7125 31.2583 16.661C31.2671 16.6095 31.2542 16.5569 31.2223 16.5139ZM33.8127 24.4683C34.9974 22.7492 37.2877 23.6962 38.7646 24.7743C39.2226 25.1093 39.6939 25.1166 40.1783 24.7961C40.4257 24.6359 40.4994 24.4246 40.3994 24.1624C39.9308 22.8949 39.0015 22.0257 37.6115 21.5546C37.4999 21.5151 37.4025 21.4486 37.33 21.3624C37.2575 21.2762 37.2128 21.1738 37.2008 21.0666C37.1008 20.2702 36.6427 19.8307 35.8266 19.7481C35.6861 19.734 35.5445 19.7626 35.4233 19.8297C35.302 19.8968 35.2079 19.9986 35.1553 20.1196C34.6762 21.2025 33.8417 21.9795 32.6518 22.4506C32.4676 22.5212 32.3124 22.6465 32.2095 22.8075C29.6902 26.7337 33.4968 28.3144 37.0113 28.2853C37.239 28.282 37.4631 28.3386 37.6573 28.4484C37.8515 28.5581 38.0078 28.7166 38.108 28.9053C38.2082 29.0939 38.2481 29.305 38.2231 29.5138C38.1982 29.7226 38.1093 29.9205 37.9669 30.0845C36.6875 31.5705 34.6104 30.5507 33.2125 29.7057C32.607 29.3366 32.0937 29.3294 31.6725 29.6839C31.4461 29.8732 31.3908 30.0991 31.5066 30.3613C32.0279 31.5462 32.944 32.3305 34.255 32.7141C34.3774 32.7518 34.487 32.818 34.5729 32.9062C34.6587 32.9943 34.718 33.1014 34.7447 33.2167L34.95 34.1491C34.9773 34.2637 35.0471 34.3661 35.1478 34.4391C35.2485 34.5121 35.3739 34.5511 35.5028 34.5498L36.3795 34.5352C36.7323 34.5255 36.9455 34.3604 37.0192 34.0399L37.193 33.3114C37.2225 33.1965 37.2809 33.0897 37.3632 32.9998C37.4456 32.91 37.5496 32.8395 37.6668 32.7942C40.818 31.636 41.6157 28.0886 38.5514 26.6099C37.4299 26.0781 35.9135 26.1 34.6341 25.998C34.4487 25.9835 34.2705 25.9251 34.1168 25.8285C33.963 25.7319 33.8388 25.6003 33.7563 25.4466C33.6737 25.2928 33.6355 25.122 33.6454 24.9506C33.6553 24.7792 33.7129 24.6131 33.8127 24.4683Z" fill="#ACF2B0"/>
<path d="M17.046 34.8049C20.8233 34.8171 23.8889 33.8975 23.8932 32.7509C23.8976 31.6044 20.839 30.665 17.0618 30.6529C13.2845 30.6407 10.2189 31.5603 10.2146 32.7069C10.2102 33.8534 13.2688 34.7927 17.046 34.8049Z" fill="#D9D9D9"/>
<path d="M17.046 34.8049C20.8233 34.8171 23.8889 33.8975 23.8932 32.7509C23.8976 31.6044 20.839 30.665 17.0618 30.6529C13.2845 30.6407 10.2189 31.5603 10.2146 32.7069C10.2102 33.8534 13.2688 34.7927 17.046 34.8049Z" fill="#ACF2B0"/>
<path d="M11.0122 35.2345C15.1558 36.6331 19.2889 36.587 23.4115 35.0961C23.8117 34.9504 23.9933 35.0767 23.9565 35.4749L23.8538 36.6331C23.8117 37.1236 23.5432 37.4635 23.0482 37.6529C19.2468 39.1146 15.398 39.1802 11.5019 37.8496C10.6331 37.5534 10.1619 36.9803 10.0882 36.1305L10.0645 35.8974C10.0066 35.2272 10.3224 35.0063 11.0122 35.2345Z" fill="#D9D9D9"/>
<path d="M11.0122 35.2345C15.1558 36.6331 19.2889 36.587 23.4115 35.0961C23.8117 34.9504 23.9933 35.0767 23.9565 35.4749L23.8538 36.6331C23.8117 37.1236 23.5432 37.4635 23.0482 37.6529C19.2468 39.1146 15.398 39.1802 11.5019 37.8496C10.6331 37.5534 10.1619 36.9803 10.0882 36.1305L10.0645 35.8974C10.0066 35.2272 10.3224 35.0063 11.0122 35.2345Z" fill="#ACF2B0"/>
<path d="M32.3043 42.6643C36.0903 42.6643 39.1595 41.7152 39.1595 40.5445C39.1595 39.3738 36.0903 38.4248 32.3043 38.4248C28.5183 38.4248 25.4491 39.3738 25.4491 40.5445C25.4491 41.7152 28.5183 42.6643 32.3043 42.6643Z" fill="#D9D9D9"/>
<path d="M32.3043 42.6643C36.0903 42.6643 39.1595 41.7152 39.1595 40.5445C39.1595 39.3738 36.0903 38.4248 32.3043 38.4248C28.5183 38.4248 25.4491 39.3738 25.4491 40.5445C25.4491 41.7152 28.5183 42.6643 32.3043 42.6643Z" fill="#ACF2B0"/>
<path d="M11.4308 41.7612C11.0872 41.649 10.783 41.4529 10.5507 41.1938C10.3184 40.9346 10.1668 40.6222 10.1119 40.2898L10.025 39.7945C9.90392 39.0563 10.2225 38.8232 10.9807 39.0952C14.9821 40.5326 18.9915 40.5496 23.0088 39.1462C23.6985 38.9034 24.025 39.1219 23.9881 39.8017L23.9644 40.2388C23.9453 40.5735 23.8195 40.8952 23.6031 41.1636C23.3866 41.4319 23.0892 41.6348 22.7482 41.7467C18.9678 42.9898 15.1954 42.9947 11.4308 41.7612Z" fill="#D9D9D9"/>
<path d="M11.4308 41.7612C11.0872 41.649 10.783 41.4529 10.5507 41.1938C10.3184 40.9346 10.1668 40.6222 10.1119 40.2898L10.025 39.7945C9.90392 39.0563 10.2225 38.8232 10.9807 39.0952C14.9821 40.5326 18.9915 40.5496 23.0088 39.1462C23.6985 38.9034 24.025 39.1219 23.9881 39.8017L23.9644 40.2388C23.9453 40.5735 23.8195 40.8952 23.6031 41.1636C23.3866 41.4319 23.0892 41.6348 22.7482 41.7467C18.9678 42.9898 15.1954 42.9947 11.4308 41.7612Z" fill="#ACF2B0"/>
<path d="M23.1588 43.0141C23.7801 42.8004 24.0434 42.9971 23.9486 43.6041L23.8222 44.4345C23.7327 45.0221 23.3853 45.4131 22.7798 45.6073C19.0363 46.8019 15.2796 46.8359 11.5098 45.7093C10.6358 45.4519 10.1751 44.8983 10.1277 44.0485L10.1119 43.6333C10.075 43.036 10.3646 42.8393 10.9806 43.0432C15.04 44.4175 19.0994 44.4078 23.1588 43.0141Z" fill="#D9D9D9"/>
<path d="M23.1588 43.0141C23.7801 42.8004 24.0434 42.9971 23.9486 43.6041L23.8222 44.4345C23.7327 45.0221 23.3853 45.4131 22.7798 45.6073C19.0363 46.8019 15.2796 46.8359 11.5098 45.7093C10.6358 45.4519 10.1751 44.8983 10.1277 44.0485L10.1119 43.6333C10.075 43.036 10.3646 42.8393 10.9806 43.0432C15.04 44.4175 19.0994 44.4078 23.1588 43.0141Z" fill="#ACF2B0"/>
<path d="M37.9196 45.6728C34.0076 46.8966 30.1167 46.8407 26.2468 45.5053C26.0128 45.4254 25.8093 45.2834 25.6619 45.0968C25.5144 44.9103 25.4295 44.6876 25.4176 44.4563L25.3623 43.4074C25.336 42.9364 25.5623 42.7858 26.0415 42.9558C30.1219 44.4078 34.2208 44.4345 38.3382 43.0359C38.991 42.8125 39.2938 43.0238 39.2464 43.6696L39.2148 44.1213C39.1894 44.4682 39.0529 44.8007 38.8224 45.0768C38.592 45.3528 38.2778 45.5602 37.9196 45.6728Z" fill="#D9D9D9"/>
<path d="M37.9196 45.6728C34.0076 46.8966 30.1167 46.8407 26.2468 45.5053C26.0128 45.4254 25.8093 45.2834 25.6619 45.0968C25.5144 44.9103 25.4295 44.6876 25.4176 44.4563L25.3623 43.4074C25.336 42.9364 25.5623 42.7858 26.0415 42.9558C30.1219 44.4078 34.2208 44.4345 38.3382 43.0359C38.991 42.8125 39.2938 43.0238 39.2464 43.6696L39.2148 44.1213C39.1894 44.4682 39.0529 44.8007 38.8224 45.0768C38.592 45.3528 38.2778 45.5602 37.9196 45.6728Z" fill="#ACF2B0"/>
<path d="M25.9782 46.8454C30.0324 48.2392 34.1207 48.2877 38.2433 46.9911C38.8857 46.792 39.2095 47.0057 39.2147 47.6322V47.8652C39.22 48.7102 38.7909 49.276 37.9274 49.5625C34.026 50.8542 30.1403 50.8008 26.2704 49.4022C26.0321 49.3177 25.8251 49.1719 25.6739 48.9821C25.5227 48.7923 25.4337 48.5665 25.4175 48.3314L25.3464 47.2752C25.3201 46.8382 25.5307 46.6949 25.9782 46.8454Z" fill="#D9D9D9"/>
<path d="M25.9782 46.8454C30.0324 48.2392 34.1207 48.2877 38.2433 46.9911C38.8857 46.792 39.2095 47.0057 39.2147 47.6322V47.8652C39.22 48.7102 38.7909 49.276 37.9274 49.5625C34.026 50.8542 30.1403 50.8008 26.2704 49.4022C26.0321 49.3177 25.8251 49.1719 25.6739 48.9821C25.5227 48.7923 25.4337 48.5665 25.4175 48.3314L25.3464 47.2752C25.3201 46.8382 25.5307 46.6949 25.9782 46.8454Z" fill="#ACF2B0"/>
<path d="M10.8543 46.8894C14.8979 48.2637 18.96 48.2928 23.0404 46.9768C23.7354 46.7485 24.0382 46.9719 23.9487 47.6469L23.8934 48.084C23.7986 48.8076 23.38 49.2956 22.6376 49.5481C18.7625 50.8642 14.9085 50.8156 11.0755 49.4024C10.8279 49.3123 10.6117 49.1616 10.4503 48.9665C10.2888 48.7713 10.1882 48.5393 10.1593 48.2952L10.0567 47.4575C9.98821 46.8748 10.2541 46.6854 10.8543 46.8894Z" fill="#D9D9D9"/>
<path d="M10.8543 46.8894C14.8979 48.2637 18.96 48.2928 23.0404 46.9768C23.7354 46.7485 24.0382 46.9719 23.9487 47.6469L23.8934 48.084C23.7986 48.8076 23.38 49.2956 22.6376 49.5481C18.7625 50.8642 14.9085 50.8156 11.0755 49.4024C10.8279 49.3123 10.6117 49.1616 10.4503 48.9665C10.2888 48.7713 10.1882 48.5393 10.1593 48.2952L10.0567 47.4575C9.98821 46.8748 10.2541 46.6854 10.8543 46.8894Z" fill="#ACF2B0"/>
</svg>
