<svg width="27" height="27" viewBox="0 0 27 27" fill="none" xmlns="http://www.w3.org/2000/svg">
<path fill-rule="evenodd" clip-rule="evenodd" d="M13.644 4.12885C13.4411 4.06975 13.2256 4.06975 13.0227 4.12885C12.9643 4.14585 12.8617 4.18841 12.6433 4.35371C12.4137 4.52755 12.1326 4.77636 11.6946 5.1657L5.87279 10.3406C5.15907 10.9751 4.95673 11.1664 4.81608 11.3779C4.68076 11.5815 4.57996 11.806 4.51772 12.0423C4.45303 12.288 4.44447 12.5663 4.44447 13.5213V19.078C4.44447 20.0458 4.44537 20.7037 4.48757 21.2119C4.52868 21.7068 4.60314 21.9595 4.69467 22.1357C4.9055 22.5416 5.23643 22.8725 5.64231 23.0833C5.81851 23.1749 6.07116 23.2493 6.56609 23.2904C7.07432 23.3326 7.73223 23.3335 8.70003 23.3335H8.88892V20.0002C8.88892 17.5456 10.8788 15.5557 13.3334 15.5557C15.788 15.5557 17.7778 17.5456 17.7778 20.0002V23.3335H17.9667C18.9345 23.3335 19.5924 23.3326 20.1006 23.2904C20.5956 23.2493 20.8482 23.1749 21.0244 23.0833C21.4303 22.8725 21.7612 22.5416 21.9721 22.1357C22.0636 21.9595 22.138 21.7068 22.1791 21.2119C22.2214 20.7037 22.2222 20.0458 22.2222 19.078V13.5213C22.2222 12.5663 22.2137 12.288 22.149 12.0423C22.0868 11.806 21.986 11.5815 21.8506 11.3779C21.71 11.1664 21.5077 10.9751 20.7939 10.3406L14.9721 5.1657C14.5341 4.77636 14.253 4.52755 14.0234 4.35371C13.8051 4.18841 13.7024 4.14585 13.644 4.12885ZM12.4013 1.99526C13.01 1.81799 13.6567 1.81799 14.2654 1.99526C14.6878 2.11826 15.038 2.33458 15.3648 2.58201C15.6726 2.81502 16.0191 3.12312 16.4183 3.47791L22.2703 8.67973C22.3018 8.70774 22.3329 8.73536 22.3636 8.76262C22.9433 9.27731 23.3811 9.66613 23.7013 10.1477C23.9719 10.5548 24.1735 11.0038 24.298 11.4765C24.4452 12.0357 24.4449 12.6213 24.4445 13.3964C24.4445 13.4375 24.4445 13.4791 24.4445 13.5213V19.1246C24.4445 20.0341 24.4445 20.7847 24.3937 21.3958C24.341 22.0306 24.2278 22.6138 23.9441 23.1601C23.5224 23.9718 22.8605 24.6337 22.0488 25.0554C21.5025 25.3391 20.9194 25.4523 20.2845 25.505C19.6734 25.5558 18.9228 25.5558 18.0133 25.5557H17.5611C17.5526 25.5557 17.5438 25.5557 17.535 25.5557C17.4004 25.5558 17.2397 25.5559 17.0982 25.5441C16.9341 25.5305 16.6992 25.4955 16.454 25.3681C16.1496 25.21 15.9014 24.9618 15.7432 24.6574C15.6158 24.4121 15.5808 24.1772 15.5672 24.0131C15.5555 23.8716 15.5555 23.7109 15.5556 23.5763L15.5556 20.0002C15.5556 18.7729 14.5607 17.778 13.3334 17.778C12.1061 17.778 11.1111 18.7729 11.1111 20.0002L11.1111 23.5763C11.1112 23.7109 11.1113 23.8716 11.0995 24.0131C11.0859 24.1772 11.0509 24.4121 10.9235 24.6574C10.7654 24.9618 10.5172 25.21 10.2128 25.3681C9.96753 25.4955 9.73262 25.5305 9.56852 25.5441C9.42701 25.5559 9.26629 25.5558 9.13172 25.5557C9.12289 25.5557 9.11417 25.5557 9.10558 25.5557H8.65339C7.7439 25.5558 6.99329 25.5558 6.38218 25.505C5.74734 25.4523 5.16418 25.3391 4.61792 25.0554C3.80617 24.6337 3.14431 23.9718 2.72264 23.1601C2.43888 22.6138 2.3257 22.0306 2.27298 21.3958C2.22223 20.7847 2.22224 20.0341 2.22225 19.1246L2.22225 13.5213C2.22225 13.4791 2.22223 13.4375 2.22221 13.3964C2.22181 12.6213 2.2215 12.0357 2.36875 11.4765C2.49322 11.0038 2.69483 10.5548 2.96546 10.1477C3.2856 9.66613 3.72347 9.27732 4.3031 8.76263C4.33381 8.73536 4.36492 8.70774 4.39643 8.67973L10.2485 3.47792C10.6476 3.12313 10.9942 2.81503 11.3019 2.582C11.6287 2.33458 11.979 2.11826 12.4013 1.99526Z" fill="#241E2A"/>
</svg>
