<svg width="35" height="35" viewBox="0 0 35 35" fill="none" xmlns="http://www.w3.org/2000/svg">
<path fill-rule="evenodd" clip-rule="evenodd" d="M17.9077 5.41917C17.6414 5.34161 17.3585 5.34161 17.0922 5.41917C17.0155 5.44149 16.8808 5.49735 16.5943 5.71431C16.2929 5.94248 15.924 6.26903 15.3491 6.78004L7.70795 13.5722C6.77118 14.4048 6.50562 14.6559 6.32101 14.9336C6.14341 15.2008 6.01111 15.4954 5.92942 15.8056C5.84451 16.1281 5.83328 16.4934 5.83328 17.7467V25.0399C5.83328 26.3101 5.83445 27.1736 5.88985 27.8407C5.9438 28.4903 6.04153 28.8219 6.16166 29.0531C6.43838 29.5859 6.87273 30.0202 7.40544 30.2969C7.6367 30.4171 7.9683 30.5148 8.6179 30.5687C9.28495 30.6241 10.1485 30.6253 11.4187 30.6253H11.6666V26.2503C11.6666 23.0286 14.2783 20.417 17.4999 20.417C20.7216 20.417 23.3333 23.0286 23.3333 26.2503V30.6253H23.5812C24.8514 30.6253 25.7149 30.6241 26.382 30.5687C27.0316 30.5148 27.3632 30.4171 27.5945 30.2969C28.1272 30.0202 28.5615 29.5859 28.8382 29.0531C28.9584 28.8219 29.0561 28.4903 29.11 27.8407C29.1654 27.1736 29.1666 26.3101 29.1666 25.0399V17.7467C29.1666 16.4934 29.1554 16.1281 29.0705 15.8056C28.9888 15.4954 28.8565 15.2008 28.6789 14.9336C28.4943 14.6559 28.2287 14.4048 27.2919 13.5722L19.6508 6.78004C19.0759 6.26903 18.707 5.94248 18.4056 5.71431C18.1191 5.49735 17.9844 5.44149 17.9077 5.41917ZM16.2766 2.61884C17.0756 2.38617 17.9243 2.38617 18.7233 2.61884C19.2776 2.78028 19.7373 3.0642 20.1662 3.38894C20.5701 3.69478 21.025 4.09916 21.5489 4.56482L29.2297 11.3922C29.271 11.429 29.3119 11.4652 29.3522 11.501C30.1129 12.1765 30.6876 12.6869 31.1078 13.3189C31.463 13.8532 31.7276 14.4425 31.891 15.0629C32.0843 15.7969 32.0839 16.5655 32.0833 17.5829C32.0833 17.6368 32.0833 17.6914 32.0833 17.7467V25.1011C32.0833 26.2948 32.0833 27.28 32.0167 28.0821C31.9475 28.9153 31.799 29.6807 31.4265 30.3977C30.8731 31.4631 30.0044 32.3318 28.939 32.8852C28.222 33.2577 27.4566 33.4062 26.6234 33.4754C25.8213 33.542 24.8361 33.542 23.6424 33.542H23.0489C23.0376 33.542 23.0262 33.542 23.0146 33.542C22.838 33.542 22.627 33.5421 22.4413 33.5267C22.2259 33.5088 21.9176 33.4629 21.5957 33.2957C21.1962 33.0881 20.8704 32.7624 20.6629 32.3629C20.4957 32.041 20.4498 31.7327 20.4319 31.5173C20.4165 31.3316 20.4165 31.1206 20.4166 30.944L20.4166 26.2503C20.4166 24.6395 19.1108 23.3336 17.4999 23.3336C15.8891 23.3336 14.5833 24.6395 14.5833 26.2503L14.5833 30.944C14.5834 31.1206 14.5834 31.3316 14.568 31.5173C14.5501 31.7327 14.5042 32.041 14.337 32.3629C14.1295 32.7624 13.8037 33.0881 13.4042 33.2957C13.0823 33.4629 12.774 33.5088 12.5586 33.5267C12.3729 33.5421 12.1619 33.542 11.9853 33.542C11.9737 33.542 11.9623 33.542 11.951 33.542H11.3575C10.1638 33.542 9.17861 33.542 8.37651 33.4754C7.54329 33.4062 6.7779 33.2577 6.06093 32.8852C4.99551 32.3318 4.12681 31.4631 3.57337 30.3977C3.20093 29.6807 3.05238 28.9153 2.98319 28.0821C2.91658 27.28 2.91659 26.2948 2.91661 25.1011L2.91661 17.7467C2.91661 17.6914 2.91659 17.6368 2.91656 17.5829C2.91603 16.5655 2.91563 15.7969 3.10889 15.0629C3.27226 14.4425 3.53688 13.8532 3.89207 13.3189C4.31225 12.6869 4.88697 12.1765 5.64773 11.501C5.68804 11.4652 5.72887 11.429 5.77022 11.3922L13.451 4.56483C13.9749 4.09917 14.4297 3.69478 14.8337 3.38894C15.2626 3.06419 15.7223 2.78028 16.2766 2.61884Z" fill="#E8E0EB"/>
</svg>
