<svg width="60" height="60" viewBox="0 0 60 60" fill="none" xmlns="http://www.w3.org/2000/svg">
<g opacity="0.5">
<rect width="60" height="60" rx="16" fill="#D9D9D9"/>
<rect width="60" height="60" rx="16" fill="#ACF2B0"/>
</g>
<path d="M23.5571 15.4946C23.4344 16.7188 23.9512 17.331 25.1075 17.331L47.0327 17.3687C47.4178 17.3687 47.7873 17.5296 48.0615 17.8166C48.3358 18.1037 48.4926 18.4939 48.4982 18.9028L48.5478 22.3715C48.5619 23.2985 48.1371 23.7444 47.2734 23.7091C45.1496 23.6184 39.6771 23.1121 37.8081 24.3439C35.7126 25.7268 36.0949 29.256 36.1657 31.5986C36.2719 34.765 37.3126 36.7601 40.4771 36.6921C43.1201 36.6316 45.303 36.6064 47.0257 36.6165C48.6823 36.6266 49.1566 37.4301 48.4486 39.0272L47.7619 40.5688C47.4375 41.2975 46.927 41.9133 46.2894 42.3452C45.6517 42.7771 44.913 43.0075 44.1585 43.0098L32.5056 43.0249C32.4523 43.025 32.3995 43.0135 32.3507 42.991C32.3018 42.9685 32.258 42.9355 32.222 42.8942C32.186 42.853 32.1586 42.8043 32.1416 42.7513C32.1246 42.6983 32.1184 42.6422 32.1233 42.5866C32.1941 41.8309 32.2578 41.0953 32.3145 40.3799C32.9516 32.6113 27.4721 26.5279 20.4068 26.0593C20.1755 26.0442 20.0552 25.9132 20.0457 25.6664C19.8286 19.7366 19.8735 15.8926 20.1802 14.1343C20.7254 11.0284 23.4085 10.0309 26.2686 10.0157C32.9847 9.99055 39.9037 9.99559 47.0257 10.0309C47.377 10.0323 47.7155 10.1718 47.9767 10.4227C48.2378 10.6736 48.4033 11.0183 48.4416 11.3911L48.4769 11.7387C48.6233 13.0789 48.064 13.7514 46.7991 13.7565L24.9943 13.8018C24.6462 13.8016 24.3104 13.9389 24.0516 14.1873C23.7928 14.4357 23.6293 14.7775 23.5926 15.147L23.5571 15.4946Z" fill="#D9D9D9"/>
<path d="M23.5571 15.4946C23.4344 16.7188 23.9512 17.331 25.1075 17.331L47.0327 17.3687C47.4178 17.3687 47.7873 17.5296 48.0615 17.8166C48.3358 18.1037 48.4926 18.4939 48.4982 18.9028L48.5478 22.3715C48.5619 23.2985 48.1371 23.7444 47.2734 23.7091C45.1496 23.6184 39.6771 23.1121 37.8081 24.3439C35.7126 25.7268 36.0949 29.256 36.1657 31.5986C36.2719 34.765 37.3126 36.7601 40.4771 36.6921C43.1201 36.6316 45.303 36.6064 47.0257 36.6165C48.6823 36.6266 49.1566 37.4301 48.4486 39.0272L47.7619 40.5688C47.4375 41.2975 46.927 41.9133 46.2894 42.3452C45.6517 42.7771 44.913 43.0075 44.1585 43.0098L32.5056 43.0249C32.4523 43.025 32.3995 43.0135 32.3507 42.991C32.3018 42.9685 32.258 42.9355 32.222 42.8942C32.186 42.853 32.1586 42.8043 32.1416 42.7513C32.1246 42.6983 32.1184 42.6422 32.1233 42.5866C32.1941 41.8309 32.2578 41.0953 32.3145 40.3799C32.9516 32.6113 27.4721 26.5279 20.4068 26.0593C20.1755 26.0442 20.0552 25.9132 20.0457 25.6664C19.8286 19.7366 19.8735 15.8926 20.1802 14.1343C20.7254 11.0284 23.4085 10.0309 26.2686 10.0157C32.9847 9.99055 39.9037 9.99559 47.0257 10.0309C47.377 10.0323 47.7155 10.1718 47.9767 10.4227C48.2378 10.6736 48.4033 11.0183 48.4416 11.3911L48.4769 11.7387C48.6233 13.0789 48.064 13.7514 46.7991 13.7565L24.9943 13.8018C24.6462 13.8016 24.3104 13.9389 24.0516 14.1873C23.7928 14.4357 23.6293 14.7775 23.5926 15.147L23.5571 15.4946Z" fill="#ACF2B0"/>
<path d="M50 32.5141C50.0007 32.7106 49.965 32.9053 49.8952 33.0871C49.8253 33.2689 49.7226 33.4342 49.5929 33.5737C49.4632 33.7131 49.309 33.8239 49.1392 33.8997C48.9694 33.9755 48.7872 34.0149 48.6032 34.0156L39.952 34.0479C39.7679 34.0485 39.5855 34.0105 39.4152 33.936C39.2449 33.8614 39.09 33.7518 38.9594 33.6133C38.8288 33.4748 38.725 33.3103 38.6539 33.129C38.5829 32.9477 38.546 32.7533 38.5454 32.5568L38.5297 27.7506C38.529 27.5541 38.5646 27.3594 38.6345 27.1776C38.7043 26.9958 38.8071 26.8304 38.9368 26.691C39.0665 26.5516 39.2206 26.4408 39.3905 26.365C39.5603 26.2891 39.7424 26.2498 39.9265 26.2491L48.5777 26.2168C48.7618 26.2161 48.9442 26.2541 49.1145 26.3287C49.2848 26.4033 49.4397 26.5129 49.5703 26.6514C49.7009 26.7898 49.8047 26.9544 49.8757 27.1357C49.9468 27.317 49.9836 27.5114 49.9843 27.7079L50 32.5141ZM48.0807 30.1399C48.0807 29.717 47.9233 29.3114 47.6432 29.0124C47.363 28.7134 46.9831 28.5454 46.5869 28.5454C46.1907 28.5454 45.8108 28.7134 45.5307 29.0124C45.2505 29.3114 45.0932 29.717 45.0932 30.1399C45.0932 30.5628 45.2505 30.9684 45.5307 31.2674C45.8108 31.5664 46.1907 31.7344 46.5869 31.7344C46.9831 31.7344 47.363 31.5664 47.6432 31.2674C47.9233 30.9684 48.0807 30.5628 48.0807 30.1399Z" fill="#D9D9D9"/>
<path d="M50 32.5141C50.0007 32.7106 49.965 32.9053 49.8952 33.0871C49.8253 33.2689 49.7226 33.4342 49.5929 33.5737C49.4632 33.7131 49.309 33.8239 49.1392 33.8997C48.9694 33.9755 48.7872 34.0149 48.6032 34.0156L39.952 34.0479C39.7679 34.0485 39.5855 34.0105 39.4152 33.936C39.2449 33.8614 39.09 33.7518 38.9594 33.6133C38.8288 33.4748 38.725 33.3103 38.6539 33.129C38.5829 32.9477 38.546 32.7533 38.5454 32.5568L38.5297 27.7506C38.529 27.5541 38.5646 27.3594 38.6345 27.1776C38.7043 26.9958 38.8071 26.8304 38.9368 26.691C39.0665 26.5516 39.2206 26.4408 39.3905 26.365C39.5603 26.2891 39.7424 26.2498 39.9265 26.2491L48.5777 26.2168C48.7618 26.2161 48.9442 26.2541 49.1145 26.3287C49.2848 26.4033 49.4397 26.5129 49.5703 26.6514C49.7009 26.7898 49.8047 26.9544 49.8757 27.1357C49.9468 27.317 49.9836 27.5114 49.9843 27.7079L50 32.5141ZM48.0807 30.1399C48.0807 29.717 47.9233 29.3114 47.6432 29.0124C47.363 28.7134 46.9831 28.5454 46.5869 28.5454C46.1907 28.5454 45.8108 28.7134 45.5307 29.0124C45.2505 29.3114 45.0932 29.717 45.0932 30.1399C45.0932 30.5628 45.2505 30.9684 45.5307 31.2674C45.8108 31.5664 46.1907 31.7344 46.5869 31.7344C46.9831 31.7344 47.363 31.5664 47.6432 31.2674C47.9233 30.9684 48.0807 30.5628 48.0807 30.1399Z" fill="#ACF2B0"/>
<g opacity="0.5">
<path d="M46.5868 31.7345C47.4118 31.7345 48.0805 31.0206 48.0805 30.1399C48.0805 29.2593 47.4118 28.5454 46.5868 28.5454C45.7618 28.5454 45.093 29.2593 45.093 30.1399C45.093 31.0206 45.7618 31.7345 46.5868 31.7345Z" fill="#D9D9D9"/>
<path d="M46.5868 31.7345C47.4118 31.7345 48.0805 31.0206 48.0805 30.1399C48.0805 29.2593 47.4118 28.5454 46.5868 28.5454C45.7618 28.5454 45.093 29.2593 45.093 30.1399C45.093 31.0206 45.7618 31.7345 46.5868 31.7345Z" fill="#ACF2B0"/>
</g>
<path d="M29.9925 39.3292C29.9925 42.1592 28.9393 44.8733 27.0646 46.8744C25.19 48.8755 22.6474 49.9998 19.9962 49.9998C17.3451 49.9998 14.8025 48.8755 12.9278 46.8744C11.0531 44.8733 10 42.1592 10 39.3292C10 36.4992 11.0531 33.7851 12.9278 31.784C14.8025 29.7829 17.3451 28.6587 19.9962 28.6587C22.6474 28.6587 25.19 29.7829 27.0646 31.784C28.9393 33.7851 29.9925 36.4992 29.9925 39.3292ZM18.5733 33.2685C16.4777 34.7497 14.8282 35.785 16.5768 38.77C17.7733 40.818 19.5007 40.357 21.313 40.5988C21.475 40.6195 21.629 40.6854 21.7595 40.7899C21.8899 40.8944 21.9923 41.0337 22.0562 41.1939C22.1201 41.3541 22.1433 41.5295 22.1234 41.7023C22.1036 41.8751 22.0414 42.0393 21.9431 42.1782C19.975 44.9365 18.2193 41.3696 16.237 41.7777C16.1694 41.7914 16.1054 41.8209 16.0496 41.8641C15.9938 41.9073 15.9474 41.9632 15.9137 42.0279C15.8801 42.0927 15.8598 42.1646 15.8545 42.2389C15.8492 42.3131 15.859 42.3878 15.8831 42.4578C16.3503 43.798 17.214 44.7174 18.4741 45.2162C18.5748 45.2562 18.6648 45.3211 18.7363 45.4053C18.8078 45.4895 18.8588 45.5906 18.8848 45.6998L19.0971 46.6293C19.1538 46.8711 19.2954 47.0198 19.5219 47.0752C19.8145 47.1457 20.1072 47.1331 20.3998 47.0374C20.683 46.9417 20.8623 46.7427 20.9378 46.4404L21.1148 45.7149C21.1455 45.5908 21.2031 45.4762 21.2831 45.3803C21.363 45.2845 21.463 45.2101 21.575 45.1633C25.2351 43.6292 24.9094 39.0421 21.0865 38.1957C20.1166 37.9841 17.9361 38.6793 18.0211 36.7976C18.0447 36.2787 18.2901 35.9462 18.7573 35.8001C20.1543 35.3769 21.3106 35.6641 22.2263 36.6616C22.7124 37.1906 23.2859 37.2107 23.9466 36.7221C24.126 36.5911 24.1802 36.4122 24.1094 36.1855C23.6705 34.7799 22.7761 33.8479 21.4263 33.3894C21.247 33.3289 21.1431 33.2005 21.1148 33.004L20.9661 31.946C20.9508 31.8311 20.8974 31.726 20.8155 31.6497C20.7336 31.5734 20.6288 31.531 20.5201 31.5304L19.4511 31.5379C19.3226 31.5378 19.1988 31.591 19.1053 31.6866C19.0119 31.7822 18.9557 31.9129 18.9485 32.0518L18.9131 32.6564C18.8942 32.9183 18.7809 33.1224 18.5733 33.2685Z" fill="#D9D9D9"/>
<path d="M29.9925 39.3292C29.9925 42.1592 28.9393 44.8733 27.0646 46.8744C25.19 48.8755 22.6474 49.9998 19.9962 49.9998C17.3451 49.9998 14.8025 48.8755 12.9278 46.8744C11.0531 44.8733 10 42.1592 10 39.3292C10 36.4992 11.0531 33.7851 12.9278 31.784C14.8025 29.7829 17.3451 28.6587 19.9962 28.6587C22.6474 28.6587 25.19 29.7829 27.0646 31.784C28.9393 33.7851 29.9925 36.4992 29.9925 39.3292ZM18.5733 33.2685C16.4777 34.7497 14.8282 35.785 16.5768 38.77C17.7733 40.818 19.5007 40.357 21.313 40.5988C21.475 40.6195 21.629 40.6854 21.7595 40.7899C21.8899 40.8944 21.9923 41.0337 22.0562 41.1939C22.1201 41.3541 22.1433 41.5295 22.1234 41.7023C22.1036 41.8751 22.0414 42.0393 21.9431 42.1782C19.975 44.9365 18.2193 41.3696 16.237 41.7777C16.1694 41.7914 16.1054 41.8209 16.0496 41.8641C15.9938 41.9073 15.9474 41.9632 15.9137 42.0279C15.8801 42.0927 15.8598 42.1646 15.8545 42.2389C15.8492 42.3131 15.859 42.3878 15.8831 42.4578C16.3503 43.798 17.214 44.7174 18.4741 45.2162C18.5748 45.2562 18.6648 45.3211 18.7363 45.4053C18.8078 45.4895 18.8588 45.5906 18.8848 45.6998L19.0971 46.6293C19.1538 46.8711 19.2954 47.0198 19.5219 47.0752C19.8145 47.1457 20.1072 47.1331 20.3998 47.0374C20.683 46.9417 20.8623 46.7427 20.9378 46.4404L21.1148 45.7149C21.1455 45.5908 21.2031 45.4762 21.2831 45.3803C21.363 45.2845 21.463 45.2101 21.575 45.1633C25.2351 43.6292 24.9094 39.0421 21.0865 38.1957C20.1166 37.9841 17.9361 38.6793 18.0211 36.7976C18.0447 36.2787 18.2901 35.9462 18.7573 35.8001C20.1543 35.3769 21.3106 35.6641 22.2263 36.6616C22.7124 37.1906 23.2859 37.2107 23.9466 36.7221C24.126 36.5911 24.1802 36.4122 24.1094 36.1855C23.6705 34.7799 22.7761 33.8479 21.4263 33.3894C21.247 33.3289 21.1431 33.2005 21.1148 33.004L20.9661 31.946C20.9508 31.8311 20.8974 31.726 20.8155 31.6497C20.7336 31.5734 20.6288 31.531 20.5201 31.5304L19.4511 31.5379C19.3226 31.5378 19.1988 31.591 19.1053 31.6866C19.0119 31.7822 18.9557 31.9129 18.9485 32.0518L18.9131 32.6564C18.8942 32.9183 18.7809 33.1224 18.5733 33.2685Z" fill="#ACF2B0"/>
</svg>
