<svg width="162" height="121" viewBox="0 0 162 121" fill="none" xmlns="http://www.w3.org/2000/svg">
<path opacity="0.4" d="M152.737 66.0028C153.218 66.4684 153.982 66.4684 154.463 66.0028C154.805 65.6722 155.306 65.5658 155.753 65.7287C156.382 65.9583 157.08 65.6476 157.33 65.0264C157.508 64.5853 157.922 64.2845 158.396 64.2517C159.065 64.2055 159.576 63.6378 159.552 62.9684C159.535 62.4932 159.791 62.05 160.211 61.8271C160.802 61.5131 161.039 60.7865 160.744 60.1847C160.536 59.7575 160.589 59.2485 160.882 58.874C161.295 58.3465 161.215 57.5868 160.702 57.1566C160.337 56.8512 160.179 56.3645 160.294 55.9032C160.457 55.2534 160.075 54.5918 159.431 54.4077C158.974 54.277 158.631 53.8967 158.549 53.4283C158.433 52.7686 157.815 52.3195 157.152 52.4133C156.681 52.4798 156.214 52.2717 155.948 51.8772C155.574 51.3216 154.827 51.1628 154.259 51.5182C153.856 51.7705 153.344 51.7705 152.941 51.5182C152.373 51.1628 151.626 51.3216 151.252 51.8772C150.986 52.2717 150.519 52.4798 150.048 52.4133C149.385 52.3195 148.767 52.7686 148.651 53.4283C148.569 53.8967 148.226 54.277 147.769 54.4077C147.125 54.5918 146.743 55.2534 146.906 55.9032C147.021 56.3645 146.863 56.8512 146.498 57.1566C145.985 57.5868 145.905 58.3465 146.318 58.874C146.611 59.2485 146.664 59.7575 146.456 60.1847C146.162 60.7865 146.398 61.5131 146.989 61.8271C147.409 62.05 147.665 62.4932 147.648 62.9684C147.624 63.6378 148.135 64.2055 148.804 64.2517C149.278 64.2845 149.692 64.5853 149.87 65.0264C150.12 65.6476 150.818 65.9583 151.447 65.7287C151.894 65.5658 152.395 65.6722 152.737 66.0028Z" fill="#D8BAFF"/>
<path opacity="0.4" d="M10.9937 37.1932C11.4751 37.6589 12.2391 37.6589 12.7206 37.1932C13.0624 36.8626 13.563 36.7562 14.0097 36.9192C14.6389 37.1488 15.3368 36.838 15.5872 36.2168C15.765 35.7758 16.1791 35.4749 16.6535 35.4421C17.3217 35.396 17.8329 34.8282 17.809 34.1588C17.792 33.6836 18.0479 33.2404 18.4679 33.0175C19.0596 32.7035 19.2956 31.9769 19.0015 31.3752C18.7927 30.9479 18.8462 30.4389 19.1393 30.0645C19.5521 29.537 19.4722 28.7772 18.9588 28.3471C18.5943 28.0417 18.4361 27.555 18.5515 27.0936C18.7141 26.4439 18.3321 25.7822 17.6881 25.5981C17.2309 25.4674 16.8885 25.0871 16.8063 24.6187C16.6905 23.959 16.0724 23.51 15.4092 23.6037C14.9383 23.6703 14.4708 23.4621 14.2052 23.0677C13.8311 22.5121 13.0838 22.3532 12.5161 22.7086C12.113 22.9609 11.6012 22.9609 11.1982 22.7086C10.6304 22.3532 9.88316 22.5121 9.50905 23.0677C9.24345 23.4621 8.77593 23.6703 8.30507 23.6037C7.64187 23.51 7.0238 23.959 6.90801 24.6187C6.82581 25.0871 6.48337 25.4674 6.02615 25.5981C5.38216 25.7822 5.00017 26.4439 5.16273 27.0936C5.27813 27.555 5.11999 28.0417 4.75547 28.3471C4.24203 28.7772 4.16217 29.537 4.57496 30.0645C4.86803 30.4389 4.92152 30.9479 4.71272 31.3752C4.41862 31.9769 4.6547 32.7035 5.24635 33.0175C5.6664 33.2404 5.92228 33.6836 5.90531 34.1588C5.8814 34.8282 6.3926 35.396 7.0608 35.4421C7.53521 35.4749 7.94923 35.7758 8.12702 36.2168C8.37744 36.838 9.07536 37.1488 9.70458 36.9192C10.1513 36.7562 10.6519 36.8626 10.9937 37.1932Z" fill="#D8BAFF"/>
<path d="M66.1355 15.0734C75.2269 9.37823 86.7732 9.37823 95.8646 15.0734L105.431 21.0659L115.403 26.3541C124.881 31.3798 130.654 41.3792 130.268 52.1002L129.861 63.3808L130.268 74.6614C130.654 85.3824 124.881 95.3817 115.403 100.407L105.431 105.696L95.8646 111.688C86.7732 117.383 75.2269 117.383 66.1355 111.688L56.5696 105.696L46.5969 100.407C37.119 95.3817 31.3459 85.3824 31.7324 74.6614L32.1391 63.3808L31.7324 52.1002C31.3459 41.3792 37.119 31.3798 46.5969 26.3541L56.5696 21.0659L66.1355 15.0734Z" fill="#D8BAFF"/>
<path d="M81 48.4144C82.6108 48.4144 83.9167 49.7202 83.9167 51.3311V65.9144C83.9167 67.5252 82.6108 68.8311 81 68.8311C79.3892 68.8311 78.0833 67.5252 78.0833 65.9144V51.3311C78.0833 49.7202 79.3892 48.4144 81 48.4144Z" fill="#241E2A"/>
<path d="M81 77.5811C82.6108 77.5811 83.9167 76.2752 83.9167 74.6644C83.9167 73.0536 82.6108 71.7477 81 71.7477C79.3892 71.7477 78.0833 73.0536 78.0833 74.6644C78.0833 76.2752 79.3892 77.5811 81 77.5811Z" fill="#241E2A"/>
<path fill-rule="evenodd" clip-rule="evenodd" d="M51.8333 62.9977C51.8333 46.8894 64.8917 33.8311 81 33.8311C97.1083 33.8311 110.167 46.8894 110.167 62.9977C110.167 79.106 97.1083 92.1644 81 92.1644C64.8917 92.1644 51.8333 79.106 51.8333 62.9977ZM81 39.6644C68.1134 39.6644 57.6667 50.1111 57.6667 62.9977C57.6667 75.8844 68.1134 86.3311 81 86.3311C93.8867 86.3311 104.333 75.8844 104.333 62.9977C104.333 50.1111 93.8867 39.6644 81 39.6644Z" fill="#241E2A"/>
<path opacity="0.4" d="M94.9731 7.64884C95.2138 7.88167 95.5958 7.88167 95.8365 7.64884C96.0074 7.48354 96.2577 7.43034 96.4811 7.51184C96.7957 7.62663 97.1446 7.47126 97.2698 7.16065C97.3587 6.94012 97.5658 6.78972 97.803 6.77332C98.1371 6.75022 98.3927 6.46635 98.3807 6.13167C98.3722 5.89405 98.5002 5.67245 98.7102 5.56099C99.006 5.404 99.124 5.04071 98.977 4.73982C98.8726 4.5262 98.8993 4.27172 99.0459 4.08447C99.2523 3.82073 99.2123 3.44084 98.9556 3.22577C98.7734 3.07308 98.6943 2.82972 98.752 2.59906C98.8333 2.27418 98.6423 1.94337 98.3203 1.85131C98.0917 1.78596 97.9205 1.5958 97.8794 1.36161C97.8215 1.03175 97.5124 0.807228 97.1808 0.8541C96.9454 0.887378 96.7116 0.783301 96.5788 0.586077C96.3918 0.308285 96.0181 0.228865 95.7343 0.40656C95.5327 0.532718 95.2769 0.532718 95.0753 0.40656C94.7914 0.228865 94.4178 0.308285 94.2308 0.586077C94.098 0.783301 93.8642 0.887378 93.6288 0.8541C93.2972 0.807228 92.9881 1.03175 92.9302 1.36161C92.8891 1.5958 92.7179 1.78596 92.4893 1.85131C92.1673 1.94337 91.9763 2.27418 92.0576 2.59906C92.1153 2.82972 92.0362 3.07308 91.854 3.22577C91.5972 3.44084 91.5573 3.82073 91.7637 4.08447C91.9102 4.27172 91.937 4.5262 91.8326 4.73982C91.6855 5.04071 91.8036 5.404 92.0994 5.56099C92.3094 5.67245 92.4374 5.89405 92.4289 6.13167C92.4169 6.46635 92.6725 6.75022 93.0066 6.77332C93.2438 6.78972 93.4508 6.94012 93.5397 7.16065C93.6649 7.47126 94.0139 7.62663 94.3285 7.51184C94.5519 7.43034 94.8022 7.48354 94.9731 7.64884Z" fill="#D8BAFF"/>
<path opacity="0.4" d="M25.5835 114.582C25.9618 114.948 26.5621 114.948 26.9403 114.582C27.2089 114.322 27.6022 114.239 27.9532 114.367C28.4476 114.547 28.996 114.303 29.1927 113.815C29.3324 113.468 29.6577 113.232 30.0305 113.206C30.5555 113.17 30.9571 112.724 30.9384 112.198C30.925 111.825 31.1261 111.476 31.4561 111.301C31.921 111.055 32.1065 110.484 31.8754 110.011C31.7113 109.675 31.7534 109.275 31.9836 108.981C32.308 108.567 32.2452 107.97 31.8418 107.632C31.5554 107.392 31.4311 107.009 31.5218 106.647C31.6495 106.136 31.3494 105.616 30.8434 105.472C30.4842 105.369 30.2151 105.07 30.1505 104.702C30.0595 104.184 29.5739 103.831 29.0528 103.905C28.6829 103.957 28.3155 103.793 28.1068 103.483C27.8129 103.047 27.2258 102.922 26.7797 103.201C26.463 103.4 26.0609 103.4 25.7442 103.201C25.2981 102.922 24.7109 103.047 24.417 103.483C24.2083 103.793 23.841 103.957 23.471 103.905C22.9499 103.831 22.4643 104.184 22.3733 104.702C22.3087 105.07 22.0397 105.369 21.6804 105.472C21.1744 105.616 20.8743 106.136 21.002 106.647C21.0927 107.009 20.9685 107.392 20.682 107.632C20.2786 107.97 20.2159 108.567 20.5402 108.981C20.7705 109.275 20.8125 109.675 20.6485 110.011C20.4174 110.484 20.6029 111.055 21.0677 111.301C21.3978 111.476 21.5988 111.825 21.5855 112.198C21.5667 112.724 21.9684 113.17 22.4934 113.206C22.8661 113.232 23.1914 113.468 23.3311 113.815C23.5279 114.303 24.0762 114.547 24.5706 114.367C24.9216 114.239 25.315 114.322 25.5835 114.582Z" fill="#D8BAFF"/>
<path opacity="0.4" d="M3.93499 74.4867C4.17571 74.7196 4.5577 74.7196 4.79842 74.4867C4.96933 74.3214 5.21962 74.2682 5.44298 74.3497C5.75759 74.4645 6.10655 74.3091 6.23176 73.9985C6.32066 73.778 6.52767 73.6276 6.76487 73.6112C7.09897 73.5881 7.35457 73.3042 7.34262 72.9696C7.33413 72.7319 7.46207 72.5103 7.6721 72.3989C7.96792 72.2419 8.08596 71.8786 7.93891 71.5777C7.83451 71.3641 7.86126 71.1096 8.00779 70.9224C8.21419 70.6586 8.17426 70.2787 7.91754 70.0637C7.73528 69.911 7.65621 69.6676 7.71391 69.437C7.79519 69.1121 7.6042 68.7813 7.2822 68.6892C7.05359 68.6238 6.88237 68.4337 6.84127 68.1995C6.78337 67.8696 6.47434 67.6451 6.14274 67.692C5.90731 67.7253 5.67355 67.6212 5.54075 67.424C5.3537 67.1462 4.98006 67.0668 4.69619 67.2445C4.49465 67.3706 4.23877 67.3706 4.03723 67.2445C3.75336 67.0668 3.37972 67.1462 3.19267 67.424C3.05987 67.6212 2.8261 67.7253 2.59068 67.692C2.25907 67.6451 1.95004 67.8696 1.89215 68.1995C1.85105 68.4337 1.67983 68.6238 1.45122 68.6892C1.12922 68.7813 0.938226 69.1121 1.0195 69.437C1.07721 69.6676 0.998136 69.911 0.815873 70.0637C0.559155 70.2787 0.519227 70.6586 0.725621 70.9224C0.872154 71.1096 0.898901 71.3641 0.794501 71.5777C0.647452 71.8786 0.765492 72.2419 1.06131 72.3989C1.27134 72.5103 1.39928 72.7319 1.39079 72.9696C1.37884 73.3042 1.63444 73.5881 1.96854 73.6112C2.20574 73.6276 2.41276 73.778 2.50165 73.9985C2.62686 74.3091 2.97582 74.4645 3.29043 74.3497C3.5138 74.2682 3.76409 74.3214 3.93499 74.4867Z" fill="#D8BAFF"/>
<path opacity="0.4" d="M130.697 109.059C130.938 109.292 131.32 109.292 131.56 109.059C131.731 108.894 131.982 108.84 132.205 108.922C132.519 109.037 132.868 108.881 132.994 108.571C133.083 108.35 133.29 108.2 133.527 108.183C133.861 108.16 134.116 107.877 134.105 107.542C134.096 107.304 134.224 107.083 134.434 106.971C134.73 106.814 134.848 106.451 134.701 106.15C134.596 105.936 134.623 105.682 134.77 105.495C134.976 105.231 134.936 104.851 134.679 104.636C134.497 104.483 134.418 104.24 134.476 104.009C134.557 103.684 134.366 103.354 134.044 103.261C133.815 103.196 133.644 103.006 133.603 102.772C133.545 102.442 133.236 102.217 132.905 102.264C132.669 102.298 132.435 102.193 132.303 101.996C132.116 101.718 131.742 101.639 131.458 101.817C131.257 101.943 131.001 101.943 130.799 101.817C130.515 101.639 130.142 101.718 129.955 101.996C129.822 102.193 129.588 102.298 129.353 102.264C129.021 102.217 128.712 102.442 128.654 102.772C128.613 103.006 128.442 103.196 128.213 103.261C127.891 103.354 127.7 103.684 127.781 104.009C127.839 104.24 127.76 104.483 127.578 104.636C127.321 104.851 127.281 105.231 127.488 105.495C127.634 105.682 127.661 105.936 127.556 106.15C127.409 106.451 127.527 106.814 127.823 106.971C128.033 107.083 128.161 107.304 128.153 107.542C128.141 107.877 128.396 108.16 128.73 108.183C128.968 108.2 129.175 108.35 129.264 108.571C129.389 108.881 129.738 109.037 130.052 108.922C130.276 108.84 130.526 108.894 130.697 109.059Z" fill="#D8BAFF"/>
</svg>
