<svg width="243" height="220" viewBox="0 0 243 220" fill="none" xmlns="http://www.w3.org/2000/svg">
<path d="M138.908 102.902C136.061 103.948 129.285 103.405 129.28 103.405C129.275 103.405 131.006 99.049 131.151 98.7874C132.826 95.7693 137.847 90.9051 141.644 91.6546C144.386 92.1928 145.754 95.05 144.974 97.6103C144.195 100.171 141.333 102.012 138.908 102.902Z" fill="#D8BAFF"/>
<path d="M51.4127 74.4463C55.2809 74.2652 59.5314 79.8085 60.7488 83.0429C60.8494 83.3246 61.9912 87.8921 61.9208 87.887H61.8353C62.5144 88.7573 63.2337 89.6979 63.9932 90.7442C65.3866 92.6808 66.9409 94.884 68.4701 97.3941C70.1521 100.08 71.6739 102.863 73.0275 105.729C74.5619 108.928 75.8076 112.258 76.7498 115.679L76.78 115.805C76.8253 114.673 77.0667 111.509 77.112 111.277C77.7659 107.882 81.0154 101.72 84.8585 101.217C87.6302 100.875 89.8183 103.159 89.8887 105.835C89.9591 108.511 87.8112 111.172 85.7841 112.776C83.5004 114.582 77.3635 116.091 76.8756 116.212C77.7495 119.717 78.3881 123.276 78.7871 126.866C79.0335 128.959 79.2146 131.071 79.3655 133.194C79.441 132.188 79.5114 131.338 79.5366 131.217C80.1855 127.822 83.44 121.66 87.2831 121.157C90.0547 120.815 92.2428 123.103 92.3133 125.78C92.3837 128.456 90.2358 131.112 88.2137 132.716C86.1915 134.321 80.9551 135.734 79.5718 136.086C79.6221 136.901 79.6824 137.711 79.7277 138.526C79.9591 142.435 80.1704 146.338 80.4973 150.156C80.613 151.499 80.774 152.822 80.9299 154.145C80.9953 153.275 81.0607 152.545 81.0808 152.435C81.7297 149.039 84.9843 142.877 88.8273 142.374C91.594 142.032 93.7871 144.316 93.8575 146.992C93.928 149.668 91.7801 152.329 89.7529 153.934C87.7257 155.538 83.0024 156.816 81.3625 157.238C81.5637 158.587 81.7649 159.94 82.0215 161.237C82.2126 162.123 82.3434 162.983 82.5849 163.863C82.8263 164.743 83.0326 165.599 83.2539 166.454C83.7569 168.084 84.2297 169.769 84.7378 171.348C85.0899 172.45 85.442 173.491 85.7941 174.542C85.6633 173.204 85.4672 170.579 85.4722 170.357C85.6997 167.324 86.6988 164.399 88.3746 161.861C88.3864 161.523 88.4285 161.186 88.5004 160.855C89.0839 158.239 91.6795 156.429 94.3304 157.309C98.0075 158.531 99.9793 165.231 99.9491 168.687C99.9491 168.893 99.6775 171.102 99.4863 172.495C99.7278 171.695 99.9441 170.916 100.201 170.091C100.704 168.461 101.207 166.851 101.8 165.116L102.731 162.601C103.023 161.756 103.435 160.905 103.792 160.045C104.652 158.068 105.618 156.107 106.639 154.155C105.211 153.722 100.175 152.108 98.2137 150.407C96.2519 148.707 94.2499 146.016 94.431 143.29C94.6121 140.563 96.9058 138.436 99.6574 138.903C103.475 139.552 106.443 145.875 106.936 149.296C106.966 149.512 107.042 152.007 107.062 153.38C107.681 152.208 108.294 151.041 108.963 149.859C110.89 146.499 112.942 143.164 114.999 139.824C115.623 138.818 116.232 137.777 116.846 136.755C116.343 136.605 110.306 134.819 108.113 132.912C106.161 131.217 104.144 128.521 104.33 125.795C104.517 123.068 106.8 120.94 109.552 121.408C113.37 122.057 116.338 128.38 116.83 131.801C116.871 132.062 116.976 135.654 116.956 136.564C118.309 134.311 119.632 132.037 120.85 129.763C122.509 126.689 123.966 123.51 125.211 120.246C124.974 120.176 118.672 118.34 116.423 116.388C114.471 114.698 112.459 111.997 112.64 109.27C112.821 106.544 115.115 104.416 117.867 104.884C121.685 105.533 124.647 111.856 125.145 115.282C125.181 115.548 125.296 119.411 125.266 120.116C125.337 119.924 125.432 119.738 125.503 119.547C126.66 116.24 127.522 112.836 128.078 109.376C128.41 107.47 128.616 105.629 128.782 103.843C127.575 103.621 122.062 102.545 119.844 101.011C117.716 99.542 115.417 97.0822 115.316 94.3508C115.216 91.6194 117.243 89.2552 120.025 89.4162C123.893 89.6426 127.535 95.6034 128.4 98.9736C128.45 99.1547 128.722 101.056 128.903 102.449C128.963 101.635 129.044 100.8 129.089 100.02C129.26 97.0973 129.235 94.4112 129.195 92.0269C129.159 90.6738 129.104 89.4514 129.039 88.3096C127.967 87.4695 123.687 84.044 122.444 81.7099C121.202 79.3759 120.331 76.1767 121.483 73.7018C122.635 71.227 125.543 70.07 127.937 71.4936C131.267 73.5057 131.755 80.4474 130.98 83.8176C130.91 84.1093 129.346 88.541 129.285 88.5007L129.22 88.4504C129.305 89.547 129.386 90.7291 129.446 92.0219C129.537 94.4062 129.622 97.0973 129.512 100.035C129.43 103.203 129.165 106.364 128.717 109.502C128.229 113.018 127.43 116.484 126.327 119.859C126.315 119.899 126.3 119.937 126.282 119.975C126.946 119.059 128.898 116.549 129.069 116.373C131.483 113.903 137.62 110.538 141.071 112.263C143.586 113.511 144.139 116.625 142.706 118.888C141.272 121.152 138.033 122.193 135.457 122.409C132.555 122.656 126.604 120.533 126.131 120.362C124.905 123.772 123.451 127.096 121.78 130.312C120.835 132.188 119.818 134.049 118.762 135.905C119.361 135.131 119.909 134.442 119.994 134.351C122.409 131.876 128.546 128.516 131.997 130.241C134.512 131.484 135.06 134.597 133.636 136.866C132.213 139.135 128.958 140.171 126.383 140.387C123.807 140.604 118.661 138.903 117.328 138.43C116.921 139.14 116.524 139.849 116.111 140.558C114.149 143.944 112.173 147.314 110.336 150.679C109.693 151.861 109.099 153.053 108.495 154.245C109.034 153.556 109.501 152.983 109.567 152.897C111.981 150.428 118.118 147.062 121.574 148.788C124.089 150.035 124.637 153.149 123.209 155.412C121.78 157.676 118.531 158.717 115.96 158.934C113.445 159.145 108.737 157.611 107.132 157.062C106.559 158.3 105.98 159.537 105.477 160.76C105.15 161.605 104.778 162.394 104.501 163.275C104.225 164.155 103.918 164.97 103.631 165.79C103.128 167.42 102.625 169.095 102.167 170.694C101.851 171.806 101.569 172.872 101.282 173.944C101.911 172.752 103.199 170.453 103.324 170.277C105.336 167.465 110.87 163.234 114.572 164.391C117.228 165.246 118.259 168.234 117.188 170.689C116.116 173.144 113.068 174.668 110.558 175.272C107.791 175.936 101.825 174.819 101.081 174.673C100.613 176.449 100.175 178.194 99.7882 179.814C99.7026 180.166 99.6322 180.483 99.5517 180.82H97.1322C97.263 180.317 97.3938 179.784 97.5346 179.251C98.0024 177.445 98.5407 175.528 99.1091 173.566C97.3451 172.729 95.6304 171.792 93.9732 170.76C91.8656 172.772 86.6442 174.985 85.9702 175.287C86.5587 177.022 87.1473 178.707 87.7257 180.287L87.932 180.84H85.5124C84.9289 179.135 84.3454 177.319 83.7619 175.443C83.0225 175.548 77.0013 176.398 74.2649 175.609C71.785 174.889 68.8222 173.28 67.8464 170.724C66.8705 168.169 68.0627 165.282 70.7538 164.557C74.4913 163.551 79.8333 168.043 81.7197 170.946C81.8303 171.117 82.8263 173.109 83.435 174.376C83.1885 173.577 82.9319 172.802 82.7006 171.977C82.1975 170.347 81.775 168.707 81.2971 166.947C81.0909 166.087 80.8897 165.216 80.6834 164.341C80.4772 163.466 80.3364 162.535 80.1553 161.62C79.783 159.497 79.5114 157.329 79.28 155.141C77.8565 155.563 72.7408 156.997 70.1904 156.65C67.6401 156.303 64.461 155.176 63.1079 152.797C61.7548 150.417 62.4942 147.384 65.0446 146.257C68.5657 144.693 74.5516 148.33 76.8504 150.915C76.9963 151.076 78.4349 153.114 79.2046 154.25C79.0788 152.933 78.948 151.615 78.8625 150.277C78.616 146.418 78.4903 142.5 78.3595 138.591C78.3192 137.394 78.2589 136.202 78.2086 135.01C77.7056 135.166 71.6693 137.022 68.8021 136.625C66.2417 136.293 63.0727 135.151 61.7196 132.772C60.3665 130.392 61.1059 127.359 63.6562 126.232C67.2025 124.668 73.1633 128.305 75.4621 130.89C75.6382 131.086 77.7056 134.019 78.1985 134.794C78.0778 132.163 77.937 129.547 77.6955 126.972C77.3842 123.493 76.8448 120.038 76.0808 116.63C75.8494 116.705 69.5768 118.642 66.624 118.259C64.0637 117.922 60.8946 116.786 59.5465 114.406C58.1984 112.027 58.9278 108.994 61.4832 107.867C65.0043 106.303 70.9852 109.939 73.2891 112.525C73.4651 112.726 75.6935 115.885 76.0557 116.489C76.0104 116.293 75.9852 116.081 75.9349 115.885C75.0794 112.487 73.9212 109.172 72.4742 105.981C71.6995 104.21 70.8595 102.555 70.0043 100.95C68.8725 101.453 63.6814 103.581 60.9902 103.526C58.4047 103.471 55.13 102.686 53.5254 100.473C51.9208 98.2593 52.3232 95.1607 54.7326 93.7623C58.0827 91.8156 64.4107 94.7683 66.9812 97.0923C67.117 97.218 68.3997 98.6567 69.3152 99.713C68.9178 99.0038 68.5204 98.2643 68.1281 97.5903C66.6592 95.0752 65.1552 92.8267 63.8121 90.8649C63.0375 89.7532 62.3031 88.7673 61.624 87.8468C60.2709 87.7411 54.8131 87.2432 52.4841 85.9806C50.1552 84.718 47.6753 82.5349 47.2678 79.8337C46.8604 77.1324 48.626 74.562 51.4127 74.4463Z" fill="#D8BAFF"/>
<path d="M70.1855 100.256C70.1251 100.291 69.2247 95.6737 69.1794 95.3769C68.9078 91.9262 70.4169 85.1052 73.9984 83.6364C76.5789 82.575 79.2952 84.1998 80.0346 86.7652C80.7741 89.3306 79.4411 92.4644 77.9119 94.5419C76.1513 96.9865 70.1905 100.251 70.1855 100.256Z" fill="#D8BAFF"/>
<path d="M68.0427 172.41C68.0427 172.41 52.7911 172.218 49.2247 166.514H9.3855C9.3855 166.514 12.6249 172.359 17.6552 172.41H68.0427Z" fill="white" stroke="#263238" stroke-miterlimit="10"/>
<path d="M48.0677 168.395H15.6128C15.6128 168.395 16.2165 169.713 14.5615 170.438C15.6048 171.402 16.9141 172.029 18.3191 172.238H59.6372C59.6372 172.238 54.3756 171.735 51.5235 170.075C51.5235 170.075 48.2186 170.558 48.0677 168.395Z" fill="white" stroke="#263238" stroke-miterlimit="10"/>
<path d="M62.0266 218.008H153.586V206.68H62.0266V218.008Z" fill="#263238" stroke="#263238" stroke-miterlimit="10"/>
<path d="M11.639 218.008H103.199V206.68H11.639V218.008Z" fill="white" stroke="#263238" stroke-miterlimit="10"/>
<path d="M102.565 209.703H80.2056" stroke="#263238" stroke-miterlimit="10"/>
<path d="M98.1534 212.223H65.7187" stroke="#263238" stroke-miterlimit="10"/>
<path d="M85.241 214.487H90.91" stroke="#263238" stroke-miterlimit="10"/>
<path d="M93.1182 214.487H102.248" stroke="#263238" stroke-miterlimit="10"/>
<path d="M12.1771 213.984H40.8342" stroke="#263238" stroke-miterlimit="10"/>
<path d="M14.6973 212.475H18.4749" stroke="#263238" stroke-miterlimit="10"/>
<path d="M36.1109 212.223H23.5153" stroke="#263238" stroke-miterlimit="10"/>
<path d="M12.1771 209.2H23.1983" stroke="#263238" stroke-miterlimit="10"/>
<path d="M152.324 211.464H146.655" stroke="#8A8A8A" stroke-miterlimit="10"/>
<path d="M153.586 213.984H135.95" stroke="#8A8A8A" stroke-miterlimit="10"/>
<path d="M104.139 215.493H112.645" stroke="#8A8A8A" stroke-miterlimit="10"/>
<path d="M103.194 211.464H126.187" stroke="#8A8A8A" stroke-miterlimit="10"/>
<path d="M146.026 208.194H132.801" stroke="#8A8A8A" stroke-miterlimit="10"/>
<path d="M53.4299 217.757H64.1392V206.68H53.4299V217.757Z" fill="white" stroke="#263238" stroke-miterlimit="10"/>
<path d="M60.8495 206.59H152.409V195.262H60.8495V206.59Z" fill="#263238" stroke="#263238" stroke-miterlimit="10"/>
<path d="M10.4619 206.59H102.022V195.262H10.4619V206.59Z" fill="white" stroke="#263238" stroke-miterlimit="10"/>
<path d="M101.388 198.28H79.0286" stroke="#263238" stroke-miterlimit="10"/>
<path d="M96.9815 200.795H64.5417" stroke="#263238" stroke-miterlimit="10"/>
<path d="M84.0687 203.064H89.7378" stroke="#263238" stroke-miterlimit="10"/>
<path d="M91.9411 203.064H101.076" stroke="#263238" stroke-miterlimit="10"/>
<path d="M11.0001 202.561H39.6622" stroke="#263238" stroke-miterlimit="10"/>
<path d="M13.5203 201.046H17.2979" stroke="#263238" stroke-miterlimit="10"/>
<path d="M34.9389 200.795H22.3383" stroke="#263238" stroke-miterlimit="10"/>
<path d="M11.0001 197.777H22.0263" stroke="#263238" stroke-miterlimit="10"/>
<path d="M151.152 200.04H145.483" stroke="#8A8A8A" stroke-miterlimit="10"/>
<path d="M152.409 202.561H134.773" stroke="#8A8A8A" stroke-miterlimit="10"/>
<path d="M102.967 204.07H111.468" stroke="#8A8A8A" stroke-miterlimit="10"/>
<path d="M102.022 200.04H125.01" stroke="#8A8A8A" stroke-miterlimit="10"/>
<path d="M144.854 196.771H131.624" stroke="#8A8A8A" stroke-miterlimit="10"/>
<path d="M52.2579 206.338H62.9672V195.262H52.2579V206.338Z" fill="white" stroke="#263238" stroke-miterlimit="10"/>
<path d="M64.5719 195.166H156.132V183.838H64.5719V195.166Z" fill="#263238" stroke="#263238" stroke-miterlimit="10"/>
<path d="M14.1843 195.166H105.744V183.838H14.1843V195.166Z" fill="white" stroke="#263238" stroke-miterlimit="10"/>
<path d="M105.11 186.856H82.7509" stroke="#263238" stroke-miterlimit="10"/>
<path d="M100.699 189.371H68.264" stroke="#263238" stroke-miterlimit="10"/>
<path d="M87.7863 191.64H93.4553" stroke="#263238" stroke-miterlimit="10"/>
<path d="M95.6635 191.64H104.793" stroke="#263238" stroke-miterlimit="10"/>
<path d="M14.7224 191.137H43.3795" stroke="#263238" stroke-miterlimit="10"/>
<path d="M17.2426 189.623H21.0202" stroke="#263238" stroke-miterlimit="10"/>
<path d="M38.6562 189.371H26.0606" stroke="#263238" stroke-miterlimit="10"/>
<path d="M14.7224 186.353H25.7436" stroke="#263238" stroke-miterlimit="10"/>
<path d="M154.869 188.617H149.2" stroke="#8A8A8A" stroke-miterlimit="10"/>
<path d="M156.131 191.137H138.496" stroke="#8A8A8A" stroke-miterlimit="10"/>
<path d="M106.685 192.646H115.191" stroke="#8A8A8A" stroke-miterlimit="10"/>
<path d="M105.739 188.617H128.732" stroke="#8A8A8A" stroke-miterlimit="10"/>
<path d="M148.571 185.347H135.347" stroke="#8A8A8A" stroke-miterlimit="10"/>
<path d="M55.9752 194.915H66.6844V183.838H55.9752V194.915Z" fill="white" stroke="#263238" stroke-miterlimit="10"/>
<path d="M61.7297 183.737H153.289V172.409H61.7297V183.737Z" fill="#263238" stroke="#263238" stroke-miterlimit="10"/>
<path d="M11.3421 183.737H102.902V172.409H11.3421V183.737Z" fill="white" stroke="#263238" stroke-miterlimit="10"/>
<path d="M102.273 175.433H79.9088" stroke="#263238" stroke-miterlimit="10"/>
<path d="M97.8617 177.948H65.4219" stroke="#263238" stroke-miterlimit="10"/>
<path d="M84.9492 180.211H90.6182" stroke="#263238" stroke-miterlimit="10"/>
<path d="M92.8213 180.211H101.956" stroke="#263238" stroke-miterlimit="10"/>
<path d="M11.8804 179.708H40.5425" stroke="#263238" stroke-miterlimit="10"/>
<path d="M14.4006 178.199H18.1833" stroke="#263238" stroke-miterlimit="10"/>
<path d="M35.8192 177.948H23.2186" stroke="#263238" stroke-miterlimit="10"/>
<path d="M11.8804 174.93H22.9066" stroke="#263238" stroke-miterlimit="10"/>
<path d="M152.032 177.193H146.363" stroke="#8A8A8A" stroke-miterlimit="10"/>
<path d="M153.289 179.708H135.654" stroke="#8A8A8A" stroke-miterlimit="10"/>
<path d="M103.848 181.222H112.349" stroke="#8A8A8A" stroke-miterlimit="10"/>
<path d="M102.902 177.193H125.89" stroke="#8A8A8A" stroke-miterlimit="10"/>
<path d="M145.734 173.918H132.505" stroke="#8A8A8A" stroke-miterlimit="10"/>
<path d="M53.1382 183.486H63.8475V172.409H53.1382V183.486Z" fill="white" stroke="#263238" stroke-miterlimit="10"/>
<path d="M226.167 44.6926H138.521V218.013H226.167V44.6926Z" fill="#263238" stroke="#263238" stroke-miterlimit="10"/>
<path d="M216.69 45.4824V75.4876" stroke="#8A8A8A" stroke-miterlimit="10"/>
<path d="M222.218 52.9825V65.6184" stroke="#8A8A8A" stroke-miterlimit="10"/>
<path d="M219.457 50.2208V95.226" stroke="#8A8A8A" stroke-miterlimit="10"/>
<path d="M224.195 44.6926V103.521" stroke="#8A8A8A" stroke-miterlimit="10"/>
<path d="M217.48 217.616V186.821" stroke="#8A8A8A" stroke-miterlimit="10"/>
<path d="M220.639 218.013V211.298" stroke="#8A8A8A" stroke-miterlimit="10"/>
<path d="M221.429 208.929V181.69" stroke="#8A8A8A" stroke-miterlimit="10"/>
<path d="M217.877 182.872V138.26" stroke="#8A8A8A" stroke-miterlimit="10"/>
<path d="M213.929 44.6926H126.282V218.013H213.929V44.6926Z" fill="#D8BAFF" stroke="#263238" stroke-miterlimit="10"/>
<path d="M206.429 56.9564C204.716 56.9524 203.069 56.2931 201.827 55.1135C200.585 53.934 199.841 52.3238 199.749 50.6133H140.473C140.383 52.3264 139.638 53.9395 138.393 55.1197C137.148 56.3 135.498 56.9575 133.783 56.9564C133.386 56.9554 132.99 56.9184 132.6 56.8457V202.329C132.991 202.259 133.386 202.222 133.783 202.219C134.941 202.218 136.081 202.519 137.089 203.09C138.098 203.661 138.941 204.483 139.537 205.477C140.133 206.471 140.462 207.602 140.491 208.76C140.52 209.919 140.249 211.065 139.703 212.088H200.508C199.961 211.066 199.688 209.919 199.717 208.76C199.745 207.601 200.074 206.469 200.67 205.474C201.267 204.48 202.111 203.658 203.12 203.087C204.129 202.516 205.269 202.217 206.429 202.219C206.825 202.222 207.221 202.259 207.611 202.329V56.8205C207.222 56.9016 206.826 56.9471 206.429 56.9564ZM168.33 157.606C154.482 157.606 143.259 145.412 143.259 130.367C143.259 115.322 154.482 103.124 168.33 103.124C182.178 103.124 193.401 115.322 193.401 130.367C193.401 145.412 182.173 157.606 168.33 157.606Z" fill="white" stroke="#263238" stroke-miterlimit="10"/>
<path d="M226.006 120.89H126.675V138.657H226.006V120.89Z" fill="white" stroke="#263238" stroke-miterlimit="10"/>
<path d="M226.006 120.89H214.12V138.657H226.006V120.89Z" fill="#3D3D3D" stroke="#8A8A8A" stroke-miterlimit="10"/>
<path d="M30.5726 207.234L27.6451 211.625L21.9257 216.152V218.018H41.4882L40.8192 211.479V208.552C40.8192 208.552 32.8362 205.101 30.5726 207.234Z" fill="#263238" stroke="#263238" stroke-miterlimit="10"/>
<path d="M41.3121 216.283H21.9257V218.013H41.4882L41.3121 216.283Z" fill="white" stroke="#263238" stroke-miterlimit="10"/>
<path d="M62.8766 207.234L65.9954 211.625L72.097 216.152V218.018H51.2468L51.9561 211.479V208.552C51.9561 208.552 60.4672 205.101 62.8766 207.234Z" fill="#263238" stroke="#263238" stroke-miterlimit="10"/>
<path d="M51.4329 216.283H72.097V218.013H51.2468L51.4329 216.283Z" fill="white" stroke="#263238" stroke-miterlimit="10"/>
<path d="M21.8452 116.152C21.8452 116.152 26.4126 167.701 26.7396 177.49C27.0666 187.279 30.1652 200.493 30.1652 200.493L28.7215 202.777L30.1903 207.832C30.1903 207.832 33.6159 207.017 35.4117 207.671C37.2075 208.325 40.4419 209.14 40.4419 209.14C40.4419 209.14 42.0767 204.733 42.2377 202.777C42.3986 200.82 40.291 196.087 40.291 196.087L39.964 137.198H42.9016L50.3966 199.512L50.0697 203.265L51.5385 209.14C51.5385 209.14 60.1854 207.344 60.8343 207.178C61.33 207.103 61.8366 207.161 62.3031 207.344C62.3031 207.344 63.3092 205.221 63.3092 204.567C63.3092 203.914 62.0013 200.166 62.0013 200.166L61.6743 170.966V115.664L21.8704 114.849L21.8452 116.152Z" fill="#D8BAFF" stroke="#263238" stroke-miterlimit="10"/>
<path d="M60.271 138.918L61.1614 158.421L57.3636 158.763V161.182L60.1252 161.353" stroke="#263238" stroke-linecap="round" stroke-linejoin="round"/>
<path d="M59.6069 124.411L60.1853 137.007" stroke="#263238" stroke-linecap="round" stroke-linejoin="round"/>
<path d="M57.947 172.757C58.0728 176.243 58.3494 179.266 58.9179 179.477C60.3012 179.98 60.6432 180.513 60.6432 180.513" stroke="#263238" stroke-linecap="round" stroke-linejoin="round"/>
<path d="M57.8966 161.871C57.8966 161.871 57.806 166.278 57.8966 170.684" stroke="#263238" stroke-linecap="round" stroke-linejoin="round"/>
<path d="M35.9601 135.458L42.8615 135.976" stroke="#263238" stroke-linecap="round" stroke-linejoin="round"/>
<path d="M38.2034 118.888L38.3744 128.551L41.4831 130.8" stroke="#263238" stroke-linecap="round" stroke-linejoin="round"/>
<path d="M41.4833 122.339L42.0014 134.25" stroke="#263238" stroke-linecap="round" stroke-linejoin="round"/>
<path d="M39.3504 177.586L39.5818 189.492" stroke="#263238" stroke-linecap="round" stroke-linejoin="round"/>
<path d="M38.5456 136.147L39.2951 174.643" stroke="#263238" stroke-linecap="round" stroke-linejoin="round"/>
<path d="M52.5295 123.893C52.5295 123.893 54.949 128.898 59.4359 127.344" stroke="#263238" stroke-linecap="round" stroke-linejoin="round"/>
<path d="M28.3644 123.893C28.3644 123.893 26.634 127.691 23.8724 128.209" stroke="#263238" stroke-linecap="round" stroke-linejoin="round"/>
<path d="M38.6159 58.6313L33.4297 60.2008L29.0836 115.935L52.0063 116.303L53.2135 58.9935L38.6159 58.6313Z" fill="white" stroke="#263238" stroke-miterlimit="10"/>
<path d="M36.7699 56.4532H35.5526L34.9389 58.0427L35.1854 71.4985L42.7709 66.6091L50.2307 73.7017L51.2116 57.6755C51.2116 57.6755 51.5788 56.9411 50.4772 56.4532C49.3756 55.9652 49.0084 55.8395 49.0084 55.8395L36.7699 56.4532Z" fill="white" stroke="#263238" stroke-miterlimit="10"/>
<path d="M36.0405 52.5297L36.4077 58.0629C36.4077 58.0629 39.9288 65.7692 42.2779 66.8708C44.627 67.9724 49.9892 57.6957 49.9892 57.6957L49.622 51.579H35.9147L36.0405 52.5297Z" fill="white" stroke="#263238" stroke-miterlimit="10"/>
<path d="M36.0404 52.5297C36.0404 52.5297 40.4418 62.0871 43.0123 62.4442C45.5827 62.8014 49.7427 53.6313 49.7427 52.7762C49.7427 51.921 36.0404 52.5297 36.0404 52.5297Z" fill="#263238" stroke="#263238" stroke-miterlimit="10"/>
<path d="M33.7166 44.3405C33.7166 44.3405 31.5938 42.6001 31.3021 45.0146C31.0103 47.4291 34.1039 49.6524 34.1039 49.6524L33.7166 44.3405Z" fill="white" stroke="#263238" stroke-miterlimit="10"/>
<path d="M50.9702 44.3405C50.9702 44.3405 53.098 42.6001 53.3897 45.0146C53.6815 47.4291 50.5879 49.6524 50.5879 49.6524L50.9702 44.3405Z" fill="white" stroke="#263238" stroke-miterlimit="10"/>
<path d="M33.3293 44.6273C33.3293 44.6273 34.4912 51.3929 35.457 52.6455C36.4228 53.898 39.4158 58.2491 42.2176 59.0238C45.0194 59.7984 49.3706 54.3859 50.2358 52.5499C51.101 50.7139 51.3977 42.6002 51.3977 42.6002L51.3022 38.2541C51.3022 38.2541 51.0104 35.0649 49.7529 33.3245C48.4953 31.584 43.0878 30.4271 39.5164 31.8053C35.945 33.1836 32.947 39.411 32.947 40.6686C32.947 41.9261 33.3293 44.6273 33.3293 44.6273Z" fill="white" stroke="#263238" stroke-miterlimit="10"/>
<path d="M39.7076 37.0921C39.7076 37.0921 36.6894 40.573 35.3615 41.247C34.758 41.5251 34.1763 41.8479 33.621 42.2128L33.8122 46.2722L32.2679 40.739C32.2679 40.739 30.3363 34.8687 30.7337 32.2631C31.1311 29.6574 39.9088 27.1423 43.0023 26.1765C46.0959 25.2107 47.2529 27.1423 49.28 28.6916C51.3072 30.2409 53.435 31.3979 53.1483 34.0086C52.8985 35.8245 52.4446 37.6064 51.7951 39.3205C51.7951 39.3205 51.2921 46.564 51.2921 46.8658C51.2921 47.1676 50.4219 39.7178 50.4219 39.7178C49.9286 39.5881 49.4835 39.318 49.1406 38.9404C48.7977 38.5627 48.5718 38.0936 48.4903 37.5901C48.2335 36.3155 48.0654 35.0247 47.9873 33.7269C47.9873 33.7269 46.7297 36.3376 45.4722 37.5901C44.2146 38.8426 41.1261 40.0046 40.6432 39.909C40.1603 39.8134 41.1462 37.4945 41.1462 37.4945L39.4057 39.1394L39.7076 37.0921Z" fill="#263238" stroke="#263238" stroke-miterlimit="10"/>
<path d="M40.4822 50.6182C40.9607 51.0439 41.5178 51.372 42.1221 51.584C42.8967 51.7751 44.2499 50.6182 44.6372 50.3264" stroke="#263238" stroke-miterlimit="10"/>
<path d="M40.1904 53.3245C40.1904 53.3245 42.4138 55.0599 45.4067 53.0327L40.1904 53.3245Z" fill="white"/>
<path d="M40.1904 53.3245C40.1904 53.3245 42.4138 55.0599 45.4067 53.0327" stroke="#263238" stroke-miterlimit="10"/>
<path d="M38.6914 47.1374C39.0387 47.1374 39.3202 46.6622 39.3202 46.076C39.3202 45.4898 39.0387 45.0146 38.6914 45.0146C38.3441 45.0146 38.0626 45.4898 38.0626 46.076C38.0626 46.6622 38.3441 47.1374 38.6914 47.1374Z" fill="#263238"/>
<path d="M46.0355 47.1374C46.3828 47.1374 46.6643 46.6622 46.6643 46.076C46.6643 45.4898 46.3828 45.0146 46.0355 45.0146C45.6883 45.0146 45.4067 45.4898 45.4067 46.076C45.4067 46.6622 45.6883 47.1374 46.0355 47.1374Z" fill="#263238"/>
<path d="M44.5365 42.6957C45.1593 42.3694 45.8697 42.2496 46.565 42.3536C47.2604 42.4576 47.9046 42.78 48.4047 43.2741" stroke="#263238" stroke-miterlimit="10"/>
<path d="M39.4156 42.6C38.9235 42.3085 38.3446 42.1992 37.7801 42.2911C37.2156 42.3831 36.7013 42.6704 36.3271 43.103" stroke="#263238" stroke-miterlimit="10"/>
<path d="M46.277 47.912L48.4048 47.4291" stroke="#263238" stroke-miterlimit="10"/>
<path d="M36.5184 47.3335L38.2588 47.912" stroke="#263238" stroke-miterlimit="10"/>
<path d="M35.0595 70.5378L33.9579 123.355L21.3824 122.746L20.6228 121.292C20.6228 121.292 18.9126 121.292 18.6661 119.944C18.4196 118.596 20.3764 88.9936 20.3764 88.9936L9.60669 88.0127L16.825 73.9281C16.825 73.9281 19.0283 64.1394 19.5162 63.4049C20.0041 62.6705 35.301 57.4089 35.301 57.4089L35.0595 70.5378Z" fill="#263238" stroke="#263238" stroke-miterlimit="10"/>
<path d="M50.7236 57.0972L48.9279 123.496L65.0748 123.33L65.7287 120.885L67.3585 119.743V114.522C67.3585 111.911 64.2599 92.9877 64.2599 92.9877C64.2599 92.9877 72.4189 91.8458 72.5799 90.216C72.7408 88.5862 69.1543 63.9533 67.1976 62.1576C65.2408 60.3618 50.7236 57.0972 50.7236 57.0972Z" fill="#263238" stroke="#263238" stroke-miterlimit="10"/>
<path d="M54.7729 94.9594L56.9208 101.147C56.9208 101.147 58.1633 98.1586 57.9772 96.2773C57.7911 94.396 57.786 93.8276 57.2227 93.732C56.6593 93.6364 54.8786 93.2642 54.7729 94.9594Z" fill="white" stroke="#263238" stroke-miterlimit="10"/>
<path d="M33.309 78.883L40.1853 92.545L47.4389 88.9635L41.3171 74.552L33.309 78.883Z" fill="#D8BAFF" stroke="#263238" stroke-miterlimit="10"/>
<path d="M45.2358 88.4151C45.1535 88.1975 45.1601 87.9563 45.2542 87.7435C45.3484 87.5308 45.5224 87.3636 45.7388 87.2783C45.7789 87.2734 45.8195 87.2734 45.8596 87.2783L41.3324 76.6696C41.2912 76.7687 41.2282 76.8572 41.1481 76.9286C41.0679 77 40.9728 77.0525 40.8696 77.082C40.7149 77.118 40.553 77.1066 40.4049 77.0492C40.2569 76.9917 40.1295 76.891 40.0396 76.7601L35.2609 79.3305C35.3225 79.4229 35.3684 79.5249 35.3967 79.6323C35.4634 79.8249 35.4651 80.0339 35.4015 80.2275C35.3379 80.421 35.2125 80.5884 35.0446 80.7038L39.8183 90.1555C39.9036 90.0608 40.0132 89.9913 40.1352 89.9543C40.3377 89.9159 40.5473 89.951 40.7262 90.0534C40.9051 90.1557 41.0416 90.3186 41.111 90.5127L45.2509 88.4704L45.2358 88.4151ZM41.1513 85.9704C40.271 86.2169 39.3203 85.568 39.0235 84.5167C38.7267 83.4654 39.1945 82.409 40.0698 82.1625C40.945 81.9161 41.9008 82.565 42.1976 83.6163C42.4943 84.6676 42.0265 85.7189 41.1513 85.9704Z" fill="white" stroke="#263238" stroke-miterlimit="10"/>
<path d="M36.2517 77.2029L39.9238 92.047L47.791 90.1657L45.0194 74.7582L36.2517 77.2029Z" fill="#D8BAFF" stroke="#263238" stroke-miterlimit="10"/>
<path d="M45.764 89.1495C45.7469 89.0342 45.7527 88.9166 45.7812 88.8036C45.8096 88.6906 45.8601 88.5843 45.9298 88.4908C45.9994 88.3973 46.0868 88.3185 46.187 88.2589C46.2871 88.1993 46.3981 88.1601 46.5135 88.1434C46.5535 88.1386 46.5941 88.1386 46.6342 88.1434L44.6221 76.8003C44.5591 76.8873 44.4778 76.9594 44.384 77.0115C44.2901 77.0637 44.1859 77.0946 44.0788 77.1021C43.9189 77.1012 43.7629 77.0529 43.6304 76.9633C43.498 76.8738 43.3949 76.7471 43.3344 76.5991L38.0728 78.083C38.1143 78.1873 38.1381 78.2978 38.1432 78.41C38.1651 78.6127 38.1199 78.8169 38.0145 78.9914C37.9091 79.1659 37.7493 79.3009 37.5597 79.3758L40.0999 89.6525C40.2037 89.58 40.3257 89.5382 40.4521 89.5318C40.6575 89.5365 40.8543 89.6156 41.006 89.7543C41.1577 89.8931 41.254 90.082 41.277 90.2863L45.769 89.2149L45.764 89.1495ZM42.3032 85.8497C41.3927 85.9 40.608 85.0549 40.5527 83.9633C40.4973 82.8718 41.1865 81.9513 42.0969 81.901C43.0074 81.8506 43.7871 82.7008 43.8474 83.7923C43.9078 84.8839 43.2338 85.8044 42.3032 85.8497Z" fill="white" stroke="#263238" stroke-miterlimit="10"/>
<path d="M40.6029 76.0559L39.7578 91.3226L47.8313 91.8357L49.7025 76.2873L40.6029 76.0559Z" fill="#D8BAFF" stroke="#263238" stroke-miterlimit="10"/>
<path d="M46.1914 90.2611C46.2285 90.0309 46.355 89.8246 46.5434 89.6871C46.7318 89.5496 46.9668 89.492 47.1974 89.5267C47.2394 89.5366 47.28 89.5518 47.3181 89.572L48.6964 78.1233C48.6112 78.1893 48.5123 78.2353 48.407 78.2579C48.3016 78.2806 48.1925 78.2792 48.0878 78.2541C47.9351 78.2082 47.7997 78.1175 47.6992 77.9937C47.5987 77.8699 47.5378 77.7188 47.5244 77.5599L42.0867 77.4241C42.0965 77.534 42.0862 77.6448 42.0565 77.751C42.0186 77.9515 41.9158 78.1339 41.764 78.2703C41.6123 78.4066 41.4199 78.4893 41.2165 78.5056L40.633 89.069C40.7563 89.0336 40.887 89.0336 41.0103 89.069C41.2055 89.1356 41.37 89.2706 41.4735 89.449C41.5771 89.6274 41.6126 89.8373 41.5736 90.0398L46.1863 90.3316C46.182 90.3081 46.1837 90.2838 46.1914 90.2611ZM43.8674 86.1012C42.9871 85.8798 42.4841 84.8436 42.7507 83.7822C43.0173 82.7209 43.9479 82.0418 44.8332 82.2732C45.7185 82.5046 46.2115 83.5358 45.9499 84.5971C45.6883 85.6585 44.7527 86.3225 43.8674 86.1012Z" fill="white" stroke="#263238" stroke-miterlimit="10"/>
<path d="M57.2226 91.0007C56.3333 90.8671 55.453 90.679 54.5868 90.4373C54.2096 90.2512 51.4782 89.3055 49.3101 88.1788C47.1421 87.052 45.3564 88.1788 42.2679 88.7422C39.1793 89.3055 38.3091 89.4967 38.3091 90.2512C38.3091 91.0057 39.9137 91.1919 39.9137 91.1919C39.9137 91.1919 38.4047 91.378 39.1592 92.4142C39.6036 93.0299 40.2299 93.4908 40.9499 93.7321C41.3671 94.4233 41.9096 95.0307 42.5495 95.5229C43.4902 96.1818 44.1491 96.7502 44.1491 96.7502C44.739 97.4849 45.5233 98.0391 46.4127 98.3498C47.7307 98.7271 55.1703 96.4635 55.1703 96.4635C55.1703 96.4635 57.4289 97.1225 57.9973 95.9001C58.5657 94.6778 57.2226 91.0007 57.2226 91.0007Z" fill="white" stroke="#263238" stroke-linecap="round" stroke-linejoin="round"/>
<path d="M39.8937 91.1918C39.8937 91.1918 45.5426 91.0006 47.3333 90.4373" stroke="#263238" stroke-linecap="round" stroke-linejoin="round"/>
<path d="M40.9299 93.7321C42.487 93.9814 44.0613 94.1076 45.6382 94.1094C46.5667 94.0909 47.4747 93.8327 48.274 93.3599" stroke="#263238" stroke-linecap="round" stroke-linejoin="round"/>
<path d="M43.3091 96.0913C43.3091 96.0913 46.6039 97.0973 48.8424 96.373" stroke="#263238" stroke-linecap="round" stroke-linejoin="round"/>
<path d="M60.0195 74.8788L61.8153 88.908L56.7549 90.3768C56.7549 90.3768 57.5749 94.6173 57.258 96.5791C57.0453 98.0923 56.936 99.6184 56.931 101.147C56.931 101.147 62.4642 99.3507 66.0658 99.0238C69.6675 98.6968 72.756 97.067 73.7319 94.4563C74.7077 91.8457 71.6142 82.8869 71.6142 82.8869" fill="#263238"/>
<path d="M60.0195 74.8788L61.8153 88.908L56.7549 90.3768C56.7549 90.3768 57.5749 94.6173 57.258 96.5791C57.0453 98.0923 56.936 99.6184 56.931 101.147C56.931 101.147 62.4642 99.3507 66.0658 99.0238C69.6675 98.6968 72.756 97.067 73.7319 94.4563C74.7077 91.8457 71.6142 82.8869 71.6142 82.8869" stroke="#263238" stroke-miterlimit="10"/>
<path d="M59.3504 89.9644L61.8152 88.9081L68.0527 87.233" stroke="#6B6B6B" stroke-miterlimit="10"/>
<path d="M61.8152 88.9082L59.8785 72.3387" stroke="#6B6B6B" stroke-miterlimit="10"/>
<path d="M29.9188 88.5861C29.9188 88.5861 28.792 83.5961 28.3192 82.6505C27.8464 81.7048 25.3011 84.3507 25.115 85.1957C24.9288 86.0408 29.1643 88.6817 29.9188 88.5861Z" fill="white" stroke="#263238" stroke-miterlimit="10"/>
<path d="M27.4588 78.083L25.0242 80.9402C25.0242 80.9402 25.7033 85.1253 26.2466 85.2913C26.7898 85.4573 30.6731 82.4643 30.6731 82.4643L27.4588 78.083Z" fill="white" stroke="#263238" stroke-miterlimit="10"/>
<path d="M31.981 72.3537C31.981 72.3537 27.7405 76.4986 27.4538 78.0982C27.1671 79.6978 30.1852 82.716 30.5625 82.9976C30.9397 83.2793 33.6711 81.1113 33.7617 80.734C33.8522 80.3568 31.976 77.4393 31.976 77.4393C32.8403 77.8627 33.68 78.3346 34.4911 78.8528C34.7727 79.1344 36.5635 81.6797 37.2225 81.4886C37.8814 81.2974 37.5997 80.0751 37.2225 78.9483C36.8452 77.8216 32.7959 74.0489 32.7959 74.0489L35.5273 74.7079C35.5273 74.7079 38.7315 77.8165 39.486 77.8165C40.2406 77.8165 39.8633 77.062 39.3905 76.403C38.9176 75.7441 36.6591 73.1083 36.0957 72.4493C35.5323 71.7903 33.3643 71.4131 33.0776 71.4131C32.7909 71.4131 31.981 72.3537 31.981 72.3537Z" fill="white" stroke="#263238" stroke-linecap="round" stroke-linejoin="round"/>
<path d="M31.9811 77.4392L30.6631 76.1213" stroke="#263238" stroke-linecap="round" stroke-linejoin="round"/>
<path d="M28.968 77.7209L32.3583 81.8658" stroke="#263238" stroke-linecap="round" stroke-linejoin="round"/>
<path d="M24.9287 80.4877C24.9287 80.4877 25.5877 82.7462 25.965 84.1597C26.3422 85.5732 29.9187 88.5863 29.9187 88.5863C29.9187 88.5863 24.8332 93.9535 20.311 96.3077C15.7889 98.6618 10.477 97.4797 8.87737 95.5984C7.27777 93.7171 7.93672 88.2543 9.25464 87.1225C10.5725 85.9907 18.2386 84.537 20.1249 83.5008C22.0112 82.4645 24.9287 80.4877 24.9287 80.4877Z" fill="#263238" stroke="#263238" stroke-miterlimit="10"/>
<path d="M24.9287 80.4877L12.5343 86.544" stroke="#6B6B6B" stroke-miterlimit="10"/>
<path d="M23.3192 81.2824V75.4977" stroke="#6B6B6B" stroke-miterlimit="10"/>
<path d="M105.805 208.516C105.805 208.516 104.295 208.944 100.271 205.961C96.2471 202.978 91.5389 198.717 91.5389 198.717C91.5389 198.717 96.1868 198.094 98.3347 196.962C100.699 195.709 103.465 192.752 103.465 192.752C103.465 192.752 112.837 205.533 124.557 204.683C124.354 205.773 123.878 206.793 123.175 207.65C122.471 208.507 121.562 209.171 120.533 209.583C116.881 211.072 105.805 208.516 105.805 208.516Z" fill="#D8BAFF" stroke="#263238" stroke-linejoin="round"/>
<path d="M121.011 206.147C121.011 206.147 111.061 203.536 105.684 197.827C105.425 197.898 105.153 197.91 104.889 197.863C104.624 197.815 104.374 197.71 104.155 197.554C103.937 197.398 103.755 197.195 103.625 196.961C103.494 196.726 103.417 196.465 103.4 196.197C101.52 197.962 99.1099 199.057 96.5439 199.311C96.5439 199.311 96.7048 200.453 96.2169 200.78C96.2169 200.78 103.883 207.47 108.289 208.285C111.348 208.897 114.479 209.066 117.585 208.788C118.927 208.646 120.187 208.075 121.177 207.158C121.177 207.158 119.542 206.801 121.011 206.147ZM111.614 205.78C111.257 206.66 109.482 206.786 107.646 206.021C105.81 205.257 104.627 203.964 104.959 203.089C105.291 202.213 107.092 202.083 108.928 202.847C110.764 203.612 111.966 204.905 111.614 205.78Z" fill="white" stroke="#263238" stroke-miterlimit="10"/>
<path d="M104.295 208.25C104.295 208.25 109.426 210.362 113.476 210.362C115.845 210.376 118.208 210.114 120.518 209.583C120.518 209.583 119.135 210.337 116.886 208.894C115.603 208.069 114.778 206.233 114.778 206.233C111.394 207.387 107.866 208.066 104.295 208.25Z" fill="#D8BAFF" stroke="#263238" stroke-linejoin="round"/>
<path d="M161.931 186.766C161.931 186.766 171.272 183.692 176.735 180.045L182.545 189.603C182.545 189.603 168.652 200.423 165.005 197.576L161.931 186.766Z" fill="#D8BAFF" stroke="#263238" stroke-linejoin="round"/>
<path d="M178.561 189.044C178.573 188.769 178.674 188.504 178.849 188.291C179.024 188.078 179.264 187.927 179.532 187.862L176.951 183.581C176.736 183.655 176.51 183.692 176.282 183.692C176.006 183.707 175.73 183.654 175.479 183.539C175.227 183.423 175.007 183.248 174.839 183.028C170.015 186.403 162.615 188.134 162.615 188.134L164.094 193.944C164.094 193.944 163.868 197.133 167.852 196.333C170.94 195.714 176.75 191.806 179.22 190.101C179.026 189.999 178.863 189.848 178.747 189.662C178.631 189.476 178.567 189.263 178.561 189.044ZM168.606 193.32C166.861 193.717 165.236 193.124 164.975 191.992C164.713 190.86 165.92 189.613 167.666 189.21C169.411 188.808 171.041 189.406 171.303 190.538C171.564 191.67 170.357 192.917 168.606 193.32Z" fill="white" stroke="#263238" stroke-miterlimit="10"/>
<path d="M160.563 182.44L166.941 195.081C166.941 195.081 164.778 196.217 165.005 197.596L158.858 185.523C158.858 185.523 158.058 183.577 160.563 182.44Z" fill="#D8BAFF" stroke="#263238" stroke-linejoin="round"/>
<path d="M159.401 186.585L164.14 195.88C164.341 195.434 164.699 195.076 165.146 194.874L159.879 185.629L159.401 186.585Z" fill="white" stroke="#263238" stroke-miterlimit="10"/>
<path d="M91.3426 116.207L91.4432 140.438L104.089 140.382L104.129 115.659L91.3426 116.207Z" fill="#D8BAFF" stroke="#263238" stroke-miterlimit="10"/>
<path d="M101.317 138.058C101.328 137.877 101.375 137.7 101.455 137.538C101.535 137.375 101.647 137.23 101.784 137.111C101.92 136.992 102.079 136.902 102.252 136.845C102.424 136.788 102.606 136.766 102.786 136.781C102.85 136.794 102.912 136.812 102.972 136.836L102.947 118.39C102.835 118.491 102.702 118.566 102.558 118.608C102.413 118.651 102.261 118.661 102.112 118.637C101.891 118.582 101.69 118.464 101.534 118.297C101.379 118.13 101.275 117.921 101.237 117.696L93.6112 118.023C93.6361 118.18 93.6361 118.339 93.6112 118.496C93.5858 118.782 93.4657 119.052 93.2698 119.262C93.074 119.473 92.8135 119.612 92.5297 119.658V136.761C92.7147 136.686 92.9164 136.663 93.1132 136.695C93.4267 136.786 93.6987 136.984 93.8824 137.254C94.066 137.523 94.1498 137.849 94.1193 138.174L101.343 138.144C101.317 138.104 101.312 138.078 101.317 138.058ZM97.1324 131.69C95.7289 131.434 94.8034 129.839 95.0649 128.124C95.3265 126.408 96.6897 125.226 98.0831 125.488C99.4764 125.749 100.417 127.339 100.15 129.054C99.8839 130.77 98.5207 131.952 97.1324 131.69Z" fill="white" stroke="#263238" stroke-miterlimit="10"/>
<path d="M209.588 13.6814L191.952 31.3173L201.157 40.5226L219.256 22.6352L209.588 13.6814Z" fill="#D8BAFF" stroke="#263238" stroke-miterlimit="10"/>
<path d="M200.845 36.8354C200.985 36.7099 201.15 36.614 201.328 36.5532C201.506 36.4925 201.694 36.4682 201.882 36.4818C202.07 36.4954 202.253 36.5467 202.42 36.6325C202.588 36.7183 202.737 36.8369 202.857 36.9813C202.895 37.0382 202.927 37.0989 202.953 37.1624L216.409 23.7569C216.253 23.7488 216.101 23.7057 215.964 23.6308C215.828 23.5559 215.709 23.4511 215.619 23.3243C215.498 23.1223 215.439 22.8896 215.449 22.6545C215.459 22.4195 215.537 22.1925 215.674 22.0013L209.9 16.6442C209.801 16.7756 209.684 16.8925 209.552 16.9912C209.324 17.181 209.039 17.2886 208.743 17.2968C208.446 17.305 208.156 17.2133 207.918 17.0365L195.408 29.4108C195.595 29.4887 195.757 29.6177 195.875 29.7831C196.041 30.0777 196.097 30.4212 196.034 30.7532C195.972 31.0852 195.794 31.3846 195.533 31.599L200.79 36.8605L200.845 36.8354ZM202.455 29.1492C201.62 27.937 202.118 26.1009 203.561 25.0496C205.005 23.9983 206.856 24.1392 207.686 25.3514C208.516 26.5637 208.018 28.4048 206.575 29.4511C205.131 30.4973 203.27 30.3414 202.455 29.1241V29.1492Z" fill="white" stroke="#263238" stroke-miterlimit="10"/>
<path d="M88.0779 87.6104L112.615 77.9071L107.55 65.1002L82.4541 74.8538L88.0779 87.6104Z" fill="#D8BAFF" stroke="#263238" stroke-miterlimit="10"/>
<path d="M106.287 68.8326C105.397 69.0288 104.557 68.5911 104.411 67.8265C104.406 67.7545 104.406 67.6822 104.411 67.6102L85.7036 74.9443C85.8514 75.018 85.9807 75.1241 86.0817 75.2548C86.1827 75.3854 86.253 75.5372 86.2871 75.6988C86.3187 75.9449 86.278 76.1948 86.1699 76.4181C86.0618 76.6414 85.8911 76.8285 85.6785 76.9563L89.0236 84.6224C89.1813 84.5362 89.3508 84.4736 89.5266 84.4363C89.8269 84.3477 90.1484 84.3625 90.4393 84.4783C90.7302 84.5942 90.9739 84.8043 91.1312 85.0751L108.48 78.3246C108.33 78.1709 108.227 77.977 108.184 77.7662C108.144 77.41 108.233 77.0514 108.434 76.7546C108.635 76.4579 108.935 76.2423 109.28 76.1465L106.383 68.8275L106.287 68.8326ZM101.498 75.6183C101.795 77.1274 100.543 78.722 98.6966 79.1395C96.8505 79.557 95.1202 78.6364 94.8234 77.1274C94.5266 75.6183 95.7791 74.0288 97.6252 73.6062C99.4713 73.1837 101.202 74.0891 101.498 75.6183Z" fill="white" stroke="#263238" stroke-miterlimit="10"/>
<path d="M174.683 13.601C174.683 13.601 176.192 13.9983 178.134 18.6312C180.075 23.264 181.937 29.3203 181.937 29.3203C181.937 29.3203 177.621 27.4793 175.196 27.3535C172.52 27.2177 168.632 28.3596 168.632 28.3596C168.632 28.3596 167.123 12.5798 156.615 7.32327C157.346 6.48234 158.279 5.84121 159.326 5.46019C160.373 5.07916 161.5 4.97077 162.601 5.14519C166.474 5.73875 174.683 13.601 174.683 13.601Z" fill="#D8BAFF" stroke="#263238" stroke-linejoin="round"/>
<path d="M160.407 7.85654C160.407 7.85654 167.621 15.2057 169.326 22.8465C169.584 22.9193 169.823 23.0484 170.026 23.2246C170.228 23.4008 170.389 23.6196 170.497 23.8654C170.604 24.1112 170.656 24.3779 170.649 24.6462C170.641 24.9144 170.574 25.1777 170.453 25.417C172.97 24.8705 175.598 25.1712 177.927 26.2721C177.927 26.2721 178.37 25.2057 178.959 25.1755C178.959 25.1755 175.79 15.5075 172.419 12.5548C170.099 10.4671 167.492 8.72235 164.678 7.37364C163.452 6.81311 162.078 6.66145 160.759 6.94105C160.759 6.94105 162.022 8.04769 160.407 7.85654ZM168.295 12.9773C169.044 12.4089 170.629 13.2238 171.816 14.8033C173.003 16.3827 173.375 18.1232 172.621 18.6966C171.866 19.2701 170.287 18.4501 169.099 16.8707C167.912 15.2912 167.555 13.5507 168.295 12.9773Z" fill="white" stroke="#263238" stroke-miterlimit="10"/>
<path d="M175.845 14.602C175.845 14.602 172.515 10.1755 169.034 8.08793C167.01 6.86267 164.851 5.87524 162.6 5.14526C162.6 5.14526 164.175 5.20563 165.367 7.59497C166.046 8.96319 165.82 10.9602 165.82 10.9602C169.314 11.705 172.688 12.9306 175.845 14.602Z" fill="#D8BAFF" stroke="#263238" stroke-linejoin="round"/>
<path d="M44.5114 0.9198L46.941 9.82326C46.941 9.82326 34.7981 18.8173 16.4529 16.2971L17.459 6.67435C17.459 6.67435 24.6522 8.11299 31.2166 6.7649C37.781 5.4168 44.5114 0.9198 44.5114 0.9198Z" fill="#D8BAFF" stroke="#263238" stroke-miterlimit="10"/>
<path d="M43.1231 9.43097C43.1485 9.21204 43.2401 9.00608 43.3857 8.84067C43.5314 8.67526 43.7241 8.55828 43.938 8.50542L42.5044 4.54665C42.2952 4.61667 42.0761 4.65234 41.8555 4.65228C41.476 4.65853 41.1043 4.54403 40.7941 4.32532C38.7821 5.38166 35.0044 7.22271 31.2367 8.0024C27.8049 8.6182 24.3048 8.76037 20.8343 8.42493C20.6999 8.56894 20.5345 8.68047 20.3506 8.75106C20.1667 8.82166 19.9691 8.84947 19.7729 8.83238L19.295 14.2248C19.4158 14.2248 19.5415 14.2248 19.6673 14.2248C20.6733 14.2248 21.4631 14.5266 21.4631 14.8988C21.4568 14.9585 21.4367 15.016 21.4044 15.0666C21.3721 15.1173 21.3285 15.1597 21.2769 15.1906C32.9319 15.6332 41.0909 11.604 43.5658 10.1956C43.4344 10.1148 43.3252 10.0026 43.2479 9.86915C43.1707 9.73569 43.1278 9.58512 43.1231 9.43097ZM31.5889 12.2429C29.8082 12.6 28.2488 12.2982 28.1029 11.5688C27.9571 10.8394 29.28 9.96417 31.0607 9.60703C32.8414 9.24989 34.4007 9.5517 34.5466 10.2811C34.6925 11.0105 33.3696 11.8857 31.5889 12.2429Z" fill="white" stroke="#263238" stroke-miterlimit="10"/>
<path d="M208.34 199.195L210.765 208.099C210.765 208.099 198.627 217.093 180.277 214.573L181.283 204.95C181.283 204.95 188.476 206.389 195.045 205.04C201.615 203.692 208.34 199.195 208.34 199.195Z" fill="#D8BAFF" stroke="#263238" stroke-miterlimit="10"/>
<path d="M206.947 207.711C206.971 207.492 207.062 207.285 207.208 207.118C207.354 206.952 207.547 206.834 207.762 206.781L206.328 202.832C206.118 202.898 205.899 202.932 205.679 202.933C205.292 202.943 204.912 202.83 204.593 202.611C202.626 203.662 198.828 205.503 195.065 206.283C191.634 206.899 188.133 207.041 184.663 206.705C184.529 206.849 184.363 206.961 184.179 207.032C183.995 207.102 183.798 207.13 183.602 207.113L183.149 212.505C183.27 212.505 183.395 212.505 183.526 212.505C184.532 212.505 185.317 212.802 185.317 213.174C185.311 213.234 185.29 213.291 185.258 213.342C185.226 213.393 185.182 213.435 185.131 213.466C196.786 213.914 204.945 209.885 207.425 208.471C207.287 208.395 207.172 208.285 207.088 208.153C207.004 208.02 206.956 207.868 206.947 207.711ZM195.412 210.518C193.632 210.875 192.072 210.574 191.927 209.849C191.781 209.125 193.104 208.24 194.884 207.882C196.665 207.525 198.224 207.832 198.37 208.557C198.516 209.281 197.193 210.166 195.412 210.518Z" fill="white" stroke="#263238" stroke-miterlimit="10"/>
<path d="M81.1564 12.2681C81.1564 12.2681 90.4925 9.19463 95.9603 5.54773L101.77 15.1051C101.77 15.1051 87.8768 25.9351 84.2299 23.088L81.1564 12.2681Z" fill="#D8BAFF" stroke="#263238" stroke-linejoin="round"/>
<path d="M97.7812 14.5468C97.7941 14.2707 97.8962 14.0062 98.0722 13.7931C98.2481 13.58 98.4885 13.4296 98.7571 13.3647L96.1716 9.08396C95.958 9.15788 95.7335 9.19529 95.5076 9.19463C95.2311 9.20946 94.9552 9.15676 94.7037 9.04107C94.4521 8.92538 94.2326 8.7502 94.0639 8.53064C89.2399 11.9059 81.8405 13.6363 81.8405 13.6363L83.3194 19.4462C83.3194 19.4462 83.093 22.6353 87.077 21.8355C90.1605 21.2168 95.9704 17.3083 98.4452 15.6031C98.2502 15.5025 98.0858 15.3514 97.969 15.1656C97.8522 14.9798 97.7874 14.7661 97.7812 14.5468ZM87.8315 18.8224C86.086 19.2198 84.4562 18.6263 84.1997 17.4945C83.9431 16.3627 85.1454 15.1152 86.8908 14.7128C88.6363 14.3103 90.2661 14.9089 90.5277 16.0458C90.7892 17.1826 89.587 18.42 87.8315 18.8224Z" fill="white" stroke="#263238" stroke-miterlimit="10"/>
<path d="M79.7882 7.94189L86.1665 20.5828C86.1665 20.5828 84.0035 21.7196 84.2298 23.0979L78.0779 11.0254C78.0779 11.0254 77.2831 9.07872 79.7882 7.94189Z" fill="#D8BAFF" stroke="#263238" stroke-linejoin="round"/>
<path d="M78.6262 12.0867L83.3596 21.3825C83.5612 20.9359 83.9189 20.5781 84.3656 20.3765L79.104 11.131L78.6262 12.0867Z" fill="white" stroke="#263238" stroke-miterlimit="10"/>
<path d="M159.26 68.3345L141.624 85.9704L150.83 95.1706L168.933 77.2832L159.26 68.3345Z" fill="#D8BAFF" stroke="#263238" stroke-miterlimit="10"/>
<path d="M150.523 91.4634C150.663 91.338 150.827 91.242 151.005 91.1813C151.184 91.1205 151.372 91.0963 151.56 91.1099C151.748 91.1235 151.931 91.1747 152.098 91.2605C152.266 91.3463 152.414 91.4649 152.535 91.6093C152.571 91.6665 152.602 91.7272 152.626 91.7904L166.096 78.4C165.941 78.3934 165.789 78.351 165.653 78.2759C165.517 78.2008 165.4 78.0953 165.312 77.9674C165.19 77.766 165.13 77.5335 165.139 77.2984C165.148 77.0634 165.226 76.8361 165.362 76.6445L159.587 71.2974C159.49 71.4284 159.373 71.5438 159.24 71.6394C159.013 71.8307 158.728 71.9397 158.432 71.9489C158.135 71.958 157.844 71.8667 157.605 71.6897L145.095 84.059C145.283 84.1392 145.445 84.2698 145.563 84.4363C145.728 84.7309 145.785 85.0744 145.722 85.4064C145.66 85.7384 145.482 86.0378 145.221 86.2522L150.452 91.5087L150.523 91.4634ZM152.128 83.7773C151.298 82.56 151.796 80.729 153.239 79.6777C154.683 78.6264 156.529 78.7672 157.359 79.9795C158.189 81.1918 157.696 83.0278 156.247 84.0791C154.799 85.1304 152.968 84.9896 152.128 83.7773Z" fill="white" stroke="#263238" stroke-miterlimit="10"/>
<path d="M191.499 111.363L215.599 113.878L216.906 101.302L192.334 98.5912L191.499 111.363Z" fill="#D8BAFF" stroke="#263238" stroke-miterlimit="10"/>
<path d="M214.296 103.802C214.118 103.772 213.947 103.707 213.794 103.61C213.641 103.513 213.509 103.386 213.406 103.238C213.302 103.09 213.23 102.922 213.191 102.745C213.153 102.568 213.151 102.386 213.184 102.208C213.206 102.145 213.233 102.085 213.265 102.027L194.92 100.06C195.009 100.182 195.069 100.323 195.096 100.472C195.123 100.621 195.116 100.774 195.075 100.92C194.999 101.131 194.864 101.315 194.685 101.451C194.507 101.587 194.293 101.668 194.069 101.685L193.566 109.316C193.726 109.31 193.885 109.327 194.039 109.366C194.322 109.423 194.577 109.572 194.765 109.791C194.953 110.01 195.062 110.285 195.075 110.573L212.062 112.439C212.007 112.249 212.007 112.046 212.062 111.856C212.183 111.55 212.408 111.297 212.697 111.141C212.986 110.985 213.32 110.935 213.642 111.001L214.386 103.817L214.296 103.802ZM207.515 107.324C207.108 108.692 205.423 109.441 203.748 108.994C202.072 108.546 201.041 107.067 201.449 105.699C201.856 104.331 203.546 103.581 205.221 104.029C206.896 104.476 207.923 105.925 207.515 107.298V107.324Z" fill="white" stroke="#263238" stroke-miterlimit="10"/>
<path d="M218.954 134.135C218.954 134.135 220.463 134.532 222.405 139.165C224.346 143.798 226.202 149.854 226.202 149.854C226.202 149.854 221.892 148.013 219.462 147.887C216.791 147.752 212.923 148.893 212.923 148.893C212.923 148.893 211.414 133.114 200.906 127.857C201.64 127.023 202.573 126.389 203.619 126.014C204.666 125.639 205.79 125.536 206.886 125.714C210.74 126.273 218.954 134.135 218.954 134.135Z" fill="#D8BAFF" stroke="#263238" stroke-linejoin="round"/>
<path d="M204.673 128.385C204.673 128.385 211.891 135.719 213.597 143.38C213.855 143.452 214.095 143.58 214.298 143.755C214.501 143.931 214.662 144.149 214.77 144.395C214.878 144.641 214.93 144.907 214.922 145.176C214.914 145.444 214.846 145.707 214.723 145.946C217.238 145.396 219.864 145.693 222.193 146.791C222.193 146.791 222.641 145.724 223.224 145.694C223.224 145.694 220.06 136.026 216.685 133.073C214.37 130.982 211.766 129.233 208.954 127.882C207.728 127.322 206.354 127.17 205.035 127.45C205.035 127.45 206.288 128.581 204.673 128.385ZM212.56 133.506C213.315 132.938 214.894 133.752 216.081 135.332C217.269 136.911 217.641 138.652 216.886 139.225C216.132 139.799 214.552 138.979 213.365 137.399C212.178 135.82 211.821 134.084 212.56 133.511V133.506Z" fill="white" stroke="#263238" stroke-miterlimit="10"/>
<path d="M220.111 135.136C220.111 135.136 216.781 130.694 213.305 128.622C211.278 127.402 209.118 126.422 206.866 125.699C206.866 125.699 208.446 125.759 209.633 128.149C210.317 129.517 210.086 131.514 210.086 131.514C213.579 132.252 216.953 133.47 220.111 135.136Z" fill="#D8BAFF" stroke="#263238" stroke-linejoin="round"/>
<path d="M207.294 75.9855C207.294 75.9855 199.15 81.4935 194.884 86.4936L186.67 78.8778C186.67 78.8778 197.077 64.6726 201.363 66.418L207.294 75.9855Z" fill="#D8BAFF" stroke="#263238" stroke-linejoin="round"/>
<path d="M190.694 78.3396C190.758 78.6077 190.732 78.8892 190.622 79.1416C190.511 79.3939 190.321 79.6032 190.08 79.738L193.732 83.1535C193.92 83.025 194.127 82.9282 194.346 82.8667C194.608 82.7767 194.887 82.7516 195.161 82.7937C195.434 82.8357 195.693 82.9437 195.915 83.1082C199.638 78.5458 206.283 74.8587 206.283 74.8587L203.265 69.6725C203.265 69.6725 202.611 66.5437 198.994 68.3999C196.197 69.8385 191.67 75.1655 189.764 77.5046C189.979 77.5471 190.18 77.6471 190.344 77.7941C190.507 77.941 190.629 78.1295 190.694 78.3396ZM199.1 71.5086C200.669 70.6434 202.399 70.7741 202.958 71.7902C203.516 72.8063 202.696 74.3406 201.127 75.2007C199.557 76.0609 197.827 75.9351 197.264 74.914C196.7 73.8929 197.51 72.3687 199.085 71.5086H199.1Z" fill="white" stroke="#263238" stroke-miterlimit="10"/>
<path d="M209.809 79.7732L200.221 69.3556C200.221 69.3556 201.992 67.6705 201.398 66.418L210.614 76.3476C210.614 76.3476 211.891 77.9925 209.809 79.7732Z" fill="#D8BAFF" stroke="#263238" stroke-linejoin="round"/>
<path d="M209.779 75.4674L202.686 67.8215C202.621 68.3074 202.384 68.7538 202.017 69.0791L209.562 76.5187L209.779 75.4674Z" fill="white" stroke="#263238" stroke-miterlimit="10"/>
<path d="M0.884399 218.013H241.499" stroke="#263238" stroke-linecap="round" stroke-linejoin="round"/>
</svg>
