<svg width="60" height="60" viewBox="0 0 60 60" fill="none" xmlns="http://www.w3.org/2000/svg">
<rect opacity="0.5" width="60" height="60" rx="16" fill="#FFB2C4"/>
<path d="M22.6928 30.6086L24.753 34.0241C25.7327 35.6455 26.8181 35.7244 28.0095 34.2606L32.9495 28.206C33.1319 27.982 33.357 27.7966 33.6119 27.6607C33.8667 27.5248 34.1462 27.441 34.4341 27.4141C34.722 27.3873 35.0125 27.418 35.2888 27.5044C35.5651 27.5909 35.8216 27.7313 36.0435 27.9176L36.5973 28.376C37.956 29.5194 38.0816 30.7836 36.9739 32.1685C33.1686 36.9393 29.4322 41.5721 25.7647 46.0668C24.0072 48.2181 18.9638 48.8096 16.2833 49.8963C15.9627 50.027 15.605 50.0344 15.2792 49.917C14.9534 49.7997 14.6825 49.5658 14.5185 49.2605L10.1914 41.2394C10.005 40.8974 9.95246 40.498 10.0438 40.1185C10.1352 39.7389 10.364 39.406 10.6861 39.1842C12.1039 38.2157 13.0417 37.4913 13.4773 35.6948C14.3388 32.1217 15.6114 28.7062 17.295 25.4485C17.3916 25.2549 17.435 25.038 17.4205 24.8201C17.3319 23.5978 17.6371 22.7821 18.3362 22.3731C25.1493 18.3366 31.832 14.3421 38.3843 10.3894C38.6887 10.2055 39.0263 10.0834 39.3778 10.0303C39.7294 9.97718 40.0879 9.99402 40.433 10.0799C40.778 10.1657 41.1027 10.3189 41.3885 10.5306C41.6744 10.7423 41.9156 11.0083 42.0986 11.3135L49.6231 23.8812C49.8037 24.1835 49.9226 24.5187 49.9728 24.8674C50.023 25.216 50.0036 25.5712 49.9157 25.9123C49.8277 26.2534 49.6731 26.5736 49.4606 26.8544C49.2481 27.1352 48.9821 27.3709 48.6779 27.548L44.0628 30.2316C43.8751 30.3408 43.7205 30.4987 43.6152 30.6887C43.5099 30.8787 43.4579 31.0937 43.4647 31.3109C43.504 32.7303 42.8124 33.5608 41.3897 33.8023C41.1239 33.8466 40.9811 34.0019 40.9614 34.268C40.8679 35.4361 40.511 36.2345 39.8907 36.6633C39.4846 36.9442 38.9824 36.8703 38.4803 37.0847C38.2391 37.1832 38.1086 37.3631 38.0889 37.6243C38.0348 38.334 37.7443 38.9107 37.2176 39.3542C36.5875 39.8816 35.881 40.0171 35.0983 39.7608L34.8473 39.6795C33.971 39.3986 33.8184 38.8959 34.3894 38.1714C35.8171 36.3626 37.2004 34.6229 38.5394 32.9521C39.2483 32.065 39.4033 30.7269 40.4076 30.1133C42.5933 28.7826 44.9366 27.4001 47.4374 25.966C47.5421 25.9048 47.6338 25.8236 47.7072 25.727C47.7806 25.6304 47.8342 25.5202 47.8651 25.4028C47.896 25.2854 47.9034 25.1631 47.8871 25.0428C47.8707 24.9225 47.8308 24.8066 47.7696 24.7018L43.8412 18.0557C43.8127 18.0065 43.7745 17.9635 43.7288 17.9294C43.6831 17.8952 43.631 17.8706 43.5753 17.8568C43.5196 17.843 43.4616 17.8405 43.4045 17.8492C43.3475 17.858 43.2926 17.8779 43.2431 17.9079L22.8258 30.0763C22.7818 30.1022 22.7434 30.1366 22.7128 30.1775C22.6822 30.2184 22.6601 30.265 22.6478 30.3145C22.6354 30.3641 22.633 30.4156 22.6407 30.4661C22.6485 30.5166 22.6662 30.565 22.6928 30.6086ZM40.4479 12.3001C40.3984 12.2166 40.3329 12.1437 40.2553 12.0856C40.1776 12.0274 40.0893 11.9851 39.9953 11.9612C39.9014 11.9372 39.8036 11.932 39.7076 11.9458C39.6117 11.9597 39.5193 11.9923 39.436 12.0419L19.5498 23.863C19.4664 23.9126 19.3936 23.9781 19.3355 24.0558C19.2774 24.1336 19.2352 24.222 19.2113 24.3161C19.1873 24.4102 19.1821 24.508 19.196 24.6041C19.2098 24.7002 19.2424 24.7926 19.2919 24.8761L20.0459 26.1474C20.0954 26.2309 20.1609 26.3038 20.2385 26.362C20.3162 26.4201 20.4045 26.4624 20.4984 26.4864C20.5924 26.5104 20.6902 26.5156 20.7861 26.5017C20.8821 26.4879 20.9745 26.4552 21.0578 26.4057L40.944 14.5845C41.0274 14.535 41.1002 14.4694 41.1583 14.3917C41.2163 14.314 41.2586 14.2255 41.2825 14.1314C41.3065 14.0374 41.3117 13.9395 41.2978 13.8434C41.284 13.7473 41.2514 13.6549 41.2019 13.5714L40.4479 12.3001Z" fill="#FDC3C4"/>
<path d="M42.1587 21.3825L38.5244 23.5947C38.1097 23.8471 37.9779 24.3883 38.2301 24.8035L39.4577 26.8248C39.7098 27.24 40.2503 27.3719 40.665 27.1195L44.2993 24.9073C44.714 24.6548 44.8457 24.1137 44.5936 23.6985L43.366 21.6771C43.1139 21.262 42.5733 21.1301 42.1587 21.3825Z" fill="#FDC3C4"/>
</svg>
