<svg width="50" height="50" viewBox="0 0 50 50" fill="none" xmlns="http://www.w3.org/2000/svg">
<rect opacity="0.5" width="50" height="50" rx="12" fill="#E8E0EB"/>
<rect x="8.33325" y="8.3335" width="33.3333" height="33.3333" rx="12" fill="#999999"/>
<path d="M28.193 17.5557C27.871 17.5529 27.5578 17.6708 27.304 17.8904C27.0498 18.1097 26.87 18.4178 26.7937 18.7647H29.5924C29.5158 18.4178 29.336 18.1097 29.0821 17.8904C28.828 17.6708 28.5147 17.5529 28.193 17.5557Z" fill="#E8E0EB"/>
<path d="M22.4331 13.04C22.1795 13.04 21.9508 13.2094 21.8536 13.4695C21.7566 13.7296 21.8103 14.0288 21.9896 14.2277C22.1691 14.4269 22.4388 14.4865 22.6731 14.3786C22.9075 14.271 23.0601 14.0172 23.0601 13.7358C23.0598 13.3515 22.7791 13.0404 22.4331 13.04Z" fill="#E8E0EB"/>
<path d="M15.3127 19.5547H18.1611V21.3723H15.3127V19.5547Z" fill="#E8E0EB"/>
<path d="M16.7442 17.5557C16.4222 17.5529 16.109 17.6708 15.8551 17.8904C15.601 18.1097 15.4212 18.4178 15.3448 18.7647H18.1435C18.0669 18.4178 17.8871 18.1097 17.6333 17.8904C17.3791 17.6708 17.0659 17.5529 16.7442 17.5557Z" fill="#E8E0EB"/>
<path d="M26.7775 19.5547H29.6259V21.3723H26.7775V19.5547Z" fill="#E8E0EB"/>
<path d="M15.7042 26.583C15.4851 26.5836 15.2754 26.6815 15.1216 26.8547C14.9678 27.0278 14.8827 27.2622 14.8852 27.5053V31.7239H16.5232V27.5053C16.5257 27.2622 16.4406 27.0278 16.2869 26.8547C16.1331 26.6815 15.9233 26.5836 15.7042 26.583Z" fill="#E8E0EB"/>
<path d="M22.1914 10.039C22.3302 9.90101 22.5413 9.90541 22.6756 10.0488L26.6288 14.1021H33.7767L31.3973 8.3335H13.4692L11.0898 14.1021H18.2377L22.1914 10.039Z" fill="#E8E0EB"/>
<path d="M32.6169 33.5416V24.4541H12.2507V33.5416H18.7309V26.4884C18.7272 26.3065 18.79 26.1308 18.9045 26.0009C19.0193 25.8708 19.1761 25.7977 19.3401 25.7977H25.4726C25.818 25.7977 26.0659 26.1051 26.0659 26.4884L26.0656 33.5416L32.6169 33.5416ZM17.2355 32.0851C17.2355 32.3034 17.084 32.5142 16.8873 32.5142L14.5129 32.5146C14.3161 32.5146 14.1734 32.3034 14.1734 32.0854V27.5058C14.1734 26.8987 14.4651 26.3379 14.9389 26.0342C15.4127 25.7309 15.9961 25.7309 16.47 26.0342C16.9437 26.3379 17.2355 26.8988 17.2355 27.5058L17.2355 32.0851ZM27.7038 27.5058C27.7038 26.8988 27.9955 26.3379 28.4693 26.0342C28.9431 25.7309 29.5266 25.7309 30.0004 26.0342C30.4741 26.3379 30.7659 26.8988 30.7659 27.5058V32.0851C30.7659 32.3034 30.6217 32.5142 30.4252 32.5142L28.0506 32.5146C27.8539 32.5146 27.7038 32.3034 27.7038 32.0854V27.5058Z" fill="#E8E0EB"/>
<path d="M38.3197 34.1737H36.3496C36.1528 34.1737 35.9637 33.9943 35.9637 33.776V16.3936H33.3287V33.951C33.3324 34.0524 33.2982 34.1505 33.234 34.2227C33.1701 34.2945 33.0819 34.3341 32.9909 34.3312H11.8757C11.7846 34.3341 11.6967 34.2945 11.6325 34.2224C11.5684 34.1505 11.5342 34.0524 11.5378 33.951V16.3936H8.33325V41.6669L38.3311 41.5888V41.5885C39.5246 41.5863 40.6266 40.8776 41.2216 39.7292C41.817 38.5811 41.8147 37.1676 41.216 36.0216C40.6175 34.8756 39.5133 34.1708 38.3195 34.1733L38.3197 34.1737ZM10.5414 28.8531C10.5414 29.0714 10.382 29.2483 10.1852 29.2483C9.98872 29.2483 9.82928 29.0714 9.82928 28.8531V20.0217C9.82928 19.8037 9.98872 19.6268 10.1852 19.6268C10.382 19.6268 10.5414 19.8037 10.5414 20.0217V28.8531ZM10.5414 18.5457C10.5414 18.7637 10.382 18.9407 10.1852 18.9407C9.98872 18.9407 9.82928 18.7637 9.82928 18.5457V18.1595C9.82928 17.9415 9.98872 17.7646 10.1852 17.7646C10.382 17.7646 10.5414 17.9415 10.5414 18.1595V18.5457Z" fill="#E8E0EB"/>
<path d="M38.5664 12.4427H36.6761V33.3835H38.32C39.6557 33.3826 40.9055 34.1129 41.6608 35.3354V15.8931C41.6608 14.9809 41.3352 14.1059 40.7553 13.4594C40.1755 12.8125 39.3885 12.4471 38.5664 12.4424V12.4427Z" fill="#FDC3C4"/>
<path d="M32.6169 14.893H26.4896C26.4013 14.898 26.3146 14.8657 26.2473 14.802L22.4338 10.8877L18.6203 14.8067C18.5527 14.8692 18.4659 14.8999 18.3783 14.893H12.2506V23.6641H32.6168L32.6169 14.893ZM18.8732 21.7686C18.8732 21.9869 18.7429 22.1629 18.5462 22.1629H14.9427C14.85 22.1626 14.7612 22.1203 14.6965 22.0459C14.632 21.9719 14.5975 21.8718 14.6006 21.7686V19.1493C14.6006 18.3023 15.0077 17.5196 15.6687 17.0961C16.3296 16.6726 17.1441 16.6726 17.805 17.0961C18.4659 17.5196 18.8733 18.3023 18.8733 19.1493L18.8732 21.7686ZM22.4338 15.2226C22.0787 15.2226 21.738 15.0661 21.4867 14.7875C21.2357 14.5087 21.0943 14.1307 21.0943 13.7366C21.0943 13.3423 21.2357 12.9643 21.4867 12.6857C21.7378 12.4069 22.0784 12.2503 22.4338 12.2503C22.7888 12.2503 23.1295 12.4072 23.3808 12.6857C23.6318 12.9643 23.7729 13.3423 23.7729 13.7366C23.7726 14.1306 23.6312 14.5083 23.3802 14.7869C23.1292 15.0654 22.7888 15.2223 22.4338 15.2226ZM30.3379 21.7686C30.3408 21.8718 30.306 21.9719 30.2413 22.0462C30.1765 22.1206 30.0875 22.1626 29.9945 22.1629H26.3913C26.1945 22.1629 26.0656 21.9869 26.0656 21.7686L26.0653 19.1492C26.0653 18.3022 26.4727 17.5196 27.1336 17.0961C27.7946 16.6726 28.609 16.6726 29.27 17.0961C29.9309 17.5196 30.338 18.3023 30.338 19.1492L30.3379 21.7686Z" fill="#FDC3C4"/>
<path d="M30.0529 27.5059C30.0529 27.004 29.6863 26.5972 29.234 26.5972C28.7817 26.5972 28.415 27.004 28.415 27.5059V31.7245H30.053L30.0529 27.5059Z" fill="#FDC3C4"/>
<path d="M19.4429 26.5879H25.3534V33.542H19.4429V26.5879Z" fill="#FDC3C4"/>
</svg>
