<svg width="34" height="34" viewBox="0 0 34 34" fill="none" xmlns="http://www.w3.org/2000/svg">
<path d="M29 25.4736C28.8414 26.7558 28.7718 27.3116 28.1797 28.5615L19.084 30.4395C19.2931 29.0883 19.5724 28.046 20.0254 27.4209L29 25.4736ZM16.3311 16.6279L19.0498 16.0381V7.4502C20.0623 6.31367 20.685 5.80336 21.9072 5.1582V15.418L29 13.8779C28.8414 15.1605 28.7719 15.7167 28.1797 16.9668L21.9072 18.292V21.1768L29 19.6758C28.8414 20.9583 28.7719 21.5145 28.1797 22.7646L21.9072 24.0596V24.0869L19.0498 24.6777V18.8965L16.3311 19.4707V23.1143L16.2852 23.123C15.66 24.2192 14.7774 25.5365 13.9268 26.5879L5 28.2871C5.08005 27.1386 5.24722 26.4918 5.7666 25.335L13.4736 23.6641V20.0752L6.33008 21.5859C6.41013 20.4376 6.57734 19.7906 7.09668 18.6338L13.4736 17.248V5.85254C14.4862 4.7159 15.1089 4.20568 16.3311 3.56055V16.6279Z" fill="#D8BAFF"/>
</svg>
