<svg width="114" height="79" viewBox="0 0 114 79" fill="none" xmlns="http://www.w3.org/2000/svg">
<path d="M10.875 0.419999C13.835 0.419999 16.4217 1.00667 18.635 2.18C20.8483 3.35333 22.555 5.00667 23.755 7.14C24.9817 9.24667 25.595 11.6867 25.595 14.46C25.595 17.2067 24.9817 19.6467 23.755 21.78C22.555 23.9133 20.835 25.5667 18.595 26.74C16.3817 27.9133 13.8083 28.5 10.875 28.5H0.355V0.419999H10.875ZM10.435 22.58C13.0217 22.58 15.035 21.8733 16.475 20.46C17.915 19.0467 18.635 17.0467 18.635 14.46C18.635 11.8733 17.915 9.86 16.475 8.42C15.035 6.98 13.0217 6.26 10.435 6.26H7.195V22.58H10.435ZM46.8975 23.54H36.4175L34.7375 28.5H27.5775L37.7375 0.419999H45.6575L55.8175 28.5H48.5775L46.8975 23.54ZM45.1375 18.26L41.6575 7.98L38.2175 18.26H45.1375ZM65.7497 0.419999V28.5H58.9097V0.419999H65.7497ZM77.5466 23.22H86.5066V28.5H70.7066V0.419999H77.5466V23.22ZM113.849 0.419999L104.129 19.22V28.5H97.2891V19.22L87.5691 0.419999H95.3291L100.769 12.18L106.169 0.419999H113.849Z" fill="#D2C0E2"/>
<path d="M0.405937 64.42C0.405937 61.6467 1.00594 59.18 2.20594 57.02C3.40594 54.8333 5.0726 53.14 7.20594 51.94C9.36594 50.7133 11.8059 50.1 14.5259 50.1C17.8593 50.1 20.7126 50.98 23.0859 52.74C25.4593 54.5 27.0459 56.9 27.8459 59.94H20.3259C19.7659 58.7667 18.9659 57.8733 17.9259 57.26C16.9126 56.6467 15.7526 56.34 14.4459 56.34C12.3393 56.34 10.6326 57.0733 9.32594 58.54C8.01927 60.0067 7.36594 61.9667 7.36594 64.42C7.36594 66.8733 8.01927 68.8333 9.32594 70.3C10.6326 71.7667 12.3393 72.5 14.4459 72.5C15.7526 72.5 16.9126 72.1933 17.9259 71.58C18.9659 70.9667 19.7659 70.0733 20.3259 68.9H27.8459C27.0459 71.94 25.4593 74.34 23.0859 76.1C20.7126 77.8333 17.8593 78.7 14.5259 78.7C11.8059 78.7 9.36594 78.1 7.20594 76.9C5.0726 75.6733 3.40594 73.98 2.20594 71.82C1.00594 69.66 0.405937 67.1933 0.405937 64.42ZM49.5147 73.54H39.0347L37.3547 78.5H30.1947L40.3547 50.42H48.2747L58.4347 78.5H51.1947L49.5147 73.54ZM47.7547 68.26L44.2747 57.98L40.8347 68.26H47.7547ZM71.6869 78.78C69.6335 78.78 67.7935 78.4467 66.1669 77.78C64.5402 77.1133 63.2335 76.1267 62.2469 74.82C61.2869 73.5133 60.7802 71.94 60.7269 70.1H68.0069C68.1135 71.14 68.4735 71.94 69.0869 72.5C69.7002 73.0333 70.5002 73.3 71.4869 73.3C72.5002 73.3 73.3002 73.0733 73.8869 72.62C74.4735 72.14 74.7669 71.4867 74.7669 70.66C74.7669 69.9667 74.5269 69.3933 74.0469 68.94C73.5935 68.4867 73.0202 68.1133 72.3269 67.82C71.6602 67.5267 70.7002 67.1933 69.4469 66.82C67.6335 66.26 66.1535 65.7 65.0069 65.14C63.8602 64.58 62.8735 63.7533 62.0469 62.66C61.2202 61.5667 60.8069 60.14 60.8069 58.38C60.8069 55.7667 61.7535 53.7267 63.6469 52.26C65.5402 50.7667 68.0069 50.02 71.0469 50.02C74.1402 50.02 76.6335 50.7667 78.5269 52.26C80.4202 53.7267 81.4335 55.78 81.5669 58.42H74.1669C74.1135 57.5133 73.7802 56.8067 73.1669 56.3C72.5535 55.7667 71.7669 55.5 70.8069 55.5C69.9802 55.5 69.3135 55.7267 68.8069 56.18C68.3002 56.6067 68.0469 57.2333 68.0469 58.06C68.0469 58.9667 68.4735 59.6733 69.3269 60.18C70.1802 60.6867 71.5135 61.2333 73.3269 61.82C75.1402 62.4333 76.6069 63.02 77.7269 63.58C78.8735 64.14 79.8602 64.9533 80.6869 66.02C81.5135 67.0867 81.9269 68.46 81.9269 70.14C81.9269 71.74 81.5135 73.1933 80.6869 74.5C79.8869 75.8067 78.7135 76.8467 77.1669 77.62C75.6202 78.3933 73.7935 78.78 71.6869 78.78ZM110.456 50.42V78.5H103.616V66.94H92.9763V78.5H86.1363V50.42H92.9763V61.42H103.616V50.42H110.456Z" fill="#F09599"/>
</svg>
