<svg width="40" height="40" viewBox="0 0 40 40" fill="none" xmlns="http://www.w3.org/2000/svg">
<rect opacity="0.5" width="40" height="40" rx="12" fill="#D8BAFF"/>
<path d="M13 29.8699C12.26 29.8699 11.53 29.5899 10.97 29.0299C10.43 28.4899 10.13 27.7699 10.13 26.9999C10.13 26.2299 10.43 25.5099 10.97 24.9699L23.97 11.9699C25.09 10.8499 26.91 10.8499 28.03 11.9699C28.57 12.5099 28.87 13.2299 28.87 13.9999C28.87 14.7699 28.57 15.4899 28.03 16.0299L15.03 29.0299C14.47 29.5899 13.74 29.8699 13 29.8699ZM26 12.6299C25.65 12.6299 25.3 12.7599 25.03 13.0299L12.03 26.0299C11.77 26.2899 11.63 26.6299 11.63 26.9999C11.63 27.3699 11.77 27.7099 12.03 27.9699C12.56 28.4999 13.44 28.4999 13.97 27.9699L26.97 14.9699C27.23 14.7099 27.37 14.3699 27.37 13.9999C27.37 13.6299 27.23 13.2899 26.97 13.0299C26.7 12.7599 26.35 12.6299 26 12.6299Z" fill="#FDC3C4"/>
<path d="M26.01 17.7397C25.82 17.7397 25.63 17.6697 25.48 17.5197L22.48 14.5197C22.19 14.2297 22.19 13.7497 22.48 13.4597C22.77 13.1697 23.25 13.1697 23.54 13.4597L26.54 16.4597C26.83 16.7497 26.83 17.2297 26.54 17.5197C26.39 17.6697 26.2 17.7397 26.01 17.7397Z" fill="#FDC3C4"/>
<path d="M18.0001 13.5001C17.9501 13.5001 17.9101 13.4901 17.8601 13.4801L16.5001 13.0801L15.1401 13.4801C14.9601 13.5301 14.7701 13.4801 14.6501 13.3501C14.5201 13.2201 14.4701 13.0401 14.5201 12.8601L14.9201 11.5001L14.5201 10.1401C14.4701 9.96005 14.5201 9.77005 14.6501 9.65005C14.7801 9.52005 14.9701 9.47005 15.1401 9.52005L16.5001 9.92005L17.8601 9.52005C18.0401 9.47005 18.2201 9.52005 18.3501 9.65005C18.4801 9.78005 18.5301 9.97005 18.4801 10.1401L18.0801 11.5001L18.4801 12.8601C18.5301 13.0401 18.4801 13.2301 18.3501 13.3501C18.2601 13.4501 18.1301 13.5001 18.0001 13.5001ZM16.5001 12.0601C16.5501 12.0601 16.5901 12.0701 16.6401 12.0801L17.2601 12.2601L17.0801 11.6401C17.0501 11.5501 17.0501 11.4501 17.0801 11.3601L17.2601 10.7401L16.6401 10.9201C16.5501 10.9501 16.4501 10.9501 16.3601 10.9201L15.7401 10.7401L15.9201 11.3601C15.9501 11.4501 15.9501 11.5501 15.9201 11.6401L15.7401 12.2601L16.3601 12.0801C16.4101 12.0701 16.4501 12.0601 16.5001 12.0601Z" fill="#FDC3C4"/>
<path d="M14.0001 19.5001C13.9501 19.5001 13.9101 19.4901 13.8601 19.4801L12.5001 19.0801L11.1401 19.4801C10.9601 19.5301 10.7801 19.4801 10.6501 19.3501C10.5201 19.2201 10.4701 19.0301 10.5201 18.8601L10.9201 17.5001L10.5201 16.1401C10.4701 15.9601 10.5201 15.7701 10.6501 15.6501C10.7801 15.5301 10.9701 15.4701 11.1401 15.5201L12.5001 15.9201L13.8601 15.5201C14.0301 15.4701 14.2201 15.5201 14.3501 15.6501C14.4801 15.7801 14.5301 15.9701 14.4801 16.1401L14.0801 17.5001L14.4801 18.8601C14.5301 19.0401 14.4801 19.2301 14.3501 19.3501C14.2601 19.4501 14.1301 19.5001 14.0001 19.5001ZM12.5001 18.0601C12.5501 18.0601 12.5901 18.0701 12.6401 18.0801L13.2601 18.2601L13.0801 17.6401C13.0501 17.5501 13.0501 17.4501 13.0801 17.3601L13.2601 16.7401L12.6401 16.9201C12.5501 16.9501 12.4501 16.9501 12.3601 16.9201L11.7401 16.7401L11.9201 17.3601C11.9501 17.4501 11.9501 17.5501 11.9201 17.6401L11.7401 18.2601L12.3601 18.0801C12.4101 18.0701 12.4501 18.0601 12.5001 18.0601Z" fill="#FDC3C4"/>
<path d="M29.0001 24.5001C28.9501 24.5001 28.9101 24.4901 28.8601 24.4801L27.5001 24.0801L26.1401 24.4801C25.9601 24.5301 25.7801 24.4801 25.6501 24.3501C25.5201 24.2201 25.4701 24.0301 25.5201 23.8601L25.9201 22.5001L25.5201 21.1401C25.4701 20.9601 25.5201 20.7701 25.6501 20.6501C25.7801 20.5301 25.9701 20.4701 26.1401 20.5201L27.5001 20.9201L28.8601 20.5201C29.0301 20.4701 29.2201 20.5201 29.3501 20.6501C29.4801 20.7801 29.5301 20.9701 29.4801 21.1401L29.0801 22.5001L29.4801 23.8601C29.5301 24.0401 29.4801 24.2301 29.3501 24.3501C29.2601 24.4501 29.1301 24.5001 29.0001 24.5001ZM27.5001 23.0601C27.5501 23.0601 27.5901 23.0701 27.6401 23.0801L28.2601 23.2601L28.0801 22.6401C28.0501 22.5501 28.0501 22.4501 28.0801 22.3601L28.2601 21.7401L27.6401 21.9201C27.5501 21.9501 27.4501 21.9501 27.3601 21.9201L26.7401 21.7401L26.9201 22.3601C26.9501 22.4501 26.9501 22.5501 26.9201 22.6401L26.7401 23.2601L27.3601 23.0801C27.4101 23.0701 27.4501 23.0601 27.5001 23.0601Z" fill="#FDC3C4"/>
</svg>
