<svg width="35" height="36" viewBox="0 0 35 36" fill="none" xmlns="http://www.w3.org/2000/svg">
<path fill-rule="evenodd" clip-rule="evenodd" d="M17.5 7.79167C15.0838 7.79167 13.125 9.75042 13.125 12.1667C13.125 14.5829 15.0838 16.5417 17.5 16.5417C19.9163 16.5417 21.875 14.5829 21.875 12.1667C21.875 9.75042 19.9163 7.79167 17.5 7.79167ZM10.2084 12.1667C10.2084 8.13959 13.473 4.875 17.5 4.875C21.5271 4.875 24.7917 8.13959 24.7917 12.1667C24.7917 16.1937 21.5271 19.4583 17.5 19.4583C13.473 19.4583 10.2084 16.1937 10.2084 12.1667ZM10.8735 24.8927C9.33606 25.5754 8.75004 26.4376 8.75004 27.4792C8.75004 27.8053 8.80802 27.9899 8.8919 28.1237C8.97584 28.2576 9.17608 28.4843 9.71573 28.7285C10.8692 29.2503 13.1485 29.6667 17.5 29.6667C21.8516 29.6667 24.1309 29.2503 25.2843 28.7285C25.824 28.4843 26.0242 28.2576 26.1082 28.1237C26.1921 27.9899 26.25 27.8053 26.25 27.4792C26.25 26.4376 25.664 25.5754 24.1266 24.8927C22.548 24.1917 20.2303 23.8333 17.5 23.8333C14.7698 23.8333 12.4521 24.1917 10.8735 24.8927ZM9.68981 22.2271C11.8059 21.2874 14.5924 20.9167 17.5 20.9167C20.4077 20.9167 23.1942 21.2874 25.3103 22.2271C27.4675 23.185 29.1667 24.8749 29.1667 27.4792C29.1667 28.1598 29.0424 28.9343 28.5794 29.6729C28.1165 30.4114 27.4052 30.9702 26.4866 31.3858C24.7233 32.1835 21.8985 32.5833 17.5 32.5833C13.1016 32.5833 10.2767 32.1835 8.51351 31.3858C7.59483 30.9702 6.88362 30.4114 6.42068 29.6729C5.95768 28.9343 5.83337 28.1598 5.83337 27.4792C5.83337 24.8749 7.53257 23.185 9.68981 22.2271Z" fill="#E8E0EB"/>
</svg>
