<svg width="27" height="27" viewBox="0 0 27 27" fill="none" xmlns="http://www.w3.org/2000/svg">
<path fill-rule="evenodd" clip-rule="evenodd" d="M13.3333 5.55523C11.4924 5.55523 10 7.04761 10 8.88856C10 10.7295 11.4924 12.2219 13.3333 12.2219C15.1743 12.2219 16.6667 10.7295 16.6667 8.88856C16.6667 7.04761 15.1743 5.55523 13.3333 5.55523ZM7.77779 8.88856C7.77779 5.82031 10.2651 3.33301 13.3333 3.33301C16.4016 3.33301 18.8889 5.82031 18.8889 8.88856C18.8889 11.9568 16.4016 14.4441 13.3333 14.4441C10.2651 14.4441 7.77779 11.9568 7.77779 8.88856ZM8.28456 18.5846C7.11317 19.1048 6.66668 19.7617 6.66668 20.5552C6.66668 20.8037 6.71086 20.9444 6.77477 21.0463C6.83872 21.1483 6.99128 21.3211 7.40245 21.5071C8.28126 21.9047 10.0179 22.2219 13.3333 22.2219C16.6488 22.2219 18.3854 21.9047 19.2642 21.5071C19.6754 21.3211 19.828 21.1483 19.8919 21.0463C19.9558 20.9444 20 20.8037 20 20.5552C20 19.7617 19.5535 19.1048 18.3821 18.5846C17.1794 18.0505 15.4135 17.7775 13.3333 17.7775C11.2532 17.7775 9.48731 18.0505 8.28456 18.5846ZM7.3827 16.5536C8.99494 15.8377 11.118 15.5552 13.3333 15.5552C15.5487 15.5552 17.6717 15.8377 19.284 16.5536C20.9276 17.2835 22.2222 18.571 22.2222 20.5552C22.2222 21.0738 22.1275 21.6639 21.7748 22.2266C21.4221 22.7893 20.8802 23.2151 20.1802 23.5317C18.8368 24.1395 16.6846 24.4441 13.3333 24.4441C9.98214 24.4441 7.82988 24.1395 6.48647 23.5317C5.78652 23.2151 5.24464 22.7893 4.89193 22.2266C4.53917 21.6639 4.44446 21.0738 4.44446 20.5552C4.44446 18.571 5.73908 17.2835 7.3827 16.5536Z" fill="#241E2A"/>
</svg>
